<?xml version="1.0" encoding="utf-8"?>
<!-- Generator: Adobe Illustrator 22.0.0, SVG Export Plug-In . SVG Version: 6.00 Build 0)  -->
<svg version="1.1" id="Layer_1" xmlns="http://www.w3.org/2000/svg" xmlns:xlink="http://www.w3.org/1999/xlink" x="0px" y="0px"
	 viewBox="0 0 500 252" style="enable-background:new 0 0 500 252;" xml:space="preserve">
<style type="text/css">
	.st0{display:none;}
	.st1{display:inline;}
	.st2{fill:#35404C;}
	.st3{fill:#343F3E;}
	.st4{fill:#333D3C;}
	.st5{fill:#3B4342;}
	.st6{fill:#323B3A;}
	.st7{fill:#303A39;}
	.st8{fill:#384040;}
	.st9{fill:#3D4745;}
	.st10{fill:#3A4241;}
	.st11{fill:#3A4444;}
	.st12{fill:#293130;}
	.st13{fill:#3F4746;}
	.st14{fill:#2B3635;}
	.st15{display:none;opacity:0.3;fill:url(#SVGID_1_);}
	.st16{display:none;opacity:0.3;fill:url(#SVGID_2_);}
	.st17{display:none;opacity:0.3;fill:url(#SVGID_3_);}
	.st18{display:none;opacity:0.3;fill:url(#SVGID_4_);}
	.st19{display:none;fill:url(#SVGID_5_);}
	.st20{display:none;fill:url(#SVGID_6_);}
	.st21{fill:url(#SVGID_7_);}
	.st22{fill:url(#SVGID_8_);}
	.st23{fill:url(#SVGID_9_);}
</style>
<g class="st0">
	<g class="st1">
		<path class="st2" d="M434.4,17.1c-3.3,0-5.9,0.3-8.3-0.1c-1.7-0.3-3.1-1.7-4.7-2.7c1.6-1.1,3-2.8,4.8-3.2c2.4-0.6,4.9-0.1,8.1-0.1
			c0-3.2-0.3-6.1,0.1-9c0.2-1.6,1.8-3,2.7-4.4c1,1.4,2.6,2.7,2.9,4.2c0.6,2.7,0.4,5.6,0.5,9.1c2.9,0,5.9-0.4,8.7,0.1
			c1.6,0.3,3,1.9,4.5,3c-1.5,1-2.9,2.1-4.5,3c-0.7,0.3-1.6,0.1-2.5,0.1c-6.5,0-6.5,0-6.5,6.5c0,1,0.1,2.1-0.3,2.9
			c-0.7,1.3-1.8,2.4-2.8,3.6c-1-1.3-2.6-2.5-2.8-4C434.1,23.3,434.4,20.5,434.4,17.1z"/>
		<path class="st3" d="M105,10.4c0,2.3,0,4.2,0,6.3c-9.2,0-18.3,0-27.7,0c0-2,0-4.1,0-6.3C86.6,10.4,95.5,10.4,105,10.4z"/>
		<path class="st7" d="M25.6,170c2.2,0,3.9,0,5.8,0c0,2,0,3.8,0,6.1c-1.7,0.2-3.6,0.4-5.8,0.6C25.6,174.3,25.6,172.3,25.6,170z"/>
		<path class="st4" d="M62.5,10.4c2.3,0,4,0,6,0c0,2.2,0,4.2,0,6.3c-2,0-3.9,0-6,0C62.5,14.7,62.5,12.8,62.5,10.4z"/>
		<path class="st8" d="M488.4,224.5c1.7,1.9,3,3.4,5,5.5c-1.8,1.3-3.4,2.4-5.5,3.9c-0.9-0.9-2.3-2.2-4.2-4
			C485.1,228.3,486.4,226.8,488.4,224.5z"/>
		<path class="st5" d="M494.5,218.7c1.9-1.6,3.3-2.9,5.7-4.9c1,1.5,2.1,3.3,3.5,5.6c-1.2,0.8-2.7,2-4.8,3.5
			C497.9,221.9,496.4,220.5,494.5,218.7z"/>
		<path class="st3" d="M34.4,179.2c2.3,0,4.2,0,6.3,0c0,2.1,0,4,0,6.3c-1.8,0.1-3.6,0.2-6,0.4C34.6,183.6,34.5,181.5,34.4,179.2z"/>
		<path class="st11" d="M46.8,16.7c0-2.2,0-4.1,0-6.2c2.2,0,4.1,0,6.3,0c0,2.1,0,4,0,6.2C51.3,16.7,49.3,16.7,46.8,16.7z"/>
		<path class="st13" d="M493.2,207.4c-1.8,1.9-3.1,3.3-4.9,5.2c-1.7-2-3.1-3.5-4.8-5.5c1.5-1.3,3-2.5,5-4.1
			C489.9,204.3,491.4,205.6,493.2,207.4z"/>
		<path class="st14" d="M40.4,161.1c0.1,2.2,0.2,4,0.4,6c-2.1,0-4,0-6.2,0c0-2,0-3.9,0-6C36.6,161.1,38.3,161.1,40.4,161.1z"/>
	</g>
</g>
<linearGradient id="SVGID_1_" gradientUnits="userSpaceOnUse" x1="-5.3621" y1="145.042" x2="13.7209" y2="111.9893">
	<stop  offset="0.1345" style="stop-color:#373B44"/>
	<stop  offset="1" style="stop-color:#4286F4"/>
</linearGradient>
<circle class="st15" cx="4.2" cy="128.5" r="19.1"/>
<linearGradient id="SVGID_2_" gradientUnits="userSpaceOnUse" x1="184.8471" y1="235.3489" x2="308.2076" y2="21.6823">
	<stop  offset="0.1345" style="stop-color:#373B44"/>
	<stop  offset="1" style="stop-color:#4286F4"/>
</linearGradient>
<circle class="st16" cx="246.5" cy="128.5" r="123.3"/>
<linearGradient id="SVGID_3_" gradientUnits="userSpaceOnUse" x1="427.8548" y1="248.153" x2="453.5485" y2="203.6502">
	<stop  offset="0.1345" style="stop-color:#373B44"/>
	<stop  offset="1" style="stop-color:#4286F4"/>
</linearGradient>
<circle class="st17" cx="440.7" cy="225.9" r="25.7"/>
<linearGradient id="SVGID_4_" gradientUnits="userSpaceOnUse" x1="287.494" y1="222.7324" x2="218.8069" y2="154.0453">
	<stop  offset="0.1345" style="stop-color:#373B44"/>
	<stop  offset="1" style="stop-color:#4286F4"/>
</linearGradient>
<path style="display:none;fill:url(#SVGID_4_);" d="M299.8,171.4c0-6.3-5.1-11.4-11.4-11.4l0,0l-70.4-0.3c-6.3,0-11.4,5.1-11.4,11.4
	v34.3c0,6.3,5.1,11.4,11.4,11.4l70.4,0.3c6.3,0,11.4-5.1,11.4-11.4C299.8,205.7,299.8,171.4,299.8,171.4z M220.7,166.3
	c12,0,53.6,0.3,65.3,0.3h1.2l-33.1,22.6l-34.3-22.9H220.7z M288.4,210.5l-70.4-0.3c-2.7,0-5.1-2.1-5.1-5.1c0-15.6,0.3-30.4,0.3-34.6
	v-0.6l0.6,0.3l38.2,25.3c1.2,0.6,2.7,0.6,3.6,0l37.3-25.3v0.6c0.3,5.4,0.3,22,0.3,34.6C293.2,208.4,291.1,210.5,288.4,210.5z"/>
<linearGradient id="SVGID_5_" gradientUnits="userSpaceOnUse" x1="175.9323" y1="324.5823" x2="330.1003" y2="57.5555">
	<stop  offset="0.1345" style="stop-color:#373B44"/>
	<stop  offset="1" style="stop-color:#4286F4"/>
</linearGradient>
<path class="st19" d="M313,50.4H193c-9.3,0-17.5,7.8-17.5,17.5v246.5c0,9.3,7.8,17.5,17.5,17.5H313c9.3,0,17.5-7.8,17.5-17.5V67.6
	C330.5,58.2,322.7,50.4,313,50.4z M321.2,314.3c0,4.5-3.3,7.8-7.8,7.8H193c-4.5,0-7.8-3.3-7.8-7.8v-26.8h136V314.3z M321.2,277.9
	h-136V85h136V277.9z M321.2,75.7h-136v-8.1c0-4.5,3.3-7.8,7.8-7.8h43.3c0.3,1.8,1.8,3,3.6,3h26.5c1.8,0,3.3-1.5,3.6-3h43
	c4.5,0,7.8,3.3,7.8,7.8v8.1H321.2z"/>
<g>
	<linearGradient id="SVGID_6_" gradientUnits="userSpaceOnUse" x1="12.8547" y1="217.6412" x2="149.5123" y2="80.9837">
		<stop  offset="0" style="stop-color:#373B44"/>
		<stop  offset="1" style="stop-color:#4286F4"/>
	</linearGradient>
	<path style="fill:url(#SVGID_6_);" d="M142.6,75c1.1,0,2,0.8,2.6,2.1l30.7,69.6c0.7,1.6,0.7,3.7,0,5.3l-30.7,69.6
		c-0.6,1.3-1.6,2.1-2.6,2.1H19.8c-2.5,0-4-4.2-2.6-7.4l29.5-66.9L17.2,82.4c-1.4-3.2,0.1-7.4,2.6-7.4H142.6z"/>
	<linearGradient id="SVGID_7_" gradientUnits="userSpaceOnUse" x1="166.3227" y1="217.6414" x2="302.9802" y2="80.9838">
		<stop  offset="0" style="stop-color:#373B44"/>
		<stop  offset="1" style="stop-color:#4286F4"/>
	</linearGradient>
	<path class="st21" d="M296,75c1.1,0,2,0.8,2.6,2.1l30.7,69.6c0.7,1.6,0.7,3.7,0,5.3l-30.7,69.6c-0.6,1.3-1.6,2.1-2.6,2.1H173.3
		c-2.5,0-4-4.2-2.6-7.4l29.5-66.9l-29.5-66.9c-1.4-3.2,0.1-7.4,2.6-7.4H296z"/>
	<linearGradient id="SVGID_8_" gradientUnits="userSpaceOnUse" x1="319.7894" y1="217.6417" x2="456.4473" y2="80.9838">
		<stop  offset="0" style="stop-color:#373B44"/>
		<stop  offset="1" style="stop-color:#4286F4"/>
	</linearGradient>
	<path class="st22" d="M449.5,75c1.1,0,2,0.8,2.6,2.1l30.7,69.6c0.7,1.6,0.7,3.7,0,5.3l-30.7,69.6c-0.6,1.3-1.6,2.1-2.6,2.1H326.7
		c-2.5,0-4-4.2-2.6-7.4l29.5-66.9l-29.5-66.9c-1.4-3.2,0.1-7.4,2.6-7.4H449.5z"/>
</g>
</svg>
