<?xml version="1.0" encoding="utf-8"?>
<!-- Generator: Adobe Illustrator 22.0.0, SVG Export Plug-In . SVG Version: 6.00 Build 0)  -->
<svg version="1.1" id="Capa_1" xmlns="http://www.w3.org/2000/svg" xmlns:xlink="http://www.w3.org/1999/xlink" x="0px" y="0px"
	 viewBox="0 0 379.9 512" style="enable-background:new 0 0 379.9 512;" xml:space="preserve">
<style type="text/css">
	.st0{fill:#111111;}
	.st1{fill:#FFFFFF;}
	.st2{fill:#1C85E8;}
	.st3{fill:#2D2D2D;}
	.st4{fill:#F2F2F2;}
</style>
<title>1-get-quote</title>
<path class="st0" d="M310.9,443.5H69c-10,0-18.1-8.1-18.1-18.1V86.6c0-10,8.1-18.1,18.1-18.1h241.9c10,0,18.1,8.1,18.1,18.1v338.7
	C329,435.4,320.9,443.5,310.9,443.5z"/>
<path class="st1" d="M313.9,395.1h-248c-1.7,0-3-1.3-3-3l0,0V95.7c0-1.7,1.3-3,3-3l0,0h248c1.7,0,3,1.4,3,3l0,0v296.4
	C317,393.8,315.6,395.1,313.9,395.1L313.9,395.1z"/>
<path class="st2" d="M141.5,218.5v-18.9c3.7,1.4,6,3.8,6,6.1c0,3.3,2.7,6,6,6s6-2.7,6-6c0-9.1-7.6-16.5-18.1-18.6v-0.6
	c0.1-3.3-2.5-6.1-5.8-6.3c-3.3-0.1-6.1,2.5-6.3,5.8c0,0.1,0,0.3,0,0.4v0.7c-10.5,2.1-18.1,9.5-18.1,18.6c0,12.8,10,18.1,18.1,21.2
	v18.9c-3.7-1.4-6-3.8-6-6.1c0-3.3-2.7-6-6-6s-6,2.7-6,6c0,9.1,7.6,16.5,18.1,18.6v0.7c0.1,3.3,2.9,6,6.3,5.8
	c3.2-0.1,5.7-2.7,5.8-5.8v-0.7c10.5-2.1,18.1-9.5,18.1-18.6C159.7,226.9,149.7,221.6,141.5,218.5z M123.4,205.7c0-2.3,2.3-4.8,6-6.1
	v14.1C124.5,211.1,123.4,208.8,123.4,205.7L123.4,205.7z M141.5,245.8v-14.1c4.9,2.6,6,4.8,6,8C147.6,242,145.3,244.5,141.5,245.8
	L141.5,245.8z"/>
<path class="st0" d="M262.5,204.5h-12.1c-3.3,0-6-2.7-6-6s2.7-6,6-6h12.1c3.3,0,6,2.7,6,6S265.9,204.5,262.5,204.5L262.5,204.5z"/>
<path class="st0" d="M226.2,204.5h-42.3c-3.3,0-6-2.7-6-6s2.7-6,6-6h42.3c3.3,0,6,2.7,6,6S229.6,204.5,226.2,204.5L226.2,204.5z"/>
<path class="st0" d="M262.5,228.7h-78.6c-3.3,0-6-2.7-6-6s2.7-6,6-6h78.6c3.3,0,6,2.7,6,6C268.6,226,265.9,228.7,262.5,228.7
	L262.5,228.7z"/>
<path class="st0" d="M262.5,252.9h-12.1c-3.3,0-6-2.7-6-6s2.7-6,6-6h12.1c3.3,0,6,2.7,6,6C268.6,250.2,265.9,252.9,262.5,252.9
	L262.5,252.9z"/>
<path class="st0" d="M226.2,252.9h-42.3c-3.3,0-6-2.7-6-6s2.7-6,6-6h42.3c3.3,0,6,2.7,6,6C232.3,250.2,229.6,252.9,226.2,252.9
	L226.2,252.9z"/>
<path class="st3" d="M196,428.4h-12.1c-5,0-9.1-4.1-9.1-9.1s4.1-9.1,9.1-9.1H196c5,0,9.1,4.1,9.1,9.1S201,428.4,196,428.4z"/>
<path class="st4" d="M189.9,377C129.8,377,81,328.3,81,268.1V92.7H65.9c-1.7,0-3,1.4-3,3v296.4c0,1.7,1.4,3,3,3l0,0h248
	c1.7,0,3-1.3,3-3l0,0V377H189.9z"/>
</svg>
