<?xml version="1.0" encoding="utf-8"?>
<!-- Generator: Adobe Illustrator 22.0.0, SVG Export Plug-In . SVG Version: 6.00 Build 0)  -->
<svg version="1.1" id="Capa_1" xmlns="http://www.w3.org/2000/svg" xmlns:xlink="http://www.w3.org/1999/xlink" x="0px" y="0px"
	 viewBox="0 0 55 55" style="enable-background:new 0 0 55 55;" xml:space="preserve">
<style type="text/css">
	.st0{fill:#C99E79;}
	.st1{fill:#643513;}
	.st2{fill:#926E43;}
	.st3{fill:#D9AC80;}
	.st4{fill:#A67E4F;}
	.st5{fill:#8D5122;}
	.st6{fill:#77411B;}
	.st7{fill:#161616;}
	.st8{fill:#232323;stroke:#141414;stroke-miterlimit:10;}
	.st9{fill:#333333;}
	.st10{fill:#FFDD00;}
	.st11{fill:#111111;}
</style>
<title>2-ship-camera</title>
<g>
	<polygon class="st0" points="24.5,40.7 27.5,31.7 9.3,20.9 6.2,29.9 15.3,35.3 	"/>
	<polygon class="st1" points="27.5,10.2 36.7,15.5 45.8,21 36.7,26.3 27.4,31.8 18.3,26.3 9.2,21 18.3,15.5 	"/>
	<polygon class="st2" points="27.4,31.8 27.4,52.7 9.2,42.2 9.2,31.7 15.3,35.3 24.5,40.7 	"/>
	<polygon class="st3" points="9.2,21 5.6,20.7 23.9,10 27.5,10.2 18.3,15.5 	"/>
	<path class="st4" d="M45.8,21.6V21L45.7,21L45.8,21.6z M27.4,31.8v21l18.2-10.6l0.1-10.6l-6.3,3.7l-9.2,5.4L27.4,31.8z"/>
	<g>
		<polygon class="st3" points="30.2,40.7 27.4,31.8 45.7,21 48.6,29.9 39.4,35.3 		"/>
		<polygon class="st3" points="45.8,21 49.4,20.7 31.1,10 27.5,10.2 36.7,15.5 		"/>
	</g>
	<polygon class="st5" points="27.5,24.5 27.5,10.2 18.3,15.5 9.2,21 18.3,26.3 21.3,28.1 	"/>
	<polygon class="st6" points="27.5,10.2 27.5,24.5 33.7,28 45.7,21 45.7,21 45.8,21 36.7,15.5 	"/>
</g>
<path class="st7" d="M34,7.1l-1.8-4.4H21.6l-1.8,4.4h-4.1c-0.9,0-1.7,0.8-1.7,1.7v13c0,0.9,0.8,1.7,1.7,1.7H38
	c0.9,0,1.7-0.8,1.7-1.7v-13c0-0.9-0.8-1.7-1.7-1.7H34z"/>
<circle class="st8" cx="26.9" cy="14.2" r="7.5"/>
<circle class="st9" cx="26.9" cy="14.2" r="4.9"/>
<rect x="16.8" y="4.9" class="st7" width="1.8" height="2.2"/>
<circle class="st10" cx="36.6" cy="10.2" r="1.3"/>
<path class="st11" d="M26.9,19.5c-2.9,0-5.3-2.4-5.3-5.3s2.4-5.3,5.3-5.3s5.3,2.4,5.3,5.3S29.9,19.5,26.9,19.5z M26.9,9.8
	c-2.4,0-4.4,2-4.4,4.4s2,4.4,4.4,4.4s4.4-2,4.4-4.4S29.4,9.8,26.9,9.8z"/>
</svg>
