<?xml version="1.0" encoding="utf-8"?>
<!-- Generator: Adobe Illustrator 22.0.0, SVG Export Plug-In . SVG Version: 6.00 Build 0)  -->
<svg version="1.1" id="Capa_1" xmlns="http://www.w3.org/2000/svg" xmlns:xlink="http://www.w3.org/1999/xlink" x="0px" y="0px"
	 viewBox="0 0 491.2 491.2" style="enable-background:new 0 0 491.2 491.2;" xml:space="preserve">
<style type="text/css">
	.st0{fill:#263B80;}
	.st1{fill:#139AD6;}
	.st2{fill:#232C65;}
	.st3{fill:#2A4DAD;}
	.st4{fill:#0D7DBC;}
	.st5{fill:#436BC4;}
	.st6{fill:#0CB2ED;}
	.st7{opacity:0.6;}
	.st8{fill:#33E2FF;}
</style>
<path class="st0" d="M341,109.6c-14.6-16.7-41.7-24-75.6-24h-99.5c-6.8,0-13,5.2-14.1,12l-41.7,262.7c-1,5.2,3.1,9.9,8.3,9.9H180
	l15.6-98l-0.5,3.1c1-6.8,6.8-12,14.1-12h29.2c57.3,0,102.1-23.5,115.2-90.7c0.5-2.1,0.5-4.2,1-5.7c-1.6-1-1.6-1,0,0
	C358.2,141.9,354.6,125.2,341,109.6"/>
<path class="st1" d="M354.6,166.9L354.6,166.9c-0.5,2.1-0.5,3.6-1,5.7c-13,67.2-57.9,90.7-115.2,90.7h-29.2c-6.8,0-13,5.2-14.1,12
	l-19.3,121.4c-0.5,4.7,2.6,8.9,7.3,8.9h51.6c6.3,0,11.5-4.7,12.5-10.4l0.5-2.6l9.9-61.5l0.5-3.6c1-6.3,6.3-10.4,12.5-10.4h7.8
	c50,0,89.1-20.3,100.6-79.2c4.7-24.5,2.1-45.3-10.4-59.4C364.5,173.7,359.8,170,354.6,166.9"/>
<path class="st2" d="M340.5,161.7c-2.1-0.5-4.2-1-6.3-1.6c-2.1-0.5-4.2-1-6.8-1c-7.8-1.6-16.7-2.1-25.5-2.1h-77.7
	c-2.1,0-3.6,0.5-5.2,1c-3.6,1.6-6.3,5.2-6.8,9.4l-16.7,104.8l-0.5,3.1c1-6.8,6.8-12,14.1-12h29.2c57.3,0,102.1-23.5,115.2-90.7
	c0.5-2.1,0.5-4.2,1-5.7c-3.1-1.6-6.8-3.1-10.9-4.7C342.6,162.2,341.5,161.7,340.5,161.7"/>
<path class="st3" d="M264.9,85.6h-99c-6.8,0-13,5.2-14.1,12l-24,150.1L288.4,87.2C281.1,86.1,273.3,85.6,264.9,85.6z"/>
<path class="st4" d="M373.3,185.7c-1.6-2.6-2.6-5.2-4.7-7.8c-3.6-4.2-8.9-7.8-14.1-10.9c-0.5,2.1-0.5,3.6-1,5.7
	c-13,67.2-57.9,90.7-115.2,90.7h-29.2c-6.8,0-13,5.2-14.1,12l-16.7,105.3L373.3,185.7z"/>
<path class="st2" d="M118.5,370.2H180l15.1-94.9c0-1.6,0.5-2.6,1-3.6l-85.5,85.5l-0.5,3.1C109.6,365.5,113.3,370.2,118.5,370.2z"/>
<path class="st5" d="M246.2,85.6h-80.3c-2.1,0-3.6,0.5-5.2,1l-7.8,7.8c-0.5,1-1,2.1-1,3.1l-15.6,98L246.2,85.6z"/>
<g>
	<path class="st6" d="M379.1,237.3c1.6-7.8,2.1-15.1,2.1-22.4L279.5,316.5C329,316,367.6,295.6,379.1,237.3z"/>
	<path class="st6" d="M247.7,392.6l8.3-52.1l-65.1,65.1h44.3c6.3,0,11.5-4.7,12.5-10.4V392.6L247.7,392.6z"/>
</g>
<g class="st7">
	<path class="st8" d="M351.4,181l29.7,29.7c0-3.6-1-7.3-1.6-10.9l-26.1-26.1C352.5,176.3,352,178.4,351.4,181z"/>
	<path class="st8" d="M344.1,202.9c-1,2.1-2.1,4.2-3.1,6.3l36,36c0.5-2.6,1-5.2,1.6-7.8l0,0L344.1,202.9z"/>
	<path class="st8" d="M366.5,272.7c1-2.1,2.1-4.2,3.1-6.3l-39.6-39.6c-1.6,1.6-2.6,3.6-4.2,5.2L366.5,272.7z"/>
	<path class="st8" d="M304,248.7l45.3,45.3c1.6-1.6,3.1-3.1,4.7-4.7l-44.3-44.3C307.7,246.1,306.1,247.2,304,248.7z"/>
	<path class="st8" d="M276.4,259.2l49.5,49.5c2.1-1,4.2-2.1,6.3-3.1l-48.5-48.5C281.1,257.6,279,258.6,276.4,259.2z"/>
	<path class="st8" d="M294.6,316c2.6-0.5,5.7-0.5,8.3-1l-52.1-52.1c-3.1,0-5.7,0.5-8.9,0.5L294.6,316z"/>
	<path class="st8" d="M213.3,263.3h-4.2c-1.6,0-3.1,0.5-4.2,0.5l56.3,56.8c1.6-1.6,3.6-3.1,5.7-3.6L213.3,263.3z"/>
	<polygon class="st8" points="192.5,290.4 254,351.9 255.5,343.6 194,282.1 	"/>
	<polygon class="st8" points="187.3,323.3 248.8,384.8 250.3,376.9 188.8,315.4 	"/>
	<path class="st8" d="M183.6,348.3l-1,8.3l49,49h3.6c1.6,0,3.1-0.5,4.7-1L183.6,348.3z"/>
	<polygon class="st8" points="176.8,389.4 193,405.6 202.4,405.6 178.4,381.6 	"/>
</g>
</svg>
