<?xml version="1.0" encoding="utf-8"?>
<!-- Generator: Adobe Illustrator 22.0.0, SVG Export Plug-In . SVG Version: 6.00 Build 0)  -->
<svg version="1.1" id="Layer_1" xmlns="http://www.w3.org/2000/svg" xmlns:xlink="http://www.w3.org/1999/xlink" x="0px" y="0px"
	 viewBox="0 0 591 320" style="enable-background:new 0 0 591 320;" xml:space="preserve">
<style type="text/css">
	.st0{display:none;}
	.st1{fill:#35404C;}
	.st2{display:inline;fill:#343F3E;}
	.st3{fill:#333D3C;}
	.st4{display:inline;fill:#3B4342;}
	.st5{fill:#323B3A;}
	.st6{display:inline;fill:#303A39;}
	.st7{display:inline;fill:#323B3A;}
	.st8{display:inline;fill:#384040;}
	.st9{display:inline;fill:#3D4745;}
	.st10{display:inline;fill:#333D3C;}
	.st11{display:inline;fill:#3A4241;}
	.st12{fill:#3B4342;}
	.st13{display:inline;fill:#3A4444;}
	.st14{display:inline;fill:#293130;}
	.st15{display:inline;fill:#3F4746;}
	.st16{display:inline;fill:#2B3635;}
	.st17{display:none;fill:url(#SVGID_1_);}
	.st18{display:none;opacity:0.3;fill:url(#SVGID_2_);}
	.st19{display:none;fill:url(#SVGID_3_);}
	.st20{display:none;opacity:0.3;fill:url(#SVGID_4_);}
	.st21{fill:url(#SVGID_5_);}
	.st22{fill:url(#SVGID_6_);}
	.st23{fill:url(#SVGID_7_);}
	.st24{fill:url(#SVGID_8_);}
	.st25{fill:url(#SVGID_9_);}
	.st26{fill:url(#SVGID_10_);}
</style>
<g>
	<g class="st0">
		<path class="st2" d="M555.9,23.5c0,2.3,0,4.2,0,6.3c-9.2,0-18.3,0-27.7,0c0-2,0-4.1,0-6.3C537.4,23.5,546.3,23.5,555.9,23.5z"/>
		<path class="st2" d="M28.8,293.2c-1.8,1.6-3.2,2.9-4.8,4.5c-1.7-1.6-3.2-3-4.9-4.6c1.5-1.7,2.8-3.1,4.4-4.9
			C25.3,289.9,26.9,291.4,28.8,293.2z"/>
		<path class="st4" d="M62.9,274.9c0,2.2,0,4.2,0,6.4c-2.1,0-4.2,0-6.2,0C55.6,274.5,55.9,274.2,62.9,274.9z"/>
		<path class="st6" d="M71.8,52.5c2.2,0,3.9,0,5.8,0c0,2,0,3.8,0,6.1c-1.7,0.2-3.6,0.4-5.8,0.6C71.8,56.8,71.8,54.7,71.8,52.5z"/>
		<path class="st4" d="M53.9,288.1c1.5,1.6,2.8,3,4.5,4.8c-1.8,1.7-3.5,3.2-5.4,5c-1.6-2-2.7-3.5-4.1-5.2
			C50.6,291.2,52.2,289.8,53.9,288.1z"/>
		<path class="st7" d="M41.9,254.3c0,2,0,3.8,0,5.9c-2.1,0-4.1,0-6.4,0c0-1.9,0-3.8,0-5.9C37.6,254.3,39.7,254.3,41.9,254.3z"/>
		<path class="st8" d="M48.5,263.3c1.9-1.8,3.3-3.1,4.9-4.6c1.7,1.5,3.1,2.8,5,4.4c-1.4,1.6-2.7,3.1-4.3,4.9
			C52.2,266.5,50.6,265.1,48.5,263.3z"/>
		<path class="st9" d="M35.5,302.2c0-2.3,0-4,0-6.2c2.1,0,4,0,6.4,0c0.1,2,0.2,3.9,0.3,6.2C39.8,302.2,37.8,302.2,35.5,302.2z"/>
		<path class="st10" d="M513.4,23.5c2.3,0,4,0,6,0c0,2.2,0,4.2,0,6.3c-2,0-3.9,0-6,0C513.4,27.8,513.4,25.9,513.4,23.5z"/>
		<path class="st8" d="M555.7,279.2c1.7,1.9,3,3.4,5,5.5c-1.8,1.3-3.4,2.4-5.5,3.9c-0.9-0.9-2.3-2.2-4.2-4
			C552.4,283,553.7,281.5,555.7,279.2z"/>
		<path class="st4" d="M561.8,273.4c1.9-1.6,3.3-2.9,5.7-4.9c1,1.5,2.1,3.3,3.5,5.6c-1.2,0.8-2.7,2-4.8,3.5
			C565.2,276.5,563.7,275.1,561.8,273.4z"/>
		<path class="st11" d="M19.6,263.1c1-1.1,2.5-2.7,4.4-4.7c1.8,2.1,3.2,3.7,4.6,5.4c-1.8,1.3-3.4,2.5-5.6,4.1
			C22.3,266.9,21.1,265.2,19.6,263.1z"/>
		<path class="st2" d="M80.6,61.6c2.3,0,4.2,0,6.3,0c0,2.1,0,4,0,6.3c-1.8,0.1-3.6,0.2-6,0.4C80.8,66,80.7,63.9,80.6,61.6z"/>
		<path class="st13" d="M497.7,29.8c0-2.2,0-4.1,0-6.2c2.2,0,4.1,0,6.3,0c0,2.1,0,4,0,6.2C502.1,29.8,500.1,29.8,497.7,29.8z"/>
		<path class="st9" d="M577.8,279.4c1.6,1.7,2.9,3.1,4.5,4.8c-1.5,1.6-2.8,3.1-4.5,4.8c-1.6-1.6-3-2.9-4.8-4.6
			C574.7,282.7,576.2,281.1,577.8,279.4z"/>
		<path class="st13" d="M572.6,262.3c2.2-1.9,3.5-3.1,4.8-4.3c5.8,4.1,5.8,4.1-0.1,9C576,265.6,574.5,264.1,572.6,262.3z"/>
		<path class="st14" d="M14.8,275.2c2.1,0,3.9,0,5.9,0c0,2,0,3.8,0,6c-1.9,0-3.8,0-5.9,0C14.8,279.3,14.8,277.5,14.8,275.2z"/>
		<path class="st15" d="M560.5,262.1c-1.8,1.9-3.1,3.3-4.9,5.2c-1.7-2-3.1-3.5-4.8-5.5c1.5-1.3,3-2.5,5-4.1
			C557.2,258.9,558.6,260.3,560.5,262.1z"/>
		<path class="st16" d="M86.7,43.5c0.1,2.2,0.2,4,0.4,6c-2.1,0-4,0-6.2,0c0-2,0-3.9,0-6C82.8,43.5,84.6,43.5,86.7,43.5z"/>
	</g>
</g>
<linearGradient id="SVGID_1_" gradientUnits="userSpaceOnUse" x1="103.5039" y1="376.8809" x2="136.6098" y2="319.5398">
	<stop  offset="0.1345" style="stop-color:#373B44"/>
	<stop  offset="1" style="stop-color:#4286F4"/>
</linearGradient>
<circle class="st17" cx="120.1" cy="348.2" r="33.1"/>
<linearGradient id="SVGID_2_" gradientUnits="userSpaceOnUse" x1="21.8044" y1="40.0425" x2="40.8873" y2="6.9898">
	<stop  offset="0.1345" style="stop-color:#373B44"/>
	<stop  offset="1" style="stop-color:#4286F4"/>
</linearGradient>
<circle class="st18" cx="31.3" cy="23.5" r="19.1"/>
<linearGradient id="SVGID_3_" gradientUnits="userSpaceOnUse" x1="531.1849" y1="3.8968" x2="570.9106" y2="-64.9102">
	<stop  offset="0.1345" style="stop-color:#373B44"/>
	<stop  offset="1" style="stop-color:#4286F4"/>
</linearGradient>
<circle class="st19" cx="551" cy="-30.5" r="39.7"/>
<linearGradient id="SVGID_4_" gradientUnits="userSpaceOnUse" x1="495.2229" y1="311.1957" x2="512.7767" y2="280.7916">
	<stop  offset="0.1345" style="stop-color:#373B44"/>
	<stop  offset="1" style="stop-color:#4286F4"/>
</linearGradient>
<circle class="st20" cx="504" cy="296" r="17.6"/>
<g>
	<g>
		<linearGradient id="SVGID_5_" gradientUnits="userSpaceOnUse" x1="167.0064" y1="192.7155" x2="224.3535" y2="135.3684">
			<stop  offset="0.1345" style="stop-color:#373B44"/>
			<stop  offset="1" style="stop-color:#4286F4"/>
		</linearGradient>
		<path class="st21" d="M167.3,187.8c0.7-4.2,1.5-9.3,2.4-14.4c0.7-3.9,0-7.1-3.4-9.9c-3.6-2.9-6.8-6.2-9.8-9.6
			c-1.5-1.7-3.4-4.8-2.7-6.1c1-1.9,4-3.4,6.4-4c5.3-1.2,10.9-1.4,16.2-2.6c2-0.4,4.3-2.2,5.3-3.9c3-4.9,5.4-10.2,8.2-15.3
			c3-5.3,7.3-5.4,10.4-0.1c2.7,4.6,5.1,9.5,7.5,14.3c1.8,3.8,4.3,6.3,9,6.6c5,0.4,10,1.3,15,2.2c5.9,1.1,7.2,4.9,3.2,9.3
			c-3.3,3.5-6.6,7-10.4,10c-3.9,3.1-4.4,6.5-3.5,10.9c1,4.8,1.7,9.7,2.3,14.6c0.8,6.3-2.1,8.4-8.1,5.7c-4.4-1.9-8.9-3.8-13-6.3
			c-4.5-2.7-8.5-2.5-13-0.3c-4.3,2.1-8.9,3.7-13.4,5.4C169.6,196.9,167,195.1,167.3,187.8z"/>
		<linearGradient id="SVGID_6_" gradientUnits="userSpaceOnUse" x1="387.9492" y1="193.3991" x2="445.4359" y2="135.9123">
			<stop  offset="0.1345" style="stop-color:#373B44"/>
			<stop  offset="1" style="stop-color:#4286F4"/>
		</linearGradient>
		<path class="st22" d="M388.7,190.8c0.7-5,0.7-9.3,2-13.1c2.4-7.1-0.3-11.8-5.7-16c-2.3-1.8-4.5-3.8-6.3-6.1c-1.6-2-4-5.2-3.4-6.5
			c1-2,4.3-3.5,6.9-4.1c5.3-1.2,10.8-1.5,16.2-2.7c1.8-0.4,3.9-2,4.9-3.6c3.1-5.3,5.7-11,8.6-16.4c2.8-5.2,6-5.4,9.1-0.2
			c2.5,4.3,4.8,8.7,6.8,13.2c2.2,5.1,5.9,7.7,11.5,8.1c4.4,0.3,8.8,0.9,13.1,1.8c5.9,1.1,7.2,5,3.1,9.3c-3.3,3.5-6.7,6.9-10.4,9.9
			c-3.8,3.1-4.4,6.4-3.4,10.9c1.2,5.2,1.9,10.5,2.3,15.8c0.4,5-2.3,6.9-7.1,5c-3.7-1.4-7.5-2.9-10.8-5.1c-6.8-4.7-13-4.3-19.7,0.1
			c-2.8,1.8-6,3-9,4.4C391.6,198,388.3,195.9,388.7,190.8z"/>
		<linearGradient id="SVGID_7_" gradientUnits="userSpaceOnUse" x1="498.5707" y1="192.9927" x2="555.5424" y2="136.021">
			<stop  offset="0.1345" style="stop-color:#373B44"/>
			<stop  offset="1" style="stop-color:#4286F4"/>
		</linearGradient>
		<path class="st23" d="M499.5,189.4c0.8-4.8,2.2-10.1,2.3-15.4c0.1-3.1-1.3-6.7-3.2-9.2c-3-3.9-7.1-7-10.6-10.6
			c-4.1-4.2-2.9-8,3-9.1c5.8-1.1,11.7-1.5,17.4-2.8c2.2-0.5,4.6-2.3,5.7-4.2c3.1-5.1,5.5-10.6,8.4-15.9c2.8-5.1,6.1-5.1,9.1,0
			c2.8,4.8,4.8,10.1,7.9,14.7c1.8,2.5,5,4.7,8.1,5.7c4.8,1.4,10,1.4,14.9,2.5c2,0.5,4.6,1.9,5.2,3.5c0.6,1.6-0.6,4.3-1.9,5.9
			c-1.8,2.5-4.1,4.8-6.7,6.5c-7.1,4.8-8.2,11.1-6.2,18.7c1,3.6,1.4,7.2,1.9,10.9c0.7,5-2.6,7.4-7.4,5.4c-5-2.1-10-4.5-14.7-7.1
			c-3.9-2.1-7.2-2.4-11.2-0.1c-4.3,2.6-9,4.5-13.6,6.6C502.4,198.1,499.2,196,499.5,189.4z"/>
		<linearGradient id="SVGID_8_" gradientUnits="userSpaceOnUse" x1="55.726" y1="192.0016" x2="113.4281" y2="134.2995">
			<stop  offset="0.1345" style="stop-color:#373B44"/>
			<stop  offset="1" style="stop-color:#4286F4"/>
		</linearGradient>
		<path class="st24" d="M57.1,191c1-6.5,2.4-12.3,2.6-18.2c0.1-3-1.4-6.6-3.3-9.1c-3.2-4-7.4-7.3-11-11c-3.7-3.8-2.8-7.2,2.4-8.5
			c2.4-0.6,5-1,7.5-0.9c11.2,0.4,17.3-5.5,21.6-14.8c1.8-3.8,5.5-6.7,8.3-10.1c2.7,3.5,6.6,6.6,7.7,10.6c3.5,11.8,12.6,14,23.1,14.6
			c1.7,0.1,3.4,0.2,5,0.5c5.7,1.3,7.1,5.3,3,9.4c-3.4,3.4-6.8,6.8-10.7,9.6c-4.2,3.1-4.9,6.8-4,11.4c0.9,5,1.9,10.1,2.4,15.2
			c0.6,5.7-2.3,7.6-7.6,5.2c-4.6-2-9.2-4.2-13.4-6.8c-3.9-2.4-7.2-2.2-11-0.1c-4.7,2.6-9.7,4.9-14.8,7C60,196.9,57,195,57.1,191z"/>
		<linearGradient id="SVGID_9_" gradientUnits="userSpaceOnUse" x1="277.0676" y1="191.9519" x2="333.5714" y2="135.4482">
			<stop  offset="0.1345" style="stop-color:#373B44"/>
			<stop  offset="1" style="stop-color:#4286F4"/>
		</linearGradient>
		<path class="st25" d="M281,169.1c-0.7-1-1.6-3-3.1-4.5c-3.4-3.6-7.3-6.8-10.6-10.6c-1.5-1.7-3.4-4.8-2.7-6c1.1-1.9,4-3.5,6.4-4
			c5.3-1.2,10.9-1.4,16.2-2.6c2-0.5,4.3-2.2,5.4-3.9c3-4.9,5.2-10.3,8.2-15.3c1-1.7,3.3-3.5,5.1-3.7c1.3-0.1,2.9,2.3,4.4,3.7
			c0.3,0.3,0.4,0.7,0.6,1.1c4.6,14.4,13.8,22.7,30.2,21.9c1.8-0.1,4.9,1.8,5.3,3.4c0.5,1.9-0.7,4.7-2.1,6.3
			c-3.2,3.8-6.8,7.4-10.7,10.4c-3.5,2.7-4.2,5.8-3.4,9.7c0.9,4.6,1.7,9.3,2.3,14c0.7,6.4-2.1,8.2-8.3,5.6c-1.4-0.6-2.8-1-4-1.9
			c-10.3-7.9-20.5-7-30.9,0c-2.4,1.6-6.1,1.4-9.1,2.1c-0.4-3.3-1.3-6.6-1.1-9.8C279.1,180,280.1,175.1,281,169.1z"/>
	</g>
</g>
<linearGradient id="SVGID_10_" gradientUnits="userSpaceOnUse" x1="56.3074" y1="193.0988" x2="113.6545" y2="135.7517">
	<stop  offset="0.1345" style="stop-color:#373B44"/>
	<stop  offset="1" style="stop-color:#4286F4"/>
</linearGradient>
<path class="st26" d="M56.6,188.2c0.7-4.2,1.5-9.3,2.4-14.4c0.7-3.9,0-7.1-3.4-9.9c-3.6-2.9-6.8-6.2-9.8-9.6
	c-1.5-1.7-3.4-4.8-2.7-6.1c1-1.9,4-3.4,6.4-4c5.3-1.2,10.9-1.4,16.2-2.6c2-0.4,4.3-2.2,5.3-3.9c3-4.9,5.4-10.2,8.2-15.3
	c3-5.3,7.3-5.4,10.4-0.1c2.7,4.6,5.1,9.5,7.5,14.3c1.8,3.8,4.3,6.3,9,6.6c5,0.4,10,1.3,15,2.2c5.9,1.1,7.2,4.9,3.2,9.3
	c-3.3,3.5-6.6,7-10.4,10c-3.9,3.1-4.4,6.5-3.5,10.9c1,4.8,1.7,9.7,2.3,14.6c0.8,6.3-2.1,8.4-8.1,5.7c-4.4-1.9-8.9-3.8-13-6.3
	c-4.5-2.7-8.5-2.5-13-0.3c-4.3,2.1-8.9,3.7-13.4,5.4C58.9,197.3,56.3,195.4,56.6,188.2z"/>
</svg>
