<?xml version="1.0" encoding="utf-8"?>
<!-- Generator: Adobe Illustrator 22.0.0, SVG Export Plug-In . SVG Version: 6.00 Build 0)  -->
<svg version="1.1" id="Layer_1" xmlns="http://www.w3.org/2000/svg" xmlns:xlink="http://www.w3.org/1999/xlink" x="0px" y="0px"
	 viewBox="0 0 1300 425" style="enable-background:new 0 0 1300 425;" xml:space="preserve">
<style type="text/css">
	.st0{display:none;}
	.st1{fill:#35404C;}
	.st2{fill:#343F3E;}
	.st3{fill:#333D3C;}
	.st4{display:inline;fill:#343F3E;}
	.st5{display:inline;fill:#3B4342;}
	.st6{fill:#323B3A;}
	.st7{fill:#303A39;}
	.st8{display:inline;fill:#323B3A;}
	.st9{display:inline;fill:#384040;}
	.st10{display:inline;fill:#3D4745;}
	.st11{display:inline;fill:#3A4241;}
	.st12{fill:#3B4342;}
	.st13{fill:#3A4444;}
	.st14{display:inline;fill:#3A4444;}
	.st15{display:inline;fill:#293130;}
	.st16{display:inline;fill:#3F4746;}
	.st17{fill:#2B3635;}
	.st18{opacity:6.000000e-02;fill:url(#SVGID_1_);}
	.st19{display:none;fill:url(#SVGID_2_);}
	.st20{display:none;fill:url(#SVGID_3_);}
	.st21{opacity:6.000000e-02;fill:url(#SVGID_4_);}
	.st22{fill:url(#SVGID_5_);}
	.st23{fill:url(#SVGID_6_);}
	.st24{fill:url(#SVGID_7_);}
	.st25{fill:url(#SVGID_8_);}
	.st26{fill:url(#SVGID_9_);}
	.st27{fill:url(#SVGID_10_);}
	.st28{fill:url(#SVGID_11_);}
	.st29{fill:url(#SVGID_12_);}
	.st30{fill:url(#SVGID_13_);}
	.st31{fill:url(#SVGID_14_);}
	.st32{fill:url(#SVGID_15_);}
	.st33{fill:url(#SVGID_16_);}
	.st34{fill:url(#SVGID_17_);}
	.st35{fill:url(#SVGID_18_);}
	.st36{fill:url(#SVGID_19_);}
	.st37{fill:url(#SVGID_20_);}
	.st38{fill:url(#SVGID_21_);}
	.st39{fill:url(#SVGID_22_);}
	.st40{fill:url(#SVGID_23_);}
	.st41{fill:url(#SVGID_24_);}
	.st42{fill:url(#SVGID_25_);}
	.st43{fill:url(#SVGID_26_);}
	.st44{fill:url(#SVGID_27_);}
	.st45{fill:url(#SVGID_28_);}
	.st46{fill:url(#SVGID_29_);}
	.st47{fill:url(#SVGID_30_);}
	.st48{fill:url(#SVGID_31_);}
	.st49{fill:url(#SVGID_32_);}
	.st50{fill:url(#SVGID_33_);}
	.st51{fill:url(#SVGID_34_);}
	.st52{fill:url(#SVGID_35_);}
	.st53{fill:url(#SVGID_36_);}
	.st54{fill:url(#SVGID_37_);}
	.st55{opacity:6.000000e-02;fill:url(#SVGID_38_);}
	.st56{opacity:6.000000e-02;fill:url(#SVGID_39_);}
	.st57{opacity:6.000000e-02;fill:url(#SVGID_40_);}
	.st58{opacity:6.000000e-02;fill:url(#SVGID_41_);}
</style>
<g>
	<g class="st0">
		<path class="st1" d="M818.2-6.9c-3.3,0-5.9,0.3-8.3-0.1c-1.7-0.3-3.1-1.7-4.7-2.7c1.6-1.1,3-2.8,4.8-3.2c2.4-0.6,4.9-0.1,8.1-0.1
			c0-3.2-0.3-6.1,0.1-9c0.2-1.6,1.8-3,2.7-4.4c1,1.4,2.6,2.7,2.9,4.2c0.6,2.7,0.4,5.6,0.5,9.1c2.9,0,5.9-0.4,8.7,0.1
			c1.6,0.3,3,1.9,4.5,3c-1.5,1-2.9,2.1-4.5,3c-0.7,0.3-1.6,0.1-2.5,0.1c-6.5,0-6.5,0-6.5,6.5c0,1,0.1,2.1-0.3,2.9
			c-0.7,1.3-1.8,2.4-2.8,3.6c-1-1.3-2.6-2.5-2.8-4C817.8-0.7,818.2-3.5,818.2-6.9z"/>
		<path class="st2" d="M854,22.6c0,2.3,0,4.2,0,6.3c-9.2,0-18.3,0-27.7,0c0-2,0-4.1,0-6.3C835.5,22.6,844.4,22.6,854,22.6z"/>
		<path class="st3" d="M844.1,330c0,11,0,19.9,0,29.2c-2.2,0-4.2,0-6.7,0c0-8.7-0.2-17.1,0.3-25.4
			C837.7,332.7,841.2,331.7,844.1,330z"/>
		<path class="st4" d="M94.7,408c-1.8,1.6-3.2,2.9-4.8,4.5c-1.7-1.6-3.2-3-4.9-4.6c1.5-1.7,2.8-3.1,4.4-4.9
			C91.2,404.7,92.8,406.2,94.7,408z"/>
		<path class="st5" d="M128.8,389.6c0,2.2,0,4.2,0,6.4c-2.1,0-4.2,0-6.2,0C121.5,389.3,121.8,388.9,128.8,389.6z"/>
		<path class="st6" d="M837.6,374c0-2,0-3.8,0-5.9c2.1,0,4.1,0,6.4,0c0,1.8,0,3.7,0,5.9C842,374,839.9,374,837.6,374z"/>
		<path class="st7" d="M404.9,38.3c2.2,0,3.9,0,5.8,0c0,2,0,3.8,0,6.1c-1.7,0.2-3.6,0.4-5.8,0.6C404.9,42.6,404.9,40.5,404.9,38.3z"
			/>
		<path class="st5" d="M119.8,402.8c1.5,1.6,2.8,3,4.5,4.8c-1.8,1.7-3.5,3.2-5.4,5c-1.6-2-2.7-3.5-4.1-5.2
			C116.5,405.9,118,404.5,119.8,402.8z"/>
		<path class="st8" d="M107.7,369c0,2,0,3.8,0,5.9c-2.1,0-4.1,0-6.4,0c0-1.9,0-3.8,0-5.9C103.5,369,105.6,369,107.7,369z"/>
		<path class="st9" d="M114.4,378.1c1.9-1.8,3.3-3.1,4.9-4.6c1.7,1.5,3.1,2.8,5,4.4c-1.4,1.6-2.7,3.1-4.3,4.9
			C118,381.2,116.5,379.8,114.4,378.1z"/>
		<path class="st10" d="M101.3,416.9c0-2.3,0-4,0-6.2c2.1,0,4,0,6.4,0c0.1,2,0.2,3.9,0.3,6.2C105.7,416.9,103.6,416.9,101.3,416.9z"
			/>
		<path class="st3" d="M811.5,22.6c2.3,0,4,0,6,0c0,2.2,0,4.2,0,6.3c-2,0-3.9,0-6,0C811.5,26.9,811.5,25,811.5,22.6z"/>
		<path class="st9" d="M1129.8,148.4c1.7,1.9,3,3.4,5,5.5c-1.8,1.3-3.4,2.4-5.5,3.9c-0.9-0.9-2.3-2.2-4.2-4
			C1126.5,152.2,1127.8,150.7,1129.8,148.4z"/>
		<path class="st5" d="M1135.9,142.6c1.9-1.6,3.3-2.9,5.7-4.9c1,1.5,2.1,3.3,3.5,5.6c-1.2,0.8-2.7,2-4.8,3.5
			C1139.3,145.8,1137.8,144.4,1135.9,142.6z"/>
		<path class="st11" d="M85.4,377.8c1-1.1,2.5-2.7,4.4-4.7c1.8,2.1,3.2,3.7,4.6,5.4c-1.8,1.3-3.4,2.5-5.6,4.1
			C88.1,381.7,86.9,379.9,85.4,377.8z"/>
		<path class="st2" d="M413.6,47.4c2.3,0,4.2,0,6.3,0c0,2.1,0,4,0,6.3c-1.8,0.1-3.6,0.2-6,0.4C413.8,51.9,413.7,49.7,413.6,47.4z"/>
		<path class="st12" d="M837.7,383.1c2.2,0,4,0,6.2,0c0,2.1,0,4.1,0,6.5c-2,0-3.9,0-6.2,0C837.7,387.7,837.7,385.7,837.7,383.1z"/>
		<path class="st13" d="M795.8,28.9c0-2.2,0-4.1,0-6.2c2.2,0,4.1,0,6.3,0c0,2.1,0,4,0,6.2C800.2,28.9,798.2,28.9,795.8,28.9z"/>
		<path class="st10" d="M1151.9,148.6c1.6,1.7,2.9,3.1,4.5,4.8c-1.5,1.6-2.8,3.1-4.5,4.8c-1.6-1.6-3-2.9-4.8-4.6
			C1148.9,151.9,1150.3,150.3,1151.9,148.6z"/>
		<path class="st14" d="M1146.8,131.5c2.2-1.9,3.5-3.1,4.8-4.3c5.8,4.1,5.8,4.1-0.1,9C1150.1,134.8,1148.6,133.4,1146.8,131.5z"/>
		<path class="st15" d="M80.7,389.9c2.1,0,3.9,0,5.9,0c0,2,0,3.8,0,6c-1.9,0-3.8,0-5.9,0C80.7,394,80.7,392.2,80.7,389.9z"/>
		<path class="st16" d="M1134.6,131.4c-1.8,1.9-3.1,3.3-4.9,5.2c-1.7-2-3.1-3.5-4.8-5.5c1.5-1.3,3-2.5,5-4.1
			C1131.3,128.2,1132.7,129.6,1134.6,131.4z"/>
		<path class="st17" d="M419.7,29.4c0.1,2.2,0.2,4,0.4,6c-2.1,0-4,0-6.2,0c0-2,0-3.9,0-6C415.8,29.4,417.6,29.4,419.7,29.4z"/>
	</g>
</g>
<linearGradient id="SVGID_1_" gradientUnits="userSpaceOnUse" x1="45.8109" y1="99.6712" x2="59.8874" y2="75.2899">
	<stop  offset="0.1345" style="stop-color:#373B44"/>
	<stop  offset="1" style="stop-color:#4286F4"/>
</linearGradient>
<circle class="st18" cx="52.8" cy="87.5" r="14.1"/>
<linearGradient id="SVGID_2_" gradientUnits="userSpaceOnUse" x1="379.1627" y1="160.813" x2="398.2457" y2="127.7603">
	<stop  offset="0.1345" style="stop-color:#373B44"/>
	<stop  offset="1" style="stop-color:#4286F4"/>
</linearGradient>
<circle class="st19" cx="388.7" cy="144.3" r="19.1"/>
<linearGradient id="SVGID_3_" gradientUnits="userSpaceOnUse" x1="902.2916" y1="164.8676" x2="922.1544" y2="130.4641">
	<stop  offset="0.1345" style="stop-color:#373B44"/>
	<stop  offset="1" style="stop-color:#4286F4"/>
</linearGradient>
<circle class="st20" cx="912.2" cy="147.7" r="19.9"/>
<linearGradient id="SVGID_4_" gradientUnits="userSpaceOnUse" x1="1269.3447" y1="415.8763" x2="1289.4059" y2="381.1293">
	<stop  offset="0.1345" style="stop-color:#373B44"/>
	<stop  offset="1" style="stop-color:#4286F4"/>
</linearGradient>
<circle class="st21" cx="1279.4" cy="398.5" r="20.1"/>
<g>
	<linearGradient id="SVGID_5_" gradientUnits="userSpaceOnUse" x1="97.5638" y1="441.9119" x2="168.0155" y2="319.8859">
		<stop  offset="0.1345" style="stop-color:#373B44"/>
		<stop  offset="1" style="stop-color:#4286F4"/>
	</linearGradient>
	<path class="st22" d="M202.4,356.6c-0.3-2.1-0.8-5-1.6-8.1c-1-4-2-3.3-5.4-5.3c0.4-1.7,0.7-2.9,0.9-3.9c0.4-2.1,0-2.3-1.9-3.7
		c-4-3-11.1-4.2-16.7-4.7c-1.7-0.2-2.6,0.4-3.7,1.3c-0.6-0.7-1.1-1.3-1.8-2.1c-1.3-1.4-2.2-5.2-3.1-6.6c-1.5-2.4-4.5-4.5-6.9-5.7
		c-0.8-0.4-1.1-0.5-2.1-0.5c0-1.1,0-2.3-0.8-2.4c-2.6-0.2-8.1-0.1-11.5-0.1c-3.7,0-5.7,0-9.5,0c-1.6,0-1.8,0.6-1.9,2.2
		c-2.8,0.9-7.1,2.7-9.3,6.5c-1.5,2.5-2.4,4.6-3.8,6.9c-2.8,4.5-13.7,6.5-33,7.6c-3.2-1.1-7.2-0.3-13.5,1.1
		c-8.2,1.7-15.1,6.9-15.8,15.2c-1.7,20-2.1,40.6-0.5,62.1c0.4,5.5,3.4,7.2,11.7,7.2l14.8,0.2c2.1,0,2.6-0.6,4-0.9l97.8,0
		c8.4,0,15.1-6.8,15.2-15.2C204.2,388,204.3,369,202.4,356.6z M81.7,346.8c-2.8,0.2-5-1-5-2.7c0-1.7,2.3-3.3,5-3.5s5,1,5,2.7
		C86.8,345,84.5,346.6,81.7,346.8z M94.2,416.2c0,0.6-0.5,1.1-1.1,1.1c-0.6,0-1.1-0.5-1.1-1.1v-53.9c0-0.6,0.5-1.1,1.1-1.1
		c0.6,0,1.1,0.5,1.1,1.1V416.2z M147,421.9c-21.6,0-39.1-17.5-39.1-39.1c0-21.6,17.5-39.1,39.1-39.1s39.1,17.5,39.1,39.1
		C186.1,404.4,168.6,421.9,147,421.9z M187.6,391.4l-1.5-0.1c1.1-5.7,1-11.4,0-17.1l1.5,0.1C193.2,380.3,193,385.9,187.6,391.4z"/>
	<linearGradient id="SVGID_6_" gradientUnits="userSpaceOnUse" x1="130.6054" y1="411.2251" x2="163.4041" y2="354.4161">
		<stop  offset="0.1345" style="stop-color:#373B44"/>
		<stop  offset="1" style="stop-color:#4286F4"/>
	</linearGradient>
	<path class="st23" d="M147,350c-18.1,0-32.8,14.7-32.8,32.8c0,18.1,14.7,32.8,32.8,32.8c18.1,0,32.8-14.7,32.8-32.8
		C179.8,364.7,165.1,350,147,350z M147,401.6c-10.3,0-18.7-8.4-18.7-18.7c0-10.3,8.4-18.7,18.7-18.7s18.7,8.4,18.7,18.7
		C165.7,393.2,157.4,401.6,147,401.6z"/>
</g>
<g>
	<linearGradient id="SVGID_7_" gradientUnits="userSpaceOnUse" x1="229.0471" y1="409.2091" x2="250.3373" y2="372.3334">
		<stop  offset="0.1345" style="stop-color:#373B44"/>
		<stop  offset="1" style="stop-color:#4286F4"/>
	</linearGradient>
	<path class="st24" d="M217.2,379.2v23.2h44.9v-23.2H217.2z M226.6,395c0,1.3-1.2,2.5-2.5,2.5s-2.5-1-2.5-2.5v-8.7
		c0-1.3,1.2-2.5,2.5-2.5s2.5,1.2,2.5,2.5V395z M237,395c0,1.3-1.2,2.5-2.5,2.5c-1.3,0-2.5-1-2.5-2.5v-8.7c0-1.3,1-2.5,2.5-2.5
		c1.3,0,2.5,1.2,2.5,2.5V395z M247.3,395c0,1.3-1.2,2.5-2.5,2.5s-2.5-1-2.5-2.5v-8.7c0-1.3,1.2-2.5,2.5-2.5s2.5,1.2,2.5,2.5V395z
		 M257.7,395c0,1.3-1.2,2.5-2.5,2.5c-1.3,0-2.5-1-2.5-2.5v-8.7c0-1.3,1.2-2.5,2.5-2.5c1.3,0,2.5,1.2,2.5,2.5V395z"/>
	<linearGradient id="SVGID_8_" gradientUnits="userSpaceOnUse" x1="231.1451" y1="384.3868" x2="246.6339" y2="357.5594">
		<stop  offset="0.1345" style="stop-color:#373B44"/>
		<stop  offset="1" style="stop-color:#4286F4"/>
	</linearGradient>
	<polygon class="st25" points="216.4,375.9 263.3,375.9 266.9,369.3 212.6,369.3 	"/>
	<linearGradient id="SVGID_9_" gradientUnits="userSpaceOnUse" x1="232.0441" y1="419.6132" x2="245.4468" y2="396.399">
		<stop  offset="0.1345" style="stop-color:#373B44"/>
		<stop  offset="1" style="stop-color:#4286F4"/>
	</linearGradient>
	<polygon class="st26" points="222.2,413.9 257.4,413.9 261.5,405.7 218,405.7 	"/>
	<linearGradient id="SVGID_10_" gradientUnits="userSpaceOnUse" x1="234.2665" y1="429.762" x2="245.4472" y2="410.3964">
		<stop  offset="0.1345" style="stop-color:#373B44"/>
		<stop  offset="1" style="stop-color:#4286F4"/>
	</linearGradient>
	<rect x="222.5" y="417.2" class="st27" width="34.7" height="5.8"/>
	<linearGradient id="SVGID_11_" gradientUnits="userSpaceOnUse" x1="227.9588" y1="375.4249" x2="251.5902" y2="334.4942">
		<stop  offset="0.1345" style="stop-color:#373B44"/>
		<stop  offset="1" style="stop-color:#4286F4"/>
	</linearGradient>
	<path class="st28" d="M261.7,346.7l-1.6,6.4c-0.2,2.3-1.8,4-3.8,4c-2,0-3.5-1.6-3.8-4l-1.6-9.4h-22.1l-1.6,9.4c-0.3,2.3-2,4-3.8,4
		c-2,0-3.6-1.6-3.8-4l-1.6-6.4l-6.3-2.8V366h56.3v-22.1L261.7,346.7z"/>
</g>
<g>
	<linearGradient id="SVGID_12_" gradientUnits="userSpaceOnUse" x1="998.1553" y1="39.1696" x2="1009.2935" y2="19.8775">
		<stop  offset="0.1345" style="stop-color:#373B44"/>
		<stop  offset="1" style="stop-color:#4286F4"/>
	</linearGradient>
	<path class="st29" d="M1001.1,19h5.3c2.4,0,4.7,1.8,4.7,4.7v11.8c0,2.4-2.4,4.7-4.7,4.7h-5.3c-2.4,0-4.7-2.4-4.7-4.7V23.7
		C996.4,20.7,998.7,19,1001.1,19z"/>
	<linearGradient id="SVGID_13_" gradientUnits="userSpaceOnUse" x1="1000.8848" y1="45.9964" x2="1005.9783" y2="37.1741">
		<stop  offset="0.1345" style="stop-color:#373B44"/>
		<stop  offset="1" style="stop-color:#4286F4"/>
	</linearGradient>
	<path class="st30" d="M1012.3,40.8c-0.6,2.4-3,4.1-5.3,4.1h-6.5c-2.4,0-4.7-1.8-5.3-4.1H1012.3z"/>
	<linearGradient id="SVGID_14_" gradientUnits="userSpaceOnUse" x1="991.2336" y1="39.3344" x2="1000.9725" y2="22.4662">
		<stop  offset="0.1345" style="stop-color:#373B44"/>
		<stop  offset="1" style="stop-color:#4286F4"/>
	</linearGradient>
	<path class="st31" d="M992.8,40.2c-0.6-3.5,0-10.1,0-13.6c0-3,1.8-5.3,4.1-6.5c-1.2,0.6-1.8,1.8-1.8,3.5v12.4c0,1.8,1.2,3,2.4,4.1
		H992.8z"/>
	<linearGradient id="SVGID_15_" gradientUnits="userSpaceOnUse" x1="1007.6038" y1="38.8868" x2="1016.4648" y2="23.539">
		<stop  offset="0.1345" style="stop-color:#373B44"/>
		<stop  offset="1" style="stop-color:#4286F4"/>
	</linearGradient>
	<path class="st32" d="M1010.6,20.1c2.4,1.2,4.7,3.5,4.7,6.5c0,3.5,0,10.1-0.6,13.6h-4.7c1.2-1.2,2.4-2.4,2.4-4.1V23.7
		C1012.3,21.9,1011.7,20.7,1010.6,20.1z"/>
	<linearGradient id="SVGID_16_" gradientUnits="userSpaceOnUse" x1="998.7842" y1="62.7467" x2="1008.7211" y2="45.5356">
		<stop  offset="0.1345" style="stop-color:#373B44"/>
		<stop  offset="1" style="stop-color:#4286F4"/>
	</linearGradient>
	<path class="st33" d="M994,54.4l4.7-8.9h10.1l4.7,8.9l-4.7,8.3h-10.1L994,54.4z M1004,48.5c3,0,5.3,2.4,5.3,5.9
		c0,3-2.4,5.3-5.3,5.3c-3.5,0-5.9-2.4-5.9-5.3C998.1,50.9,1000.5,48.5,1004,48.5z"/>
	<linearGradient id="SVGID_17_" gradientUnits="userSpaceOnUse" x1="1001.7621" y1="57.7864" x2="1005.8032" y2="50.7871">
		<stop  offset="0.1345" style="stop-color:#373B44"/>
		<stop  offset="1" style="stop-color:#4286F4"/>
	</linearGradient>
	<path class="st34" d="M1007,51.5c0.6,0.6,1.2,1.8,1.2,3s-0.6,2.4-1.8,3c-0.6-0.6-1.8-1.2-2.4-1.2c-1.2,0-2.4,0.6-3,1.2
		c-1.2-0.6-1.8-1.8-1.8-3s0.6-2.4,1.2-3c0.6,0.6,1.8,1.2,3.5,1.2C1005.2,52.7,1006.4,52.1,1007,51.5z"/>
	<linearGradient id="SVGID_18_" gradientUnits="userSpaceOnUse" x1="925.2553" y1="27.2866" x2="935.0254" y2="10.3642">
		<stop  offset="0.1345" style="stop-color:#373B44"/>
		<stop  offset="1" style="stop-color:#4286F4"/>
	</linearGradient>
	<path class="st35" d="M918.3,18.4c14.2-0.6,24.2-1.2,27.8-1.2c1.2,0,0.6,0,0.6,0c-3,0.6-8.9,1.8-10.1,2.4s-3,1.2-3,1.2l-16,0.6
		C912.4,21.3,911.8,19.6,918.3,18.4z"/>
	<linearGradient id="SVGID_19_" gradientUnits="userSpaceOnUse" x1="968.0726" y1="75.772" x2="990.7334" y2="36.5223">
		<stop  offset="0.1345" style="stop-color:#373B44"/>
		<stop  offset="1" style="stop-color:#4286F4"/>
	</linearGradient>
	<polygon class="st36" points="973.9,75.7 968,75.7 968,72.2 971.5,61.5 972.1,60.9 973.3,57.4 980.4,44.4 988.1,36.1 991,36.7 
		982.2,45.6 976.3,56.8 976.9,56.2 978,56.2 978,56.8 980.4,56.8 979.2,59.2 978,59.2 972.7,71.6 975.1,71.6 	"/>
	<linearGradient id="SVGID_20_" gradientUnits="userSpaceOnUse" x1="944.8173" y1="40.6467" x2="956.9842" y2="19.5731">
		<stop  offset="0.1345" style="stop-color:#373B44"/>
		<stop  offset="1" style="stop-color:#4286F4"/>
	</linearGradient>
	<path class="st37" d="M941.4,26.1h5.9c0-1.2,0-8.9,0.6-9.5c0.6-0.6,1.2-0.6,1.8-0.6c0.6,0,1.8,0,1.8,0.6c1.2,0.6,0.6,8.3,0.6,9.5
		h5.9v12.4h-1.2c-0.6,1.2-1.8,2.4-3,2.4h-7.7c-1.8,0-3-1.2-3-2.4h-1.8V26.1z"/>
	<linearGradient id="SVGID_21_" gradientUnits="userSpaceOnUse" x1="966.6406" y1="36.315" x2="980.5214" y2="12.2728">
		<stop  offset="0.1345" style="stop-color:#373B44"/>
		<stop  offset="1" style="stop-color:#4286F4"/>
	</linearGradient>
	<path class="st38" d="M991.6,35.5c0,0-7.1-0.6-8.9-1.2c-2.4-0.6-4.7-1.8-4.7-1.8l-16.6-1.8l-2.4,1.2v-7.1h-6.5
		c0.6-0.6,3.5-3.5,5.3-3.5c1.2,0,2.4,0,3.5,0v-3.5c-3.5,0-6.5,0-8.3,0c-0.6,0,0-0.6,0-0.6c2.4,0,8.9-1.2,9.5-1.8
		c1.2-0.6,2.4-0.6,3-0.6v-4.7c0-0.6,1.2-1.2,1.8-1.2c0.6,0,1.2,0.6,1.2,1.2v4.7h13.6c5.3,0,5.9,1.8-1.2,3c-3,0-5.3,0-8.3,0v3
		l1.2,1.8l9.5,4.7c1.8,0.6,6.5-0.6,8.3-1.2V35.5z"/>
	<linearGradient id="SVGID_22_" gradientUnits="userSpaceOnUse" x1="949.0155" y1="17.5171" x2="956.2324" y2="5.0172">
		<stop  offset="0.1345" style="stop-color:#373B44"/>
		<stop  offset="1" style="stop-color:#4286F4"/>
	</linearGradient>
	<path class="st39" d="M943.7,10.7c10.6,0,18.3-0.6,21.3-0.6l0,0c-2.4,0.6-6.5,1.8-7.7,1.8c-0.6,0.6-1.8,0.6-1.8,0.6l-12.4,0.6
		C939.6,13.1,939,11.9,943.7,10.7z"/>
	<linearGradient id="SVGID_23_" gradientUnits="userSpaceOnUse" x1="978.8061" y1="15.9106" x2="985.7755" y2="3.8393">
		<stop  offset="0.1345" style="stop-color:#373B44"/>
		<stop  offset="1" style="stop-color:#4286F4"/>
	</linearGradient>
	<path class="st40" d="M991,10.7c-10.6,0-18.3,0-21.3,0l0,0c2.4-0.6,6.5-1.2,7.7-1.8c0.6-0.6,1.8-0.6,1.8-0.6h12.4
		C995.8,8.3,995.8,10.1,991,10.7z"/>
	<linearGradient id="SVGID_24_" gradientUnits="userSpaceOnUse" x1="1073.9142" y1="24.7581" x2="1080.9957" y2="12.4925">
		<stop  offset="0.1345" style="stop-color:#373B44"/>
		<stop  offset="1" style="stop-color:#4286F4"/>
	</linearGradient>
	<path class="st41" d="M1089.2,18.4c-13.6-0.6-24.2-1.2-27.8-1.2c-0.6,0-0.6,0-0.6,0c3,0.6,8.9,1.8,10.1,2.4c1.2,0.6,3,1.2,3,1.2
		l16,0.6C1095.1,21.3,1095.7,19.6,1089.2,18.4z"/>
	<linearGradient id="SVGID_25_" gradientUnits="userSpaceOnUse" x1="1020.9487" y1="68.4111" x2="1034.5538" y2="44.8464">
		<stop  offset="0.1345" style="stop-color:#373B44"/>
		<stop  offset="1" style="stop-color:#4286F4"/>
	</linearGradient>
	<polygon class="st42" points="1033.6,75.7 1039.5,75.7 1039.5,72.2 1036,61.5 1035.4,60.9 1034.8,57.4 1027.7,44.4 1019.4,36.1 
		1016.5,36.7 1025.3,45.6 1031.2,56.8 1030.7,56.2 1029.5,56.2 1029.5,56.8 1027.1,56.8 1028.3,59.2 1029.5,59.2 1034.8,71.6 
		1032.4,71.6 	"/>
	<linearGradient id="SVGID_26_" gradientUnits="userSpaceOnUse" x1="1052.9689" y1="40.7192" x2="1065.1141" y2="19.683">
		<stop  offset="0.1345" style="stop-color:#373B44"/>
		<stop  offset="1" style="stop-color:#4286F4"/>
	</linearGradient>
	<path class="st43" d="M1066.1,26.1h-5.9c0-1.2,0-8.9-0.6-9.5s-1.2-0.6-1.8-0.6c-0.6,0-1.2,0-1.8,0.6c-1.2,0.6-0.6,8.3-0.6,9.5h-5.9
		v12.4h1.8c0,1.2,1.2,2.4,2.4,2.4h8.3c1.2,0,2.4-1.2,2.4-2.4h1.8V26.1z"/>
	<linearGradient id="SVGID_27_" gradientUnits="userSpaceOnUse" x1="1026.1019" y1="41.4235" x2="1043.8599" y2="10.6657">
		<stop  offset="0.1345" style="stop-color:#373B44"/>
		<stop  offset="1" style="stop-color:#4286F4"/>
	</linearGradient>
	<path class="st44" d="M1015.9,35.5c0,0,7.1-0.6,8.9-1.2c2.4-0.6,4.7-1.8,4.7-1.8l16.6-1.8l2.4,1.2v-7.1h6.5
		c-0.6-0.6-3.5-3.5-5.3-3.5c-1.2,0-2.4,0-3.5,0v-3.5c3.5,0,6.5,0,8.3,0c0.6,0,0.6-0.6,0-0.6c-2.4,0-8.9-1.2-9.5-1.8
		c-0.6-0.6-2.4-0.6-3-0.6v-4.7c0-0.6-0.6-1.2-1.8-1.2c-0.6,0-1.2,0.6-1.2,1.2v4.7h-13.6c-4.7,0-5.3,1.8,1.2,3c3,0,5.3,0,8.3,0v3
		l-1.2,1.8l-9.5,4.7c-1.8,0.6-6.5-0.6-8.3-1.2V35.5z"/>
	<linearGradient id="SVGID_28_" gradientUnits="userSpaceOnUse" x1="1052.3228" y1="15.7792" x2="1057.6899" y2="6.4829">
		<stop  offset="0.1345" style="stop-color:#373B44"/>
		<stop  offset="1" style="stop-color:#4286F4"/>
	</linearGradient>
	<path class="st45" d="M1063.8,10.7c-10.6,0-18.3-0.6-20.7-0.6c-0.6,0-0.6,0-0.6,0c2.4,0.6,6.5,1.8,7.7,1.8c0.6,0.6,1.8,0.6,1.8,0.6
		l12.4,0.6C1068.5,13.1,1068.5,11.9,1063.8,10.7z"/>
	<linearGradient id="SVGID_29_" gradientUnits="userSpaceOnUse" x1="1022.5548" y1="15.0966" x2="1028.3285" y2="5.0964">
		<stop  offset="0.1345" style="stop-color:#373B44"/>
		<stop  offset="1" style="stop-color:#4286F4"/>
	</linearGradient>
	<path class="st46" d="M1016.5,10.7c10.6,0,18.3,0,21.3,0c0.6,0,0,0,0,0c-2.4-0.6-6.5-1.2-7.7-1.8c-0.6-0.6-1.8-0.6-1.8-0.6h-12.4
		C1012.3,8.3,1011.7,10.1,1016.5,10.7z"/>
</g>
<g>
	<g>
		<linearGradient id="SVGID_30_" gradientUnits="userSpaceOnUse" x1="1127.1565" y1="360.2983" x2="1150.1252" y2="320.5153">
			<stop  offset="0.1345" style="stop-color:#373B44"/>
			<stop  offset="1" style="stop-color:#4286F4"/>
		</linearGradient>
		<path class="st47" d="M1150.8,321.5h-12l-8.7-5.5v46l8.7-5.5h12c1.2,0,2.3-0.9,2.3-2.3v-30.6c0-1.4-1.2-2.3-2.3-2.3V321.5z"/>
	</g>
	<g>
		<linearGradient id="SVGID_31_" gradientUnits="userSpaceOnUse" x1="1108.3196" y1="358.9909" x2="1131.7411" y2="318.4237">
			<stop  offset="0.1345" style="stop-color:#373B44"/>
			<stop  offset="1" style="stop-color:#4286F4"/>
		</linearGradient>
		<path class="st48" d="M1113.5,317.1v43.5c0,1.4,0.9,2.3,2.3,2.3h9.7v-48.1h-9.7C1114.4,314.8,1113.5,315.9,1113.5,317.1z"/>
	</g>
	<g>
		<linearGradient id="SVGID_32_" gradientUnits="userSpaceOnUse" x1="1194.8508" y1="370.254" x2="1214.3824" y2="336.4242">
			<stop  offset="0.1345" style="stop-color:#373B44"/>
			<stop  offset="1" style="stop-color:#4286F4"/>
		</linearGradient>
		<rect x="1185.3" y="341.9" class="st49" width="38.7" height="22.8"/>
	</g>
	<g>
		<linearGradient id="SVGID_33_" gradientUnits="userSpaceOnUse" x1="1233.1459" y1="360.3415" x2="1257.3634" y2="318.3954">
			<stop  offset="0.1345" style="stop-color:#373B44"/>
			<stop  offset="1" style="stop-color:#4286F4"/>
		</linearGradient>
		<path class="st50" d="M1246.5,313.2h-5.8v51.6h5.8c3,0,5.3-1.8,6.2-4.6c4.1-12.4,4.1-26.7,0-42.1
			C1252,315,1249.5,313.2,1246.5,313.2z"/>
	</g>
	<g>
		<linearGradient id="SVGID_34_" gradientUnits="userSpaceOnUse" x1="1161.108" y1="357.7108" x2="1215.8206" y2="262.946">
			<stop  offset="0.1345" style="stop-color:#373B44"/>
			<stop  offset="1" style="stop-color:#4286F4"/>
		</linearGradient>
		<path class="st51" d="M1128.9,300.1h20.7c3.5,0,6.2-2.8,6.2-6.2h6.2v28.8h-4.4c0,0.2,0,0.7,0,0.9v30.8c0,0.5,0,0.7,0,0.9h10.4v2.3
			c0,3.9,3.2,7.1,7.1,7.1h5.5v-25.1c0-1.2,1.2-2.3,2.3-2.3h43.3c1.4,0,2.3,1.2,2.3,2.3v25.1h7.8v-51.8h-7.8l13.3-13.3l1.2,1.2
			c0.5,0.5,0.9,0.7,1.6,0.7c0.5,0,1.2-0.2,1.6-0.7l7.6-7.6c0.9-0.9,0.9-2.3,0-3.2l-12.2-12c-0.9-0.9-2.3-0.9-3.2,0l-7.6,7.6
			c-0.9,0.9-0.9,2.3,0,3.2l1.2,0.9l-17,17l-13.8-17c-0.2-0.2-0.9-0.5-1.4-0.5h-44v-0.7c0-3.5-2.8-6.2-6.2-6.2h-20.7
			c-3.5,0-6.2,2.8-6.2,6.2v5.3C1122.7,297.3,1125.4,300.1,1128.9,300.1z M1167.8,322.6h-1.4v-28.8h32.4l12.9,16.1l-3.2,3.2h-33.6
			c-3.9,0-7.1,3.2-7.1,7.1v2.5V322.6z"/>
	</g>
	<g>
		<linearGradient id="SVGID_35_" gradientUnits="userSpaceOnUse" x1="1195.3619" y1="427.6866" x2="1229.6172" y2="368.3548">
			<stop  offset="0.1345" style="stop-color:#373B44"/>
			<stop  offset="1" style="stop-color:#4286F4"/>
		</linearGradient>
		<path class="st52" d="M1189,420.9c-0.7,0.9-0.7,2.3,0.2,3.2c0.9,0.7,2.3,0.7,3.2-0.2l17-18.4v16.8c0,1.4,1.2,2.3,2.3,2.3
			c1.4,0,2.3-0.9,2.3-2.3v-17l17,18.4c0.9,1.2,2.3,1.2,3.2,0.2s1.2-2.3,0.2-3.2l-20.5-21.9v-7.6c6-1.2,10.4-6.2,10.4-12.4
			c0-0.7,0-1.4-0.2-2.1h4.8c1.4,0,2.3-0.9,2.3-2.3v-5.1h-39.1v5.1c0,1.4,0.9,2.3,2.3,2.3h4.8c-0.2,0.7-0.2,1.4-0.2,2.1
			c0,3,1.2,5.8,3,8.1c1.8,2.3,4.4,3.9,7.4,4.4v7.6L1189,420.9z M1203.7,378.8c0-0.7,0-1.4,0.2-2.1h15.6c0.2,0.7,0.2,1.4,0.2,2.1
			c0,4.4-3.7,8.1-8.1,8.1S1203.7,383.1,1203.7,378.8z"/>
	</g>
</g>
<linearGradient id="SVGID_36_" gradientUnits="userSpaceOnUse" x1="129.0166" y1="150.0013" x2="149.0777" y2="115.2543">
	<stop  offset="0.1345" style="stop-color:#373B44"/>
	<stop  offset="1" style="stop-color:#4286F4"/>
</linearGradient>
<circle style="opacity:6.000000e-02;fill:url(#SVGID_36_);" cx="139" cy="132.6" r="20.1"/>
<linearGradient id="SVGID_37_" gradientUnits="userSpaceOnUse" x1="11.504" y1="325.7424" x2="24.4853" y2="303.258">
	<stop  offset="0.1345" style="stop-color:#373B44"/>
	<stop  offset="1" style="stop-color:#4286F4"/>
</linearGradient>
<circle style="opacity:6.000000e-02;fill:url(#SVGID_37_);" cx="18" cy="314.5" r="13"/>
<linearGradient id="SVGID_38_" gradientUnits="userSpaceOnUse" x1="867.679" y1="82.9997" x2="887.7402" y2="48.2528">
	<stop  offset="0.1345" style="stop-color:#373B44"/>
	<stop  offset="1" style="stop-color:#4286F4"/>
</linearGradient>
<circle class="st55" cx="877.7" cy="65.6" r="20.1"/>
<linearGradient id="SVGID_39_" gradientUnits="userSpaceOnUse" x1="1095.9609" y1="216.3849" x2="1116.0221" y2="181.6379">
	<stop  offset="0.1345" style="stop-color:#373B44"/>
	<stop  offset="1" style="stop-color:#4286F4"/>
</linearGradient>
<circle class="st56" cx="1106" cy="199" r="20.1"/>
</svg>
