<?xml version="1.0" encoding="utf-8"?>
<!-- Generator: Adobe Illustrator 22.0.0, SVG Export Plug-In . SVG Version: 6.00 Build 0)  -->
<svg version="1.1" id="Layer_1" xmlns="http://www.w3.org/2000/svg" xmlns:xlink="http://www.w3.org/1999/xlink" x="0px" y="0px"
	 viewBox="0 0 600 350" style="enable-background:new 0 0 600 350;" xml:space="preserve">
<style type="text/css">
	.st0{fill:url(#SVGID_1_);}
</style>
<g transform="translate(0,-952.36218)">
	
		<radialGradient id="SVGID_1_" cx="300.5" cy="176.6122" r="143.6311" gradientTransform="matrix(1 0 0 -1 0 1304.3622)" gradientUnits="userSpaceOnUse">
		<stop  offset="3.155048e-02" style="stop-color:#4286F4"/>
		<stop  offset="8.313803e-02" style="stop-color:#4181E8"/>
		<stop  offset="0.4094" style="stop-color:#3D63A2"/>
		<stop  offset="0.6817" style="stop-color:#3A4D6F"/>
		<stop  offset="0.8864" style="stop-color:#384050"/>
		<stop  offset="1" style="stop-color:#373B44"/>
	</radialGradient>
	<path class="st0" d="M241,1005.9c-3.1,0.3-5.8,2.2-7.2,4.9l-20.2,40.2h-48.5c-14.9,0-27.1,12.2-27.1,27.1v144.4
		c0,14.9,12.2,27.1,27.1,27.1h270.8c14.9,0,27.1-12.2,27.1-27.1v-144.4c0-14.9-12.2-27.1-27.1-27.1h-48.5l-20.1-40.2
		c-1.5-3-4.6-4.9-8-4.9H241.8C241.6,1005.9,241.3,1005.9,241,1005.9z M247.5,1023.9h106.1l20.1,40.2c1.5,3,4.6,4.9,8,4.9h54.2
		c5.1,0,9,3.9,9,9v144.4c0,5.1-3.9,9-9,9H165.1c-5.1,0-9-3.9-9-9v-144.4c0-5.1,3.9-9,9-9h54.2c3.4,0,6.5-1.9,8-4.9L247.5,1023.9z
		 M249.9,1082.4c-5,0.5-8.6,4.9-8.1,9.9c0.2,2.2,1.2,4.2,2.7,5.6l43.3,43.3l-43.3,43.2c-3.6,3.5-3.8,9.2-0.3,12.8s9.2,3.8,12.8,0.3
		c0.1-0.1,0.1-0.1,0.2-0.2l43.3-43.3l43.3,43.3c3.5,3.6,9.2,3.7,12.8,0.1c3.6-3.5,3.7-9.2,0.1-12.8c-0.1-0.1-0.1-0.1-0.2-0.2
		l-43.3-43.2l43.3-43.3c3.6-3.4,3.8-9.1,0.4-12.8c-2-2.2-5-3.2-7.9-2.7c-2,0.3-3.8,1.2-5.2,2.7l-43.3,43.3l-43.3-43.3
		C255.3,1083.2,252.6,1082.2,249.9,1082.4z"/>
</g>
</svg>
