<?xml version="1.0" encoding="utf-8"?>
<!-- Generator: Adobe Illustrator 22.0.0, SVG Export Plug-In . SVG Version: 6.00 Build 0)  -->
<svg version="1.1" id="Layer_1" xmlns="http://www.w3.org/2000/svg" xmlns:xlink="http://www.w3.org/1999/xlink" x="0px" y="0px"
	 viewBox="0 0 423 229.3" style="enable-background:new 0 0 423 229.3;" xml:space="preserve">
<style type="text/css">
	.st0{display:none;}
	.st1{fill:#35404C;}
	.st2{display:inline;fill:#343F3E;}
	.st3{display:inline;fill:#333D3C;}
	.st4{fill:#343F3E;}
	.st5{fill:#3B4342;}
	.st6{fill:#323B3A;}
	.st7{fill:#303A39;}
	.st8{fill:#384040;}
	.st9{fill:#3D4745;}
	.st10{display:inline;fill:#384040;}
	.st11{fill:#3A4241;}
	.st12{display:inline;fill:#3B4342;}
	.st13{display:inline;fill:#3A4444;}
	.st14{display:inline;fill:#3D4745;}
	.st15{fill:#293130;}
	.st16{display:inline;fill:#3F4746;}
	.st17{display:inline;fill:#2B3635;}
	.st18{display:none;fill:url(#SVGID_1_);}
	.st19{display:none;fill:url(#SVGID_2_);}
	.st20{display:none;fill:url(#SVGID_3_);}
	.st21{display:none;fill:url(#SVGID_4_);}
	.st22{fill:#373B44;}
	.st23{fill:url(#SVGID_5_);}
	.st24{fill:url(#SVGID_6_);}
	.st25{fill:url(#SVGID_7_);}
	.st26{fill:url(#SVGID_8_);}
	.st27{fill:url(#SVGID_9_);}
	.st28{fill:url(#SVGID_10_);}
	.st29{fill:url(#SVGID_11_);}
	.st30{fill:url(#SVGID_12_);}
	.st31{fill:url(#SVGID_13_);}
	.st32{fill:url(#SVGID_14_);}
	.st33{fill:url(#SVGID_15_);}
	.st34{fill:url(#SVGID_16_);}
	.st35{fill:url(#SVGID_17_);}
	.st36{fill:url(#SVGID_18_);}
	.st37{fill:url(#SVGID_19_);}
	.st38{fill:url(#SVGID_20_);}
	.st39{fill:url(#SVGID_21_);}
	.st40{fill:url(#SVGID_22_);}
	.st41{fill:url(#SVGID_23_);}
	.st42{fill:url(#SVGID_24_);}
	.st43{fill:url(#SVGID_25_);}
	.st44{fill:url(#SVGID_26_);}
	.st45{fill:url(#SVGID_27_);}
	.st46{fill:url(#SVGID_28_);}
	.st47{fill:url(#SVGID_29_);}
	.st48{fill:url(#SVGID_30_);}
	.st49{fill:url(#SVGID_31_);}
	.st50{fill:url(#SVGID_32_);}
	.st51{fill:url(#SVGID_33_);}
	.st52{fill:url(#SVGID_34_);}
	.st53{fill:url(#SVGID_35_);}
	.st54{fill:url(#SVGID_36_);}
	.st55{fill:url(#SVGID_37_);}
	.st56{fill:#4286F4;}
</style>
<g>
	<g class="st0">
		<path class="st2" d="M65.3,4.8c0,2.3,0,4.2,0,6.3c-9.2,0-18.3,0-27.7,0c0-2,0-4.1,0-6.3C46.9,4.8,55.8,4.8,65.3,4.8z"/>
		<path class="st3" d="M393.8,159.7c0,11,0,19.9,0,29.2c-2.2,0-4.2,0-6.7,0c0-8.7-0.2-17.1,0.3-25.4
			C387.4,162.3,390.9,161.4,393.8,159.7z"/>
		<path class="st3" d="M22.8,4.8c2.3,0,4,0,6,0c0,2.2,0,4.2,0,6.3c-2,0-3.9,0-6,0C22.8,9.1,22.8,7.1,22.8,4.8z"/>
		<path class="st10" d="M392.3,51.1c1.7,1.9,3,3.4,5,5.5c-1.8,1.3-3.4,2.4-5.5,3.9c-0.9-0.9-2.3-2.2-4.2-4
			C389,54.9,390.3,53.4,392.3,51.1z"/>
		<path class="st2" d="M18.2,95.8c2.3,0,4.2,0,6.3,0c0,2.1,0,4,0,6.3c-1.8,0.1-3.6,0.2-6,0.4C18.4,100.2,18.3,98.1,18.2,95.8z"/>
		<path class="st12" d="M387.4,212.8c2.2,0,4,0,6.2,0c0,2.1,0,4.1,0,6.5c-2,0-3.9,0-6.2,0C387.4,217.4,387.4,215.3,387.4,212.8z"/>
		<path class="st13" d="M7.1,11c0-2.2,0-4.1,0-6.2c2.2,0,4.1,0,6.3,0c0,2.1,0,4,0,6.2C11.6,11,9.5,11,7.1,11z"/>
		<path class="st14" d="M414.4,51.3c1.6,1.7,2.9,3.1,4.5,4.8c-1.5,1.6-2.8,3.1-4.5,4.8c-1.6-1.6-3-2.9-4.8-4.6
			C411.3,54.5,412.8,53,414.4,51.3z"/>
		<path class="st13" d="M409.2,34.2c2.2-1.9,3.5-3.1,4.8-4.3c5.8,4.1,5.8,4.1-0.1,9C412.6,37.4,411.1,36,409.2,34.2z"/>
		<path class="st16" d="M397.1,34c-1.8,1.9-3.1,3.3-4.9,5.2c-1.7-2-3.1-3.5-4.8-5.5c1.5-1.3,3-2.5,5-4.1
			C393.7,30.8,395.2,32.2,397.1,34z"/>
		<path class="st17" d="M24.3,77.7c0.1,2.2,0.2,4,0.4,6c-2.1,0-4,0-6.2,0c0-2,0-3.9,0-6C20.4,77.7,22.1,77.7,24.3,77.7z"/>
	</g>
</g>
<linearGradient id="SVGID_1_" gradientUnits="userSpaceOnUse" x1="364.6895" y1="164.822" x2="390.3832" y2="120.3191">
	<stop  offset="0.1345" style="stop-color:#373B44"/>
	<stop  offset="1" style="stop-color:#4286F4"/>
</linearGradient>
<circle class="st18" cx="377.5" cy="142.6" r="25.7"/>
<path class="st22" d="M103.8,23.6c-3.4,0-6.2,2.8-6.2,6.2v184.4c0,3.4,2.8,6.2,6.2,6.2h201.1c3.4,0,6.2-2.8,6.2-6.2V29.8
	c0-3.4-2.8-6.2-6.2-6.2H103.8z M105,31.1h198.7v181.8H105V31.1z"/>
<linearGradient id="SVGID_2_" gradientUnits="userSpaceOnUse" x1="135.9523" y1="52.8175" x2="151.1182" y2="37.6515">
	<stop  offset="0.3019" style="stop-color:#373B44"/>
	<stop  offset="0.7993" style="stop-color:#4286F4"/>
</linearGradient>
<path style="fill:url(#SVGID_2_);" d="M143.5,34.4c-5.8,0-10.6,4.8-10.6,10.8s4.9,10.8,10.6,10.8s10.6-4.8,10.6-10.8
	S149.3,34.4,143.5,34.4z M143.5,40.1c3.1,0,5.4,2.4,5.4,5.2c0,2.8-2.3,5.2-5.4,5.2c-3.1,0-5.4-2.4-5.4-5.2S140.4,40.1,143.5,40.1z"
	/>
<linearGradient id="SVGID_3_" gradientUnits="userSpaceOnUse" x1="164.7355" y1="91.6703" x2="182.2626" y2="74.1432">
	<stop  offset="0.3019" style="stop-color:#373B44"/>
	<stop  offset="0.7993" style="stop-color:#4286F4"/>
</linearGradient>
<path style="fill:url(#SVGID_3_);" d="M167.2,73.1c-1.9,0-3.4,1.6-3.4,3.5v12.6c0,1.9,1.5,3.4,3.4,3.4h12.6c1.9,0,3.5-1.5,3.5-3.4
	V76.6c0-1.9-1.6-3.5-3.5-3.5H167.2z M167.2,76.7h12.5v12.5h-12.5V76.7z"/>
<linearGradient id="SVGID_4_" gradientUnits="userSpaceOnUse" x1="191.275" y1="91.6594" x2="208.781" y2="74.1534">
	<stop  offset="0.3019" style="stop-color:#373B44"/>
	<stop  offset="0.7993" style="stop-color:#4286F4"/>
</linearGradient>
<path style="fill:url(#SVGID_4_);" d="M193.7,73.1c-1.9,0-3.4,1.6-3.4,3.5v12.6c0,1.9,1.5,3.4,3.4,3.4h12.6c1.9,0,3.4-1.5,3.4-3.4
	V76.6c0-1.9-1.5-3.5-3.4-3.5H193.7z M193.8,76.7h12.5v12.5h-12.5V76.7z"/>
<linearGradient id="SVGID_5_" gradientUnits="userSpaceOnUse" x1="217.793" y1="91.6707" x2="235.3209" y2="74.1428">
	<stop  offset="0.3019" style="stop-color:#373B44"/>
	<stop  offset="0.7993" style="stop-color:#4286F4"/>
</linearGradient>
<path class="st23" d="M220.3,73.1c-1.9,0-3.5,1.6-3.5,3.5v12.6c0,1.9,1.6,3.4,3.5,3.4h12.6c1.9,0,3.4-1.5,3.4-3.4V76.6
	c0-1.9-1.5-3.5-3.4-3.5H220.3z M220.3,76.7h12.5v12.5h-12.5V76.7z"/>
<linearGradient id="SVGID_6_" gradientUnits="userSpaceOnUse" x1="244.3009" y1="91.6703" x2="261.828" y2="74.1432">
	<stop  offset="0.3019" style="stop-color:#373B44"/>
	<stop  offset="0.7993" style="stop-color:#4286F4"/>
</linearGradient>
<path class="st24" d="M246.7,73.1c-1.9,0-3.4,1.6-3.4,3.5v12.6c0,1.9,1.5,3.4,3.4,3.4h12.6c1.9,0,3.5-1.5,3.5-3.4V76.6
	c0-1.9-1.6-3.5-3.5-3.5H246.7z M246.8,76.7h12.5v12.5h-12.5V76.7z"/>
<linearGradient id="SVGID_7_" gradientUnits="userSpaceOnUse" x1="270.8404" y1="91.6594" x2="288.3465" y2="74.1534">
	<stop  offset="0.3019" style="stop-color:#373B44"/>
	<stop  offset="0.7993" style="stop-color:#4286F4"/>
</linearGradient>
<path class="st25" d="M273.3,73.1c-1.9,0-3.4,1.6-3.4,3.5v12.6c0,1.9,1.5,3.4,3.4,3.4h12.6c1.9,0,3.4-1.5,3.4-3.4V76.6
	c0-1.9-1.5-3.5-3.4-3.5H273.3z M273.4,76.7h12.5v12.5h-12.5V76.7z"/>
<linearGradient id="SVGID_8_" gradientUnits="userSpaceOnUse" x1="111.7204" y1="119.8532" x2="129.2049" y2="102.3687">
	<stop  offset="0.3019" style="stop-color:#373B44"/>
	<stop  offset="0.7993" style="stop-color:#4286F4"/>
</linearGradient>
<path class="st26" d="M114.1,101.4c-1.9,0-3.4,1.5-3.4,3.4v12.6c0,1.9,1.5,3.4,3.4,3.4h12.6c1.9,0,3.4-1.5,3.4-3.4v-12.6
	c0-1.9-1.5-3.4-3.4-3.4H114.1z M114.2,104.9h12.5v12.5h-12.5V104.9z"/>
<linearGradient id="SVGID_9_" gradientUnits="userSpaceOnUse" x1="138.2381" y1="119.8641" x2="155.7445" y2="102.3578">
	<stop  offset="0.3019" style="stop-color:#373B44"/>
	<stop  offset="0.7993" style="stop-color:#4286F4"/>
</linearGradient>
<path class="st27" d="M140.7,101.4c-1.9,0-3.5,1.5-3.5,3.4v12.6c0,1.9,1.6,3.4,3.5,3.4h12.6c1.9,0,3.4-1.5,3.4-3.4v-12.6
	c0-1.9-1.5-3.4-3.4-3.4H140.7z M140.8,104.9h12.5v12.5h-12.5V104.9z"/>
<linearGradient id="SVGID_10_" gradientUnits="userSpaceOnUse" x1="164.7463" y1="119.8641" x2="182.2526" y2="102.3578">
	<stop  offset="0.3019" style="stop-color:#373B44"/>
	<stop  offset="0.7993" style="stop-color:#4286F4"/>
</linearGradient>
<path class="st28" d="M167.2,101.4c-1.9,0-3.4,1.5-3.4,3.4v12.6c0,1.9,1.5,3.4,3.4,3.4h12.6c1.9,0,3.5-1.5,3.5-3.4v-12.6
	c0-1.9-1.6-3.4-3.5-3.4H167.2z M167.2,104.9h12.5v12.5h-12.5V104.9z"/>
<linearGradient id="SVGID_11_" gradientUnits="userSpaceOnUse" x1="191.2858" y1="119.8532" x2="208.7702" y2="102.3687">
	<stop  offset="0.3019" style="stop-color:#373B44"/>
	<stop  offset="0.7993" style="stop-color:#4286F4"/>
</linearGradient>
<path class="st29" d="M193.7,101.4c-1.9,0-3.4,1.5-3.4,3.4v12.6c0,1.9,1.5,3.4,3.4,3.4h12.6c1.9,0,3.4-1.5,3.4-3.4v-12.6
	c0-1.9-1.5-3.4-3.4-3.4H193.7z M193.8,104.9h12.5v12.5h-12.5V104.9z"/>
<linearGradient id="SVGID_12_" gradientUnits="userSpaceOnUse" x1="217.8034" y1="119.8641" x2="235.3097" y2="102.3578">
	<stop  offset="0.3019" style="stop-color:#373B44"/>
	<stop  offset="0.7993" style="stop-color:#4286F4"/>
</linearGradient>
<path class="st30" d="M220.3,101.4c-1.9,0-3.5,1.5-3.5,3.4v12.6c0,1.9,1.6,3.4,3.5,3.4h12.6c1.9,0,3.4-1.5,3.4-3.4v-12.6
	c0-1.9-1.5-3.4-3.4-3.4H220.3z M220.3,104.9h12.5v12.5h-12.5V104.9z"/>
<linearGradient id="SVGID_13_" gradientUnits="userSpaceOnUse" x1="244.3116" y1="119.8641" x2="261.8179" y2="102.3578">
	<stop  offset="0.3019" style="stop-color:#373B44"/>
	<stop  offset="0.7993" style="stop-color:#4286F4"/>
</linearGradient>
<path class="st31" d="M246.7,101.4c-1.9,0-3.4,1.5-3.4,3.4v12.6c0,1.9,1.5,3.4,3.4,3.4h12.6c1.9,0,3.5-1.5,3.5-3.4v-12.6
	c0-1.9-1.6-3.4-3.5-3.4H246.7z M246.8,104.9h12.5v12.5h-12.5V104.9z"/>
<linearGradient id="SVGID_14_" gradientUnits="userSpaceOnUse" x1="270.8513" y1="120.283" x2="288.3356" y2="102.7987">
	<stop  offset="0.3019" style="stop-color:#373B44"/>
	<stop  offset="0.7993" style="stop-color:#4286F4"/>
</linearGradient>
<path class="st32" d="M273.3,101.8c-1.9,0-3.4,1.5-3.4,3.4v12.6c0,1.9,1.5,3.4,3.4,3.4h12.6c1.9,0,3.4-1.5,3.4-3.4v-12.6
	c0-1.9-1.5-3.4-3.4-3.4H273.3z M273.4,105.3h12.5v12.5h-12.5V105.3z"/>
<linearGradient id="SVGID_15_" gradientUnits="userSpaceOnUse" x1="111.7204" y1="148.0367" x2="129.2049" y2="130.5523">
	<stop  offset="0.3019" style="stop-color:#373B44"/>
	<stop  offset="0.7993" style="stop-color:#4286F4"/>
</linearGradient>
<path class="st33" d="M114.1,129.5c-1.9,0-3.4,1.5-3.4,3.4v12.6c0,1.9,1.5,3.4,3.4,3.4h12.6c1.9,0,3.4-1.5,3.4-3.4V133
	c0-1.9-1.5-3.4-3.4-3.4H114.1z M114.2,133.1h12.5v12.5h-12.5V133.1z"/>
<linearGradient id="SVGID_16_" gradientUnits="userSpaceOnUse" x1="138.2381" y1="148.0477" x2="155.7445" y2="130.5413">
	<stop  offset="0.3019" style="stop-color:#373B44"/>
	<stop  offset="0.7993" style="stop-color:#4286F4"/>
</linearGradient>
<path class="st34" d="M140.7,129.5c-1.9,0-3.5,1.5-3.5,3.4v12.6c0,1.9,1.6,3.4,3.5,3.4h12.6c1.9,0,3.4-1.5,3.4-3.4V133
	c0-1.9-1.5-3.4-3.4-3.4H140.7z M140.8,133.1h12.5v12.5h-12.5V133.1z"/>
<linearGradient id="SVGID_17_" gradientUnits="userSpaceOnUse" x1="164.7463" y1="148.0476" x2="182.2526" y2="130.5414">
	<stop  offset="0.3019" style="stop-color:#373B44"/>
	<stop  offset="0.7993" style="stop-color:#4286F4"/>
</linearGradient>
<path class="st35" d="M167.2,129.5c-1.9,0-3.4,1.5-3.4,3.4v12.6c0,1.9,1.5,3.4,3.4,3.4h12.6c1.9,0,3.5-1.5,3.5-3.4V133
	c0-1.9-1.6-3.4-3.5-3.4H167.2z M167.2,133.1h12.5v12.5h-12.5V133.1z"/>
<linearGradient id="SVGID_18_" gradientUnits="userSpaceOnUse" x1="191.2858" y1="148.0367" x2="208.7702" y2="130.5523">
	<stop  offset="0.3019" style="stop-color:#373B44"/>
	<stop  offset="0.7993" style="stop-color:#4286F4"/>
</linearGradient>
<path class="st36" d="M193.7,129.5c-1.9,0-3.4,1.5-3.4,3.4v12.6c0,1.9,1.5,3.4,3.4,3.4h12.6c1.9,0,3.4-1.5,3.4-3.4V133
	c0-1.9-1.5-3.4-3.4-3.4H193.7z M193.8,133.1h12.5v12.5h-12.5V133.1z"/>
<linearGradient id="SVGID_19_" gradientUnits="userSpaceOnUse" x1="217.8034" y1="148.0476" x2="235.3097" y2="130.5413">
	<stop  offset="0.3019" style="stop-color:#373B44"/>
	<stop  offset="0.7993" style="stop-color:#4286F4"/>
</linearGradient>
<path class="st37" d="M220.3,129.5c-1.9,0-3.5,1.5-3.5,3.4v12.6c0,1.9,1.6,3.4,3.5,3.4h12.6c1.9,0,3.4-1.5,3.4-3.4V133
	c0-1.9-1.5-3.4-3.4-3.4H220.3z M220.3,133.1h12.5v12.5h-12.5V133.1z"/>
<linearGradient id="SVGID_20_" gradientUnits="userSpaceOnUse" x1="244.3116" y1="148.0476" x2="261.8179" y2="130.5413">
	<stop  offset="0.3019" style="stop-color:#373B44"/>
	<stop  offset="0.7993" style="stop-color:#4286F4"/>
</linearGradient>
<path class="st38" d="M246.7,129.5c-1.9,0-3.4,1.5-3.4,3.4v12.6c0,1.9,1.5,3.4,3.4,3.4h12.6c1.9,0,3.5-1.5,3.5-3.4V133
	c0-1.9-1.6-3.4-3.5-3.4H246.7z M246.8,133.1h12.5v12.5h-12.5V133.1z"/>
<linearGradient id="SVGID_21_" gradientUnits="userSpaceOnUse" x1="270.8512" y1="148.0367" x2="288.3357" y2="130.5523">
	<stop  offset="0.3019" style="stop-color:#373B44"/>
	<stop  offset="0.7993" style="stop-color:#4286F4"/>
</linearGradient>
<path class="st39" d="M273.3,129.5c-1.9,0-3.4,1.5-3.4,3.4v12.6c0,1.9,1.5,3.4,3.4,3.4h12.6c1.9,0,3.4-1.5,3.4-3.4V133
	c0-1.9-1.5-3.4-3.4-3.4H273.3z M273.4,133.1h12.5v12.5h-12.5V133.1z"/>
<linearGradient id="SVGID_22_" gradientUnits="userSpaceOnUse" x1="111.7095" y1="176.2519" x2="129.2158" y2="158.7456">
	<stop  offset="0.3019" style="stop-color:#373B44"/>
	<stop  offset="0.7993" style="stop-color:#4286F4"/>
</linearGradient>
<path class="st40" d="M114.1,157.7c-1.9,0-3.4,1.5-3.4,3.4v12.6c0,1.9,1.5,3.5,3.4,3.5h12.6c1.9,0,3.4-1.6,3.4-3.5v-12.6
	c0-1.9-1.5-3.4-3.4-3.4H114.1z M114.2,161.2h12.5v12.5h-12.5V161.2z"/>
<linearGradient id="SVGID_23_" gradientUnits="userSpaceOnUse" x1="138.2279" y1="176.2621" x2="155.7554" y2="158.7347">
	<stop  offset="0.3019" style="stop-color:#373B44"/>
	<stop  offset="0.7993" style="stop-color:#4286F4"/>
</linearGradient>
<path class="st41" d="M140.7,157.7c-1.9,0-3.5,1.5-3.5,3.4v12.6c0,1.9,1.6,3.5,3.5,3.5h12.6c1.9,0,3.4-1.6,3.4-3.5v-12.6
	c0-1.9-1.5-3.4-3.4-3.4H140.7z M140.8,161.2h12.5v12.5h-12.5V161.2z"/>
<linearGradient id="SVGID_24_" gradientUnits="userSpaceOnUse" x1="164.735" y1="176.2625" x2="182.2631" y2="158.7343">
	<stop  offset="0.3019" style="stop-color:#373B44"/>
	<stop  offset="0.7993" style="stop-color:#4286F4"/>
</linearGradient>
<path class="st42" d="M167.2,157.7c-1.9,0-3.4,1.5-3.4,3.4v12.6c0,1.9,1.5,3.5,3.4,3.5h12.6c1.9,0,3.5-1.6,3.5-3.5v-12.6
	c0-1.9-1.6-3.4-3.5-3.4H167.2z M167.2,161.2h12.5v12.5h-12.5V161.2z"/>
<linearGradient id="SVGID_25_" gradientUnits="userSpaceOnUse" x1="191.2749" y1="176.2519" x2="208.7812" y2="158.7456">
	<stop  offset="0.3019" style="stop-color:#373B44"/>
	<stop  offset="0.7993" style="stop-color:#4286F4"/>
</linearGradient>
<path class="st43" d="M193.7,157.7c-1.9,0-3.4,1.5-3.4,3.4v12.6c0,1.9,1.5,3.5,3.4,3.5h12.6c1.9,0,3.4-1.6,3.4-3.5v-12.6
	c0-1.9-1.5-3.4-3.4-3.4H193.7z M193.8,161.2h12.5v12.5h-12.5V161.2z"/>
<linearGradient id="SVGID_26_" gradientUnits="userSpaceOnUse" x1="217.7932" y1="176.2621" x2="235.3207" y2="158.7347">
	<stop  offset="0.3019" style="stop-color:#373B44"/>
	<stop  offset="0.7993" style="stop-color:#4286F4"/>
</linearGradient>
<path class="st44" d="M220.3,157.7c-1.9,0-3.5,1.5-3.5,3.4v12.6c0,1.9,1.6,3.5,3.5,3.5h12.6c1.9,0,3.4-1.6,3.4-3.5v-12.6
	c0-1.9-1.5-3.4-3.4-3.4H220.3z M220.3,161.2h12.5v12.5h-12.5V161.2z"/>
<linearGradient id="SVGID_27_" gradientUnits="userSpaceOnUse" x1="244.3003" y1="176.2625" x2="261.8285" y2="158.7343">
	<stop  offset="0.3019" style="stop-color:#373B44"/>
	<stop  offset="0.7993" style="stop-color:#4286F4"/>
</linearGradient>
<path class="st45" d="M246.7,157.7c-1.9,0-3.4,1.5-3.4,3.4v12.6c0,1.9,1.5,3.5,3.4,3.5h12.6c1.9,0,3.5-1.6,3.5-3.5v-12.6
	c0-1.9-1.6-3.4-3.5-3.4H246.7z M246.8,161.2h12.5v12.5h-12.5V161.2z"/>
<linearGradient id="SVGID_28_" gradientUnits="userSpaceOnUse" x1="270.8403" y1="176.2519" x2="288.3466" y2="158.7456">
	<stop  offset="0.3019" style="stop-color:#373B44"/>
	<stop  offset="0.7993" style="stop-color:#4286F4"/>
</linearGradient>
<path class="st46" d="M273.3,157.7c-1.9,0-3.4,1.5-3.4,3.4v12.6c0,1.9,1.5,3.5,3.4,3.5h12.6c1.9,0,3.4-1.6,3.4-3.5v-12.6
	c0-1.9-1.5-3.4-3.4-3.4H273.3z M273.4,161.2h12.5v12.5h-12.5V161.2z"/>
<linearGradient id="SVGID_29_" gradientUnits="userSpaceOnUse" x1="111.7096" y1="204.4767" x2="129.2156" y2="186.9707">
	<stop  offset="0.3019" style="stop-color:#373B44"/>
	<stop  offset="0.7993" style="stop-color:#4286F4"/>
</linearGradient>
<path class="st47" d="M114.1,185.9c-1.9,0-3.4,1.6-3.4,3.5v12.6c0,1.9,1.5,3.4,3.4,3.4h12.6c1.9,0,3.4-1.5,3.4-3.4v-12.6
	c0-1.9-1.5-3.5-3.4-3.5H114.1z M114.2,189.5h12.5V202h-12.5V189.5z"/>
<linearGradient id="SVGID_30_" gradientUnits="userSpaceOnUse" x1="138.2277" y1="204.488" x2="155.7556" y2="186.9601">
	<stop  offset="0.3019" style="stop-color:#373B44"/>
	<stop  offset="0.7993" style="stop-color:#4286F4"/>
</linearGradient>
<path class="st48" d="M140.7,185.9c-1.9,0-3.5,1.6-3.5,3.5v12.6c0,1.9,1.6,3.4,3.5,3.4h12.6c1.9,0,3.4-1.5,3.4-3.4v-12.6
	c0-1.9-1.5-3.5-3.4-3.5H140.7z M140.8,189.5h12.5V202h-12.5V189.5z"/>
<linearGradient id="SVGID_31_" gradientUnits="userSpaceOnUse" x1="164.7355" y1="204.4876" x2="182.2626" y2="186.9605">
	<stop  offset="0.3019" style="stop-color:#373B44"/>
	<stop  offset="0.7993" style="stop-color:#4286F4"/>
</linearGradient>
<path class="st49" d="M167.2,185.9c-1.9,0-3.4,1.6-3.4,3.5v12.6c0,1.9,1.5,3.4,3.4,3.4h12.6c1.9,0,3.5-1.5,3.5-3.4v-12.6
	c0-1.9-1.6-3.5-3.5-3.5H167.2z M167.2,189.5h12.5V202h-12.5V189.5z"/>
<linearGradient id="SVGID_32_" gradientUnits="userSpaceOnUse" x1="191.275" y1="204.4767" x2="208.781" y2="186.9707">
	<stop  offset="0.3019" style="stop-color:#373B44"/>
	<stop  offset="0.7993" style="stop-color:#4286F4"/>
</linearGradient>
<path class="st50" d="M193.7,185.9c-1.9,0-3.4,1.6-3.4,3.5v12.6c0,1.9,1.5,3.4,3.4,3.4h12.6c1.9,0,3.4-1.5,3.4-3.4v-12.6
	c0-1.9-1.5-3.5-3.4-3.5H193.7z M193.8,189.5h12.5V202h-12.5V189.5z"/>
<linearGradient id="SVGID_33_" gradientUnits="userSpaceOnUse" x1="257.3398" y1="53.0982" x2="272.5058" y2="37.9323">
	<stop  offset="0.3019" style="stop-color:#373B44"/>
	<stop  offset="0.7993" style="stop-color:#4286F4"/>
</linearGradient>
<path class="st51" d="M264.9,34.7c-5.8,0-10.6,4.8-10.6,10.8s4.9,10.8,10.6,10.8c5.8,0,10.6-4.8,10.6-10.8S270.7,34.7,264.9,34.7z
	 M264.9,40.3c3.1,0,5.4,2.4,5.4,5.2s-2.3,5.2-5.4,5.2c-3.1,0-5.4-2.4-5.4-5.2S261.8,40.3,264.9,40.3z"/>
<linearGradient id="SVGID_34_" gradientUnits="userSpaceOnUse" x1="157.6247" y1="107.9747" x2="249.563" y2="16.0364">
	<stop  offset="0.3019" style="stop-color:#373B44"/>
	<stop  offset="0.7993" style="stop-color:#4286F4"/>
</linearGradient>
<path class="st52" d="M114.1,59.5v5H293v-5H114.1z"/>
<path class="st56" d="M142.4,4.8h2.2c1.4,0,2.5,1.1,2.5,2.5v38c0,1.4-1.1,2.5-2.5,2.5h-2.2c-1.4,0-2.5-1.1-2.5-2.5v-38
	C139.9,5.9,141,4.8,142.4,4.8z"/>
<path class="st56" d="M264,4.8h2.2c1.4,0,2.5,1.1,2.5,2.5v38c0,1.4-1.1,2.5-2.5,2.5H264c-1.4,0-2.5-1.1-2.5-2.5v-38
	C261.5,5.9,262.6,4.8,264,4.8z"/>
</svg>
