<?xml version="1.0" encoding="utf-8"?>
<!-- Generator: Adobe Illustrator 22.0.0, SVG Export Plug-In . SVG Version: 6.00 Build 0)  -->
<svg version="1.1" id="Layer_1" xmlns="http://www.w3.org/2000/svg" xmlns:xlink="http://www.w3.org/1999/xlink" x="0px" y="0px"
	 viewBox="0 0 350.8 253.2" style="enable-background:new 0 0 350.8 253.2;" xml:space="preserve">
<style type="text/css">
	.st0{display:none;}
	.st1{fill:#35404C;}
	.st2{fill:#343F3E;}
	.st3{fill:#333D3C;}
	.st4{fill:#3B4342;}
	.st5{fill:#323B3A;}
	.st6{fill:#303A39;}
	.st7{fill:#384040;}
	.st8{fill:#3D4745;}
	.st9{fill:#3A4241;}
	.st10{display:inline;fill:#343F3E;}
	.st11{display:inline;fill:#3B4342;}
	.st12{fill:#3A4444;}
	.st13{display:inline;fill:#3D4745;}
	.st14{display:inline;fill:#3A4444;}
	.st15{fill:#293130;}
	.st16{display:inline;fill:#3F4746;}
	.st17{display:inline;fill:#2B3635;}
	.st18{display:none;opacity:0.3;fill:url(#SVGID_1_);}
	.st19{display:none;opacity:0.3;fill:url(#SVGID_2_);}
	.st20{display:none;opacity:0.3;fill:url(#SVGID_3_);}
	.st21{display:none;opacity:0.3;fill:url(#SVGID_4_);}
	.st22{fill:url(#SVGID_5_);}
	.st23{fill:url(#SVGID_6_);}
	.st24{fill:url(#SVGID_7_);}
	.st25{fill:url(#SVGID_8_);}
	.st26{fill:url(#SVGID_9_);}
	.st27{fill:url(#SVGID_10_);}
	.st28{display:none;opacity:0.3;fill:url(#SVGID_11_);}
	.st29{display:none;opacity:0.3;fill:url(#SVGID_12_);}
</style>
<g class="st0">
	<g>
		<path class="st1" d="M346.1,33.7c-3.3,0-5.9,0.3-8.3-0.1c-1.7-0.3-3.1-1.7-4.7-2.7c1.6-1.1,3-2.8,4.8-3.2c2.4-0.6,4.9-0.1,8.1-0.1
			c0-3.2-0.3-6.1,0.1-9c0.2-1.6,1.8-3,2.7-4.4c1,1.4,2.6,2.7,2.9,4.2c0.6,2.7,0.4,5.6,0.5,9.1c2.9,0,5.9-0.4,8.7,0.1
			c1.6,0.3,3,1.9,4.5,3c-1.5,1-2.9,2.1-4.5,3c-0.7,0.3-1.6,0.1-2.5,0.1c-6.5,0-6.5,0-6.5,6.5c0,1,0.1,2.1-0.3,2.9
			c-0.7,1.3-1.8,2.4-2.8,3.6c-1-1.3-2.6-2.5-2.8-4C345.8,39.9,346.1,37.1,346.1,33.7z"/>
		<path class="st3" d="M0.9,191.1c0,11,0,19.9,0,29.2c-2.2,0-4.2,0-6.7,0c0-8.7-0.2-17.1,0.3-25.4C-5.5,193.8-2,192.8,0.9,191.1z"/>
		<path class="st5" d="M-5.6,235.1c0-2,0-3.8,0-5.9c2.1,0,4.1,0,6.4,0c0,1.8,0,3.7,0,5.9C-1.3,235.1-3.3,235.1-5.6,235.1z"/>
		<path class="st6" d="M19.3,65.6c2.2,0,3.9,0,5.8,0c0,2,0,3.8,0,6.1c-1.7,0.2-3.6,0.4-5.8,0.6C19.3,69.9,19.3,67.8,19.3,65.6z"/>
		<path class="st7" d="M336.2,37.8c1.7,1.9,3,3.4,5,5.5c-1.8,1.3-3.4,2.4-5.5,3.9c-0.9-0.9-2.3-2.2-4.2-4
			C332.9,41.6,334.2,40.1,336.2,37.8z"/>
		<path class="st4" d="M342.3,32c1.9-1.6,3.3-2.9,5.7-4.9c1,1.5,2.1,3.3,3.5,5.6c-1.2,0.8-2.7,2-4.8,3.5
			C345.7,35.2,344.2,33.8,342.3,32z"/>
		<path class="st10" d="M28.1,74.7c2.3,0,4.2,0,6.3,0c0,2.1,0,4,0,6.3c-1.8,0.1-3.6,0.2-6,0.4C28.3,79.1,28.2,77,28.1,74.7z"/>
		<path class="st11" d="M-5.5,244.2c2.2,0,4,0,6.2,0c0,2.1,0,4.1,0,6.5c-2,0-3.9,0-6.2,0C-5.5,248.8-5.5,246.7-5.5,244.2z"/>
		<path class="st16" d="M341.1,20.8c-1.8,1.9-3.1,3.3-4.9,5.2c-1.7-2-3.1-3.5-4.8-5.5c1.5-1.3,3-2.5,5-4.1
			C337.7,17.6,339.2,19,341.1,20.8z"/>
		<path class="st17" d="M34.2,56.6c0.1,2.2,0.2,4,0.4,6c-2.1,0-4,0-6.2,0c0-2,0-3.9,0-6C30.3,56.6,32,56.6,34.2,56.6z"/>
	</g>
</g>
<linearGradient id="SVGID_1_" gradientUnits="userSpaceOnUse" x1="28.664" y1="243.3544" x2="61.7699" y2="186.0134">
	<stop  offset="0.1345" style="stop-color:#373B44"/>
	<stop  offset="1" style="stop-color:#4286F4"/>
</linearGradient>
<circle class="st18" cx="45.2" cy="214.7" r="33.1"/>
<linearGradient id="SVGID_2_" gradientUnits="userSpaceOnUse" x1="67.4479" y1="127.5125" x2="111.9246" y2="50.4766">
	<stop  offset="0.1345" style="stop-color:#373B44"/>
	<stop  offset="1" style="stop-color:#4286F4"/>
</linearGradient>
<circle class="st19" cx="89.7" cy="89" r="44.5"/>
<linearGradient id="SVGID_3_" gradientUnits="userSpaceOnUse" x1="244.4029" y1="90.0535" x2="290.9927" y2="9.3576">
	<stop  offset="0.1345" style="stop-color:#373B44"/>
	<stop  offset="1" style="stop-color:#4286F4"/>
</linearGradient>
<circle class="st20" cx="267.7" cy="49.7" r="46.6"/>
<linearGradient id="SVGID_4_" gradientUnits="userSpaceOnUse" x1="260.6306" y1="243.9976" x2="288.93" y2="194.9815">
	<stop  offset="0.1345" style="stop-color:#373B44"/>
	<stop  offset="1" style="stop-color:#4286F4"/>
</linearGradient>
<circle class="st21" cx="274.8" cy="219.5" r="28.3"/>
<g>
	<linearGradient id="SVGID_5_" gradientUnits="userSpaceOnUse" x1="196.4807" y1="151.6749" x2="204.4516" y2="137.8688">
		<stop  offset="0.1345" style="stop-color:#373B44"/>
		<stop  offset="1" style="stop-color:#4286F4"/>
	</linearGradient>
	<path class="st22" d="M214.6,153.4l-5.6,5.6l-22.8-22.8c2.4-1.2,4.3-3.2,5.4-5.6L214.6,153.4z"/>
	<linearGradient id="SVGID_6_" gradientUnits="userSpaceOnUse" x1="179.2245" y1="129.1985" x2="183.2313" y2="122.2586">
		<stop  offset="0.1345" style="stop-color:#373B44"/>
		<stop  offset="1" style="stop-color:#4286F4"/>
	</linearGradient>
	<path class="st23" d="M184.9,123.7v2c0,2.2-1.8,3.9-3.9,3.9c-0.5,0-1.1-0.1-1.6-0.3l-0.8-0.8c-1.5-1.5-1.5-4,0-5.6
		c1.5-1.5,4-1.5,5.6,0L184.9,123.7z"/>
	<linearGradient id="SVGID_7_" gradientUnits="userSpaceOnUse" x1="169.4354" y1="110.3913" x2="193.0476" y2="69.4938">
		<stop  offset="0.1345" style="stop-color:#373B44"/>
		<stop  offset="1" style="stop-color:#4286F4"/>
	</linearGradient>
	<path class="st24" d="M184.9,67.1v47.5c-2.6-0.8-5.3-0.7-7.8,0.2V67.1c0-2.2,1.8-3.9,3.9-3.9C183.2,63.2,184.9,64.9,184.9,67.1z"/>
	<linearGradient id="SVGID_8_" gradientUnits="userSpaceOnUse" x1="126.2846" y1="220.6065" x2="235.8146" y2="30.895">
		<stop  offset="0.1345" style="stop-color:#373B44"/>
		<stop  offset="1" style="stop-color:#4286F4"/>
	</linearGradient>
	<path class="st25" d="M181,227.4c56.2,0,101.7-45.5,101.7-101.7S237.2,24.1,181,24.1S79.3,69.6,79.3,125.7
		C79.4,181.9,124.9,227.4,181,227.4z M181,16.2c60.5,0,109.5,49,109.5,109.5s-49,109.5-109.5,109.5s-109.5-49-109.5-109.5
		C71.6,65.3,120.6,16.3,181,16.2z"/>
	<linearGradient id="SVGID_9_" gradientUnits="userSpaceOnUse" x1="112.3115" y1="194.4166" x2="198.8463" y2="44.5339">
		<stop  offset="0.1345" style="stop-color:#373B44"/>
		<stop  offset="1" style="stop-color:#4286F4"/>
	</linearGradient>
	<path class="st26" d="M181,43.6v11.7c-6.5,0-11.7,5.3-11.7,11.7v58.7c0,4,2,7.7,5.4,9.8l2.5,2.5v81.5c-22.2-0.9-43.3-9.7-59.6-24.7
		l8.2-8.2l-5.6-5.6l-8.2,8.2c-15.1-16.3-23.8-37.4-24.7-59.6h11.6v-7.8H87.3c0.9-22.2,9.7-43.3,24.7-59.6l8.2,8.2l5.6-5.6l-8.2-8.2
		c16.3-15.1,37.4-23.8,59.6-24.7v11.6H181z"/>
	<linearGradient id="SVGID_10_" gradientUnits="userSpaceOnUse" x1="163.2145" y1="206.9454" x2="249.7493" y2="57.0627">
		<stop  offset="0.1345" style="stop-color:#373B44"/>
		<stop  offset="1" style="stop-color:#4286F4"/>
	</linearGradient>
	<path class="st27" d="M274.8,121.8h-11.6v7.8h11.6c-0.9,22.2-9.7,43.3-24.7,59.6l-8.2-8.2l-5.6,5.6l8.2,8.2
		c-16.3,15.1-37.4,23.8-59.6,24.7v-11.6h-7.8v-11.7h7.8v-50.3l21.4,21.4c0.7,0.7,1.7,1.1,2.8,1.1c1,0,2-0.4,2.8-1.1l11.1-11.1
		c1.5-1.5,1.5-4,0-5.6l-30.2-30.1V67.1c0-6.5-5.3-11.7-11.7-11.7V43.6h3.9V32c22.2,0.9,43.3,9.7,59.6,24.7l-8.2,8.2l5.6,5.6l8.2-8.2
		C265.1,78.5,273.9,99.7,274.8,121.8z"/>
</g>
<linearGradient id="SVGID_11_" gradientUnits="userSpaceOnUse" x1="19.0229" y1="54.5537" x2="45.0775" y2="9.4259">
	<stop  offset="0.1345" style="stop-color:#373B44"/>
	<stop  offset="1" style="stop-color:#4286F4"/>
</linearGradient>
<circle class="st28" cx="32.1" cy="32" r="26.1"/>
<linearGradient id="SVGID_12_" gradientUnits="userSpaceOnUse" x1="300.1301" y1="162.9976" x2="328.4296" y2="113.9815">
	<stop  offset="0.1345" style="stop-color:#373B44"/>
	<stop  offset="1" style="stop-color:#4286F4"/>
</linearGradient>
<circle class="st29" cx="314.3" cy="138.5" r="28.3"/>
</svg>
