<?xml version="1.0" encoding="utf-8"?>
<!-- Generator: Adobe Illustrator 22.0.0, SVG Export Plug-In . SVG Version: 6.00 Build 0)  -->
<svg version="1.1" id="Layer_1" xmlns="http://www.w3.org/2000/svg" xmlns:xlink="http://www.w3.org/1999/xlink" x="0px" y="0px"
	 viewBox="0 0 569.5 476" style="enable-background:new 0 0 569.5 476;" xml:space="preserve">
<style type="text/css">
	.st0{display:none;}
	.st1{display:inline;}
	.st2{display:none;fill:#35404C;}
	.st3{display:none;fill:#343F3E;}
	.st4{display:none;fill:#333D3C;}
	.st5{fill:#343F3E;}
	.st6{fill:#3B4342;}
	.st7{display:none;fill:#323B3A;}
	.st8{display:none;fill:#303A39;}
	.st9{fill:#323B3A;}
	.st10{fill:#384040;}
	.st11{fill:#3D4745;}
	.st12{fill:#3A4241;}
	.st13{display:none;fill:#3B4342;}
	.st14{display:none;fill:#3A4444;}
	.st15{fill:#3A4444;}
	.st16{fill:#293130;}
	.st17{fill:#3F4746;}
	.st18{display:none;fill:#2B3635;}
	.st19{display:none;opacity:0.3;fill:url(#SVGID_1_);}
	.st20{display:none;fill:url(#SVGID_2_);}
	.st21{display:none;fill:url(#SVGID_3_);}
	.st22{display:none;opacity:0.3;fill:url(#SVGID_4_);}
	.st23{fill:url(#SVGID_5_);}
	.st24{fill:url(#SVGID_6_);}
	.st25{fill:url(#SVGID_7_);}
	.st26{fill:url(#SVGID_8_);}
	.st27{fill:url(#SVGID_9_);}
	.st28{fill:url(#SVGID_10_);}
	.st29{fill:url(#SVGID_11_);}
	.st30{fill:url(#SVGID_12_);}
	.st31{fill:url(#SVGID_13_);}
	.st32{fill:url(#SVGID_14_);}
	.st33{fill:url(#SVGID_15_);}
	.st34{fill:url(#SVGID_16_);}
	.st35{fill:url(#SVGID_17_);}
	.st36{fill:url(#SVGID_18_);}
	.st37{fill:url(#SVGID_19_);}
	.st38{fill:url(#SVGID_20_);}
	.st39{fill:url(#SVGID_21_);}
	.st40{fill:url(#SVGID_22_);}
	.st41{fill:url(#SVGID_23_);}
	.st42{fill:url(#SVGID_24_);}
	.st43{fill:url(#SVGID_25_);}
	.st44{fill:url(#SVGID_26_);}
	.st45{fill:url(#SVGID_27_);}
	.st46{fill:url(#SVGID_28_);}
	.st47{fill:url(#SVGID_29_);}
	.st48{fill:url(#SVGID_30_);}
	.st49{fill:url(#SVGID_31_);}
	.st50{fill:url(#SVGID_32_);}
	.st51{fill:url(#SVGID_33_);}
	.st52{fill:url(#SVGID_34_);}
	.st53{fill:url(#SVGID_35_);}
	.st54{fill:url(#SVGID_36_);}
	.st55{fill:url(#SVGID_37_);}
</style>
<g class="st0">
	<g class="st1">
		<path class="st5" d="M27.4,62.1c-1.8,1.6-3.2,2.9-4.8,4.5c-1.7-1.6-3.2-3-4.9-4.6c1.5-1.7,2.8-3.1,4.4-4.9
			C23.9,58.8,25.5,60.4,27.4,62.1z"/>
		<path class="st6" d="M61.5,43.8c0,2.2,0,4.2,0,6.4c-2.1,0-4.2,0-6.2,0C54.2,43.5,54.5,43.1,61.5,43.8z"/>
		<path class="st6" d="M52.5,57c1.5,1.6,2.8,3,4.5,4.8c-1.8,1.7-3.5,3.2-5.4,5c-1.6-2-2.7-3.5-4.1-5.2C49.2,60.1,50.8,58.7,52.5,57z
			"/>
		<path class="st9" d="M40.5,23.2c0,2,0,3.8,0,5.9c-2.1,0-4.1,0-6.4,0c0-1.9,0-3.8,0-5.9C36.2,23.2,38.3,23.2,40.5,23.2z"/>
		<path class="st10" d="M47.1,32.2c1.9-1.8,3.3-3.1,4.9-4.6c1.7,1.5,3.1,2.8,5,4.4c-1.4,1.6-2.7,3.1-4.3,4.9
			C50.8,35.4,49.2,34,47.1,32.2z"/>
		<path class="st11" d="M34.1,71.1c0-2.3,0-4,0-6.2c2.1,0,4,0,6.4,0c0.1,2,0.2,3.9,0.3,6.2C38.4,71.1,36.4,71.1,34.1,71.1z"/>
		<path class="st12" d="M18.2,32c1-1.1,2.5-2.7,4.4-4.7c1.8,2.1,3.2,3.7,4.6,5.4c-1.8,1.3-3.4,2.5-5.6,4.1
			C20.9,35.8,19.6,34.1,18.2,32z"/>
		<path class="st16" d="M13.4,44.1c2.1,0,3.9,0,5.9,0c0,2,0,3.8,0,6c-1.9,0-3.8,0-5.9,0C13.4,48.2,13.4,46.4,13.4,44.1z"/>
	</g>
</g>
<linearGradient id="SVGID_1_" gradientUnits="userSpaceOnUse" x1="52.5508" y1="214.858" x2="66.6274" y2="190.4767">
	<stop  offset="0.1345" style="stop-color:#373B44"/>
	<stop  offset="1" style="stop-color:#4286F4"/>
</linearGradient>
<circle class="st19" cx="59.6" cy="202.7" r="14.1"/>
<linearGradient id="SVGID_2_" gradientUnits="userSpaceOnUse" x1="444.8104" y1="53.8731" x2="464.6732" y2="19.4697">
	<stop  offset="0.1345" style="stop-color:#373B44"/>
	<stop  offset="1" style="stop-color:#4286F4"/>
</linearGradient>
<circle class="st20" cx="454.7" cy="36.7" r="19.9"/>
<linearGradient id="SVGID_3_" gradientUnits="userSpaceOnUse" x1="479.0383" y1="74.4029" x2="499.0994" y2="39.6559">
	<stop  offset="0.1345" style="stop-color:#373B44"/>
	<stop  offset="1" style="stop-color:#4286F4"/>
</linearGradient>
<circle style="display:none;opacity:0.3;fill:url(#SVGID_3_);" cx="489.1" cy="57" r="20.1"/>
<g>
	<linearGradient id="SVGID_4_" gradientUnits="userSpaceOnUse" x1="56.0309" y1="500.0322" x2="149.5423" y2="338.0658">
		<stop  offset="0.1345" style="stop-color:#373B44"/>
		<stop  offset="1" style="stop-color:#4286F4"/>
	</linearGradient>
	<path style="fill:url(#SVGID_4_);" d="M195.2,386.8c-0.4-2.8-1.1-6.6-2.1-10.7c-1.3-5.3-2.7-4.3-7.2-7c0.5-2.2,1-3.8,1.2-5.1
		c0.5-2.8-0.1-3-2.5-4.9c-5.3-4-14.7-5.5-22.1-6.2c-2.3-0.2-3.5,0.5-4.9,1.7c-0.7-1-1.4-1.7-2.4-2.8c-1.7-1.8-3-6.9-4.2-8.8
		c-1.9-3.1-5.9-5.9-9.2-7.6c-1-0.5-1.5-0.6-2.7-0.7c-0.1-1.4,0.1-3.1-1.1-3.1c-3.4-0.2-10.7-0.1-15.3-0.1c-4.9,0-7.6-0.1-12.6,0
		c-2.1,0-2.4,0.8-2.6,2.9c-3.8,1.2-9.4,3.6-12.3,8.6c-1.9,3.3-3.2,6.1-5.1,9.2c-3.7,6-18.1,8.6-43.8,10.1c-4.2-1.5-9.5-0.4-17.9,1.4
		c-10.8,2.3-20.1,9.1-21,20.2c-2.3,26.6-2.8,53.9-0.7,82.4c0.5,7.3,4.5,9.5,15.6,9.6l19.6,0.2c2.8,0,3.5-0.8,5.3-1.2l129.9,0
		c11.1,0,20-9.1,20.2-20.2C197.5,428.5,197.7,403.3,195.2,386.8z M35,373.7c-3.7,0.3-6.7-1.4-6.7-3.6c0-2.3,3-4.3,6.7-4.6
		s6.7,1.4,6.7,3.6S38.7,373.5,35,373.7z M51.6,465.9c0,0.8-0.6,1.4-1.4,1.4c-0.8,0-1.4-0.6-1.4-1.4v-71.5c0-0.8,0.6-1.4,1.4-1.4
		c0.8,0,1.4,0.6,1.4,1.4V465.9z M121.7,473.5c-28.6,0-51.9-23.2-51.9-51.9c0-28.6,23.2-51.9,51.9-51.9s51.9,23.2,51.9,51.9
		C173.5,450.2,150.3,473.5,121.7,473.5z M175.6,432.9l-2.1-0.1c1.4-7.6,1.4-15.2,0-22.7l2.1,0.1C183,418.2,182.7,425.7,175.6,432.9z
		"/>
	<linearGradient id="SVGID_5_" gradientUnits="userSpaceOnUse" x1="99.8874" y1="459.3013" x2="143.4215" y2="383.8981">
		<stop  offset="0.1345" style="stop-color:#373B44"/>
		<stop  offset="1" style="stop-color:#4286F4"/>
	</linearGradient>
	<path class="st23" d="M121.7,378.1c-24,0-43.5,19.5-43.5,43.5c0,24,19.5,43.5,43.5,43.5c24,0,43.5-19.5,43.5-43.5
		C165.2,397.6,145.7,378.1,121.7,378.1z M121.7,446.5c-13.7,0-24.9-11.1-24.9-24.9c0-13.7,11.1-24.9,24.9-24.9s24.9,11.1,24.9,24.9
		C146.5,435.3,135.4,446.5,121.7,446.5z"/>
</g>
<g>
	<linearGradient id="SVGID_6_" gradientUnits="userSpaceOnUse" x1="225.2327" y1="459.0462" x2="250.5258" y2="415.2371">
		<stop  offset="0.1345" style="stop-color:#373B44"/>
		<stop  offset="1" style="stop-color:#4286F4"/>
	</linearGradient>
	<path class="st24" d="M211.2,423.4v27.6h53.4v-27.6H211.2z M222.3,442.1c0,1.6-1.4,2.9-2.9,2.9c-1.6,0-2.9-1.2-2.9-2.9v-10.4
		c0-1.6,1.4-2.9,2.9-2.9c1.6,0,2.9,1.4,2.9,2.9V442.1z M234.7,442.1c0,1.6-1.4,2.9-2.9,2.9s-2.9-1.2-2.9-2.9v-10.4
		c0-1.6,1.2-2.9,2.9-2.9c1.6,0,2.9,1.4,2.9,2.9V442.1z M247,442.1c0,1.6-1.4,2.9-2.9,2.9c-1.6,0-2.9-1.2-2.9-2.9v-10.4
		c0-1.6,1.4-2.9,2.9-2.9c1.6,0,2.9,1.4,2.9,2.9V442.1z M259.3,442.1c0,1.6-1.4,2.9-2.9,2.9c-1.6,0-2.9-1.2-2.9-2.9v-10.4
		c0-1.6,1.4-2.9,2.9-2.9c1.6,0,2.9,1.4,2.9,2.9V442.1z"/>
	<linearGradient id="SVGID_7_" gradientUnits="userSpaceOnUse" x1="227.7251" y1="429.5569" x2="246.1262" y2="397.6853">
		<stop  offset="0.1345" style="stop-color:#373B44"/>
		<stop  offset="1" style="stop-color:#4286F4"/>
	</linearGradient>
	<polygon class="st25" points="210.2,419.4 265.9,419.4 270.3,411.6 205.7,411.6 	"/>
	<linearGradient id="SVGID_8_" gradientUnits="userSpaceOnUse" x1="228.7931" y1="471.4065" x2="244.7159" y2="443.8275">
		<stop  offset="0.1345" style="stop-color:#373B44"/>
		<stop  offset="1" style="stop-color:#4286F4"/>
	</linearGradient>
	<polygon class="st26" points="217,464.6 258.9,464.6 263.8,454.8 212.2,454.8 	"/>
	<linearGradient id="SVGID_9_" gradientUnits="userSpaceOnUse" x1="231.4334" y1="483.4634" x2="244.7163" y2="460.4568">
		<stop  offset="0.1345" style="stop-color:#373B44"/>
		<stop  offset="1" style="stop-color:#4286F4"/>
	</linearGradient>
	<rect x="217.4" y="468.5" class="st27" width="41.3" height="6.8"/>
	<linearGradient id="SVGID_10_" gradientUnits="userSpaceOnUse" x1="223.9398" y1="418.91" x2="252.0143" y2="370.2834">
		<stop  offset="0.1345" style="stop-color:#373B44"/>
		<stop  offset="1" style="stop-color:#4286F4"/>
	</linearGradient>
	<path class="st28" d="M264,384.8l-2,7.6c-0.2,2.7-2.2,4.7-4.5,4.7c-2.3,0-4.1-2-4.5-4.7l-2-11.1h-26.2l-2,11.1
		c-0.4,2.7-2.3,4.7-4.5,4.7c-2.3,0-4.3-2-4.5-4.7l-2-7.6l-7.4-3.3v26.2h66.9v-26.2L264,384.8z"/>
</g>
<g>
	<linearGradient id="SVGID_11_" gradientUnits="userSpaceOnUse" x1="242.7552" y1="59.1186" x2="260.9168" y2="27.6618">
		<stop  offset="0.1345" style="stop-color:#373B44"/>
		<stop  offset="1" style="stop-color:#4286F4"/>
	</linearGradient>
	<path class="st29" d="M247.5,26.2h8.7c3.9,0,7.7,2.9,7.7,7.7v19.3c0,3.9-3.9,7.7-7.7,7.7h-8.7c-3.9,0-7.7-3.9-7.7-7.7V33.9
		C239.8,29.1,243.7,26.2,247.5,26.2z"/>
	<linearGradient id="SVGID_12_" gradientUnits="userSpaceOnUse" x1="247.2058" y1="70.2501" x2="255.5111" y2="55.8649">
		<stop  offset="0.1345" style="stop-color:#373B44"/>
		<stop  offset="1" style="stop-color:#4286F4"/>
	</linearGradient>
	<path class="st30" d="M265.9,61.8c-1,3.9-4.8,6.7-8.7,6.7h-10.6c-3.9,0-7.7-2.9-8.7-6.7H265.9z"/>
	<linearGradient id="SVGID_13_" gradientUnits="userSpaceOnUse" x1="231.4691" y1="59.3873" x2="247.3488" y2="31.8828">
		<stop  offset="0.1345" style="stop-color:#373B44"/>
		<stop  offset="1" style="stop-color:#4286F4"/>
	</linearGradient>
	<path class="st31" d="M234,60.9c-1-5.8,0-16.4,0-22.2c0-4.8,2.9-8.7,6.7-10.6c-1.9,1-2.9,2.9-2.9,5.8v20.2c0,2.9,1.9,4.8,3.9,6.7
		H234z"/>
	<linearGradient id="SVGID_14_" gradientUnits="userSpaceOnUse" x1="258.1616" y1="58.6575" x2="272.61" y2="33.632">
		<stop  offset="0.1345" style="stop-color:#373B44"/>
		<stop  offset="1" style="stop-color:#4286F4"/>
	</linearGradient>
	<path class="st32" d="M263,28.1c3.9,1.9,7.7,5.8,7.7,10.6c0,5.8,0,16.4-1,22.2H262c1.9-1.9,3.9-3.9,3.9-6.7V33.9
		C265.9,31,264.9,29.1,263,28.1z"/>
	<linearGradient id="SVGID_15_" gradientUnits="userSpaceOnUse" x1="243.7808" y1="97.5625" x2="259.9835" y2="69.4987">
		<stop  offset="0.1345" style="stop-color:#373B44"/>
		<stop  offset="1" style="stop-color:#4286F4"/>
	</linearGradient>
	<path class="st33" d="M236,84l7.7-14.5h16.4l7.7,14.5l-7.7,13.5h-16.4L236,84z M252.4,74.4c4.8,0,8.7,3.9,8.7,9.6
		c0,4.8-3.9,8.7-8.7,8.7c-5.8,0-9.6-3.9-9.6-8.7C242.7,78.2,246.6,74.4,252.4,74.4z"/>
	<linearGradient id="SVGID_16_" gradientUnits="userSpaceOnUse" x1="248.6364" y1="89.4745" x2="255.2256" y2="78.0617">
		<stop  offset="0.1345" style="stop-color:#373B44"/>
		<stop  offset="1" style="stop-color:#4286F4"/>
	</linearGradient>
	<path class="st34" d="M257.2,79.2c1,1,1.9,2.9,1.9,4.8c0,1.9-1,3.9-2.9,4.8c-1-1-2.9-1.9-3.9-1.9c-1.9,0-3.9,1-4.8,1.9
		c-1.9-1-2.9-2.9-2.9-4.8c0-1.9,1-3.9,1.9-4.8c1,1,2.9,1.9,5.8,1.9C254.3,81.1,256.2,80.2,257.2,79.2z"/>
	<linearGradient id="SVGID_17_" gradientUnits="userSpaceOnUse" x1="123.8875" y1="39.7426" x2="139.8182" y2="12.1498">
		<stop  offset="0.1345" style="stop-color:#373B44"/>
		<stop  offset="1" style="stop-color:#4286F4"/>
	</linearGradient>
	<path class="st35" d="M112.6,25.2c23.1-1,39.5-1.9,45.3-1.9c1.9,0,1,0,1,0c-4.8,1-14.5,2.9-16.4,3.9c-1.9,1-4.8,1.9-4.8,1.9l-26,1
		C102.9,30,102,27.1,112.6,25.2z"/>
	<linearGradient id="SVGID_18_" gradientUnits="userSpaceOnUse" x1="193.7036" y1="118.801" x2="230.6534" y2="54.802">
		<stop  offset="0.1345" style="stop-color:#373B44"/>
		<stop  offset="1" style="stop-color:#4286F4"/>
	</linearGradient>
	<polygon class="st36" points="203.2,118.7 193.6,118.7 193.6,112.9 199.3,95.6 200.3,94.6 202.2,88.8 213.8,67.6 226.3,54.1 
		231.2,55.1 216.7,69.6 207.1,87.9 208,86.9 209.9,86.9 209.9,87.9 213.8,87.9 211.9,91.7 209.9,91.7 201.3,112 205.1,112 	"/>
	<linearGradient id="SVGID_19_" gradientUnits="userSpaceOnUse" x1="155.7846" y1="61.5271" x2="175.6234" y2="27.1653">
		<stop  offset="0.1345" style="stop-color:#373B44"/>
		<stop  offset="1" style="stop-color:#4286F4"/>
	</linearGradient>
	<path class="st37" d="M150.2,37.7h9.6c0-1.9,0-14.5,1-15.4s1.9-1,2.9-1s2.9,0,2.9,1c1.9,1,1,13.5,1,15.4h9.6V58h-1.9
		c-1,1.9-2.9,3.9-4.8,3.9h-12.5c-2.9,0-4.8-1.9-4.8-3.9h-2.9V37.7z"/>
	<linearGradient id="SVGID_20_" gradientUnits="userSpaceOnUse" x1="191.3687" y1="54.464" x2="214.0021" y2="15.2618">
		<stop  offset="0.1345" style="stop-color:#373B44"/>
		<stop  offset="1" style="stop-color:#4286F4"/>
	</linearGradient>
	<path class="st38" d="M232.1,53.2c0,0-11.6-1-14.5-1.9c-3.9-1-7.7-2.9-7.7-2.9l-27-2.9l-3.9,1.9V35.8h-10.6c1-1,5.8-5.8,8.7-5.8
		c1.9,0,3.9,0,5.8,0v-5.8c-5.8,0-10.6,0-13.5,0c-1,0,0-1,0-1c3.9,0,14.5-1.9,15.4-2.9c1.9-1,3.9-1,4.8-1v-7.7c0-1,1.9-1.9,2.9-1.9
		c1,0,1.9,1,1.9,1.9v7.7h22.2c8.7,0,9.6,2.9-1.9,4.8c-4.8,0-8.7,0-13.5,0v4.8l1.9,2.9l15.4,7.7c2.9,1,10.6-1,13.5-1.9V53.2z"/>
	<linearGradient id="SVGID_21_" gradientUnits="userSpaceOnUse" x1="162.6299" y1="23.813" x2="174.3974" y2="3.4311">
		<stop  offset="0.1345" style="stop-color:#373B44"/>
		<stop  offset="1" style="stop-color:#4286F4"/>
	</linearGradient>
	<path class="st39" d="M154,12.7c17.4,0,29.9-1,34.7-1l0,0c-3.9,1-10.6,2.9-12.5,2.9c-1,1-2.9,1-2.9,1l-20.2,1
		C147.3,16.5,146.3,14.6,154,12.7z"/>
	<linearGradient id="SVGID_22_" gradientUnits="userSpaceOnUse" x1="211.2053" y1="21.1935" x2="222.5693" y2="1.5104">
		<stop  offset="0.1345" style="stop-color:#373B44"/>
		<stop  offset="1" style="stop-color:#4286F4"/>
	</linearGradient>
	<path class="st40" d="M231.2,12.7c-17.4,0-29.9,0-34.7,0l0,0c3.9-1,10.6-1.9,12.5-2.9c1-1,2.9-1,2.9-1h20.2
		C238.9,8.8,238.9,11.7,231.2,12.7z"/>
	<linearGradient id="SVGID_23_" gradientUnits="userSpaceOnUse" x1="366.2846" y1="35.6199" x2="377.8315" y2="15.6201">
		<stop  offset="0.1345" style="stop-color:#373B44"/>
		<stop  offset="1" style="stop-color:#4286F4"/>
	</linearGradient>
	<path class="st41" d="M391.2,25.2c-22.2-1-39.5-1.9-45.3-1.9c-1,0-1,0-1,0c4.8,1,14.5,2.9,16.4,3.9c1.9,1,4.8,1.9,4.8,1.9l26,1
		C400.8,30,401.8,27.1,391.2,25.2z"/>
	<linearGradient id="SVGID_24_" gradientUnits="userSpaceOnUse" x1="279.9212" y1="106.7986" x2="302.1051" y2="68.3749">
		<stop  offset="0.1345" style="stop-color:#373B44"/>
		<stop  offset="1" style="stop-color:#4286F4"/>
	</linearGradient>
	<polygon class="st42" points="300.6,118.7 310.2,118.7 310.2,112.9 304.4,95.6 303.5,94.6 302.5,88.8 290.9,67.6 277.4,54.1 
		272.6,55.1 287.1,69.6 296.7,87.9 295.7,86.9 293.8,86.9 293.8,87.9 290,87.9 291.9,91.7 293.8,91.7 302.5,112 298.6,112 	"/>
	<linearGradient id="SVGID_25_" gradientUnits="userSpaceOnUse" x1="332.1321" y1="61.6454" x2="351.9357" y2="27.3446">
		<stop  offset="0.1345" style="stop-color:#373B44"/>
		<stop  offset="1" style="stop-color:#4286F4"/>
	</linearGradient>
	<path class="st43" d="M353.6,37.7h-9.6c0-1.9,0-14.5-1-15.4s-1.9-1-2.9-1s-1.9,0-2.9,1c-1.9,1-1,13.5-1,15.4h-9.6V58h2.9
		c0,1.9,1.9,3.9,3.9,3.9h13.5c1.9,0,3.9-1.9,3.9-3.9h2.9V37.7z"/>
	<linearGradient id="SVGID_26_" gradientUnits="userSpaceOnUse" x1="288.3238" y1="62.7937" x2="317.2794" y2="12.6413">
		<stop  offset="0.1345" style="stop-color:#373B44"/>
		<stop  offset="1" style="stop-color:#4286F4"/>
	</linearGradient>
	<path class="st44" d="M271.6,53.2c0,0,11.6-1,14.5-1.9c3.9-1,7.7-2.9,7.7-2.9l27-2.9l3.9,1.9V35.8h10.6c-1-1-5.8-5.8-8.7-5.8
		c-1.9,0-3.9,0-5.8,0v-5.8c5.8,0,10.6,0,13.5,0c1,0,1-1,0-1c-3.9,0-14.5-1.9-15.4-2.9c-1-1-3.9-1-4.8-1v-7.7c0-1-1-1.9-2.9-1.9
		c-1,0-1.9,1-1.9,1.9v7.7h-22.2c-7.7,0-8.7,2.9,1.9,4.8c4.8,0,8.7,0,13.5,0v4.8l-1.9,2.9l-15.4,7.7c-2.9,1-10.6-1-13.5-1.9V53.2z"/>
	<linearGradient id="SVGID_27_" gradientUnits="userSpaceOnUse" x1="331.0785" y1="20.9793" x2="339.8301" y2="5.821">
		<stop  offset="0.1345" style="stop-color:#373B44"/>
		<stop  offset="1" style="stop-color:#4286F4"/>
	</linearGradient>
	<path class="st45" d="M349.7,12.7c-17.4,0-29.9-1-33.7-1c-1,0-1,0-1,0c3.9,1,10.6,2.9,12.5,2.9c1,1,2.9,1,2.9,1l20.2,1
		C357.4,16.5,357.4,14.6,349.7,12.7z"/>
	<linearGradient id="SVGID_28_" gradientUnits="userSpaceOnUse" x1="282.5401" y1="19.8662" x2="291.9543" y2="3.5602">
		<stop  offset="0.1345" style="stop-color:#373B44"/>
		<stop  offset="1" style="stop-color:#4286F4"/>
	</linearGradient>
	<path class="st46" d="M272.6,12.7c17.4,0,29.9,0,34.7,0c1,0,0,0,0,0c-3.9-1-10.6-1.9-12.5-2.9c-1-1-2.9-1-2.9-1h-20.2
		C265.9,8.8,264.9,11.7,272.6,12.7z"/>
</g>
<g>
	<g>
		<linearGradient id="SVGID_29_" gradientUnits="userSpaceOnUse" x1="385.1754" y1="384.2145" x2="417.6042" y2="328.0461">
			<stop  offset="0.1345" style="stop-color:#373B44"/>
			<stop  offset="1" style="stop-color:#4286F4"/>
		</linearGradient>
		<path class="st47" d="M418.5,329.4h-16.9l-12.3-7.8v65l12.3-7.8h16.9c1.6,0,3.2-1.3,3.2-3.2v-43.2c0-1.9-1.6-3.2-3.2-3.2V329.4z"
			/>
	</g>
	<g>
		<linearGradient id="SVGID_30_" gradientUnits="userSpaceOnUse" x1="358.5801" y1="382.3687" x2="391.6482" y2="325.093">
			<stop  offset="0.1345" style="stop-color:#373B44"/>
			<stop  offset="1" style="stop-color:#4286F4"/>
		</linearGradient>
		<path class="st48" d="M365.9,323.2v61.4c0,1.9,1.3,3.2,3.2,3.2h13.6V320h-13.6C367.2,320,365.9,321.6,365.9,323.2z"/>
	</g>
	<g>
		<linearGradient id="SVGID_31_" gradientUnits="userSpaceOnUse" x1="480.7509" y1="398.2707" x2="508.3271" y2="350.5074">
			<stop  offset="0.1345" style="stop-color:#373B44"/>
			<stop  offset="1" style="stop-color:#4286F4"/>
		</linearGradient>
		<rect x="467.2" y="358.3" class="st49" width="54.6" height="32.2"/>
	</g>
	<g>
		<linearGradient id="SVGID_32_" gradientUnits="userSpaceOnUse" x1="534.8185" y1="384.2756" x2="569.0107" y2="325.053">
			<stop  offset="0.1345" style="stop-color:#373B44"/>
			<stop  offset="1" style="stop-color:#4286F4"/>
		</linearGradient>
		<path class="st50" d="M553.7,317.7h-8.1v72.8h8.1c4.2,0,7.5-2.6,8.8-6.5c5.8-17.5,5.8-37.7,0-59.5
			C561.5,320.3,557.9,317.7,553.7,317.7z"/>
	</g>
	<g>
		<linearGradient id="SVGID_33_" gradientUnits="userSpaceOnUse" x1="433.1105" y1="380.5614" x2="510.3575" y2="246.7657">
			<stop  offset="0.1345" style="stop-color:#373B44"/>
			<stop  offset="1" style="stop-color:#4286F4"/>
		</linearGradient>
		<path class="st51" d="M387.6,299.2h29.2c4.9,0,8.8-3.9,8.8-8.8h8.8V331h-6.2c0,0.3,0,1,0,1.3v43.5c0,0.6,0,1,0,1.3h14.6v3.2
			c0,5.5,4.5,10.1,10.1,10.1h7.8v-35.4c0-1.6,1.6-3.2,3.2-3.2h61.1c1.9,0,3.2,1.6,3.2,3.2v35.4h11v-73.1h-11l18.8-18.8l1.6,1.6
			c0.6,0.6,1.3,1,2.3,1c0.6,0,1.6-0.3,2.3-1l10.7-10.7c1.3-1.3,1.3-3.2,0-4.5L546.9,268c-1.3-1.3-3.2-1.3-4.5,0l-10.7,10.7
			c-1.3,1.3-1.3,3.2,0,4.5l1.6,1.3l-24,24l-19.5-24c-0.3-0.3-1.3-0.6-1.9-0.6h-62.1v-1c0-4.9-3.9-8.8-8.8-8.8h-29.2
			c-4.9,0-8.8,3.9-8.8,8.8v7.5C378.9,295.3,382.8,299.2,387.6,299.2z M442.6,331h-1.9v-40.6h45.8l18.2,22.7l-4.5,4.5h-47.4
			c-5.5,0-10.1,4.5-10.1,10.1v3.6V331z"/>
	</g>
	<g>
		<linearGradient id="SVGID_34_" gradientUnits="userSpaceOnUse" x1="481.4726" y1="479.3581" x2="529.8365" y2="395.5893">
			<stop  offset="0.1345" style="stop-color:#373B44"/>
			<stop  offset="1" style="stop-color:#4286F4"/>
		</linearGradient>
		<path class="st52" d="M472.4,469.8c-1,1.3-1,3.2,0.3,4.5c1.3,1,3.2,1,4.5-0.3l24-26v23.7c0,1.9,1.6,3.2,3.2,3.2
			c1.9,0,3.2-1.3,3.2-3.2v-24l24,26c1.3,1.6,3.2,1.6,4.5,0.3c1.3-1.3,1.6-3.2,0.3-4.5l-28.9-30.9v-10.7c8.4-1.6,14.6-8.8,14.6-17.5
			c0-1,0-1.9-0.3-2.9h6.8c1.9,0,3.2-1.3,3.2-3.2V397H477v7.1c0,1.9,1.3,3.2,3.2,3.2h6.8c-0.3,1-0.3,1.9-0.3,2.9
			c0,4.2,1.6,8.1,4.2,11.4c2.6,3.2,6.2,5.5,10.4,6.2v10.7L472.4,469.8z M493.2,410.3c0-1,0-1.9,0.3-2.9h22.1c0.3,1,0.3,1.9,0.3,2.9
			c0,6.2-5.2,11.4-11.4,11.4S493.2,416.5,493.2,410.3z"/>
	</g>
</g>
</svg>
