<?xml version="1.0" encoding="utf-8"?>
<!-- Generator: Adobe Illustrator 22.0.0, SVG Export Plug-In . SVG Version: 6.00 Build 0)  -->
<svg version="1.1" id="Layer_1" xmlns="http://www.w3.org/2000/svg" xmlns:xlink="http://www.w3.org/1999/xlink" x="0px" y="0px"
	 viewBox="0 0 1150 693" style="enable-background:new 0 0 1150 693;" xml:space="preserve">
<style type="text/css">
	.st0{fill:#FF5A00;}
	.st1{fill:#29007C;}
</style>
<path class="st0" d="M970.1,428.5c0-12.3-8.7-21.3-20.8-21.3c-12,0-20.8,9-20.8,21.3c0,12.3,8.7,21.3,20.8,21.3
	C961.3,449.9,970.1,440.8,970.1,428.5z M943.8,429.6v13.9h-4.5v-30.7h11.2c6.6,0,9.6,2.9,9.6,8.4c0,3.4-2.3,6.2-5.3,6.6v0.1
	c2.6,0.4,3.6,2.7,4.1,7c0.4,2.7,1,7.5,1.9,8.6h-5.3c-1.2-2.9-1.1-7-2.1-10.4c-0.8-2.6-2.2-3.6-5.2-3.6L943.8,429.6L943.8,429.6
	L943.8,429.6L943.8,429.6z M949.4,425.7c4.4,0,5.6-2.3,5.6-4.4c0-2.4-1.2-4.3-5.6-4.3h-5.6v8.7L949.4,425.7L949.4,425.7z
	 M923.6,428.5c0-15.2,12.1-25.4,25.7-25.4c13.7,0,25.7,10.3,25.7,25.4c0,15.2-12,25.4-25.7,25.4C935.6,454,923.6,443.7,923.6,428.5z
	"/>
<g>
	<path class="st0" d="M834.5,449.5l-29.6-33.2l-29.4,33.2h-61.8l60.4-67.9l-60.4-67.9h63.7l29.9,33l28.8-33h61.5l-60.1,67.6
		l60.9,68.2L834.5,449.5z M595,449.5V235.7h118.7v47.7h-68.4v30.4h68.4v45.9h-68.4v42.1h68.4v47.8L595,449.5z"/>
</g>
<path class="st1" d="M544.9,235.7v87.5h-0.6c-11.1-12.7-24.9-17.2-41-17.2c-32.9,0-57.7,22.4-66.4,52c-9.9-32.6-35.5-52.6-73.5-52.6
	c-30.8,0-55.2,13.8-67.9,36.4v-28h-63.7v-30.4h69.5v-47.7H175v213.8h56.8v-89.9h56.6c-1.7,6.9-2.6,14-2.6,21.1
	c0,44.6,34.1,75.9,77.6,75.9c36.6,0,60.7-17.2,73.4-48.5h-48.7c-6.6,9.4-11.6,12.2-24.7,12.2c-15.3,0-28.4-13.3-28.4-29.1h99.1
	c4.3,35.4,31.9,66,69.8,66c16.3,0,31.3-8,40.4-21.6h0.5v13.9H595V235.7L544.9,235.7L544.9,235.7L544.9,235.7z M336.6,360.3
	c3.2-13.6,13.7-22.5,26.8-22.5c14.5,0,24.5,8.6,27.1,22.5H336.6z M514.5,417c-18.5,0-29.9-17.2-29.9-35.2c0-19.2,10-37.6,29.9-37.6
	c20.7,0,28.9,18.5,28.9,37.6C543.4,400,534.7,417,514.5,417z"/>
</svg>
