<?xml version="1.0" encoding="utf-8"?>
<!-- Generator: Adobe Illustrator 22.0.0, SVG Export Plug-In . SVG Version: 6.00 Build 0)  -->
<svg version="1.1" id="Layer_1" xmlns="http://www.w3.org/2000/svg" xmlns:xlink="http://www.w3.org/1999/xlink" x="0px" y="0px"
	 viewBox="0 0 541 600" style="enable-background:new 0 0 541 600;" xml:space="preserve">
<style type="text/css">
	.st0{display:none;}
	.st1{display:inline;}
	.st2{fill:#35404C;}
	.st3{fill:#343F3E;}
	.st4{fill:#333D3C;}
	.st5{fill:#3B4342;}
	.st6{fill:#323B3A;}
	.st7{fill:#303A39;}
	.st8{fill:#384040;}
	.st9{fill:#3D4745;}
	.st10{fill:#3A4241;}
	.st11{fill:#3A4444;}
	.st12{fill:#293130;}
	.st13{fill:#3F4746;}
	.st14{fill:#2B3635;}
	.st15{display:none;opacity:0.3;fill:url(#SVGID_1_);enable-background:new    ;}
	.st16{display:none;opacity:0.3;fill:url(#SVGID_2_);enable-background:new    ;}
	.st17{display:none;opacity:0.3;fill:url(#SVGID_3_);enable-background:new    ;}
	.st18{display:none;opacity:0.3;fill:url(#SVGID_4_);enable-background:new    ;}
	.st19{fill:url(#SVGID_5_);}
	.st20{fill:url(#SVGID_6_);}
</style>
<g class="st0">
	<g class="st1">
		<path class="st2" d="M454.9,125.1c-3.3,0-5.9,0.3-8.3-0.1c-1.7-0.3-3.1-1.7-4.7-2.7c1.6-1.1,3-2.8,4.8-3.2
			c2.4-0.6,4.9-0.1,8.1-0.1c0-3.2-0.3-6.1,0.1-9c0.2-1.6,1.8-3,2.7-4.4c1,1.4,2.6,2.7,2.9,4.2c0.6,2.7,0.4,5.6,0.5,9.1
			c2.9,0,5.9-0.4,8.7,0.1c1.6,0.3,3,1.9,4.5,3c-1.5,1-2.9,2.1-4.5,3c-0.7,0.3-1.6,0.1-2.5,0.1c-6.5,0-6.5,0-6.5,6.5
			c0,1,0.1,2.1-0.3,2.9c-0.7,1.3-1.8,2.4-2.8,3.6c-1-1.3-2.6-2.5-2.8-4C454.6,131.3,454.9,128.5,454.9,125.1z"/>
		<path class="st3" d="M125.5,118.4c0,2.3,0,4.2,0,6.3c-9.2,0-18.3,0-27.7,0c0-2,0-4.1,0-6.3C107.1,118.4,116,118.4,125.5,118.4z"/>
		<path class="st4" d="M480.9,462.1c0,11,0,19.9,0,29.2c-2.2,0-4.2,0-6.7,0c0-8.7-0.2-17.1,0.3-25.4
			C474.5,464.7,477.9,463.7,480.9,462.1z"/>
		<path class="st3" d="M73.8,513.9c-1.8,1.6-3.2,2.9-4.8,4.5c-1.7-1.6-3.2-3-4.9-4.6c1.5-1.7,2.8-3.1,4.4-4.9
			C70.3,510.6,71.9,512.1,73.8,513.9z"/>
		<path class="st5" d="M107.9,495.5c0,2.2,0,4.2,0,6.4c-2.1,0-4.2,0-6.2,0C100.6,495.2,100.9,494.9,107.9,495.5z"/>
		<path class="st6" d="M474.4,506c0-2,0-3.8,0-5.9c2.1,0,4.1,0,6.4,0c0,1.8,0,3.7,0,5.9C478.7,506,476.7,506,474.4,506z"/>
		<path class="st7" d="M46.1,278c2.2,0,3.9,0,5.8,0c0,2,0,3.8,0,6.1c-1.7,0.2-3.6,0.4-5.8,0.6C46.1,282.3,46.1,280.3,46.1,278z"/>
		<path class="st5" d="M98.9,508.8c1.5,1.6,2.8,3,4.5,4.8c-1.8,1.7-3.5,3.2-5.4,5c-1.6-2-2.7-3.5-4.1-5.2
			C95.6,511.9,97.2,510.4,98.9,508.8z"/>
		<path class="st6" d="M86.9,475c0,2,0,3.8,0,5.9c-2.1,0-4.1,0-6.4,0c0-1.9,0-3.8,0-5.9C82.6,475,84.7,475,86.9,475z"/>
		<path class="st8" d="M93.5,484c1.9-1.8,3.3-3.1,4.9-4.6c1.7,1.5,3.1,2.8,5,4.4c-1.4,1.6-2.7,3.1-4.3,4.9
			C97.2,487.1,95.6,485.8,93.5,484z"/>
		<path class="st9" d="M80.5,522.8c0-2.3,0-4,0-6.2c2.1,0,4,0,6.4,0c0.1,2,0.2,3.9,0.3,6.2C84.8,522.8,82.8,522.8,80.5,522.8z"/>
		<path class="st4" d="M83,118.4c2.3,0,4,0,6,0c0,2.2,0,4.2,0,6.3c-2,0-3.9,0-6,0C83,122.7,83,120.8,83,118.4z"/>
		<path class="st8" d="M508.9,332.5c1.7,1.9,3,3.4,5,5.5c-1.8,1.3-3.4,2.4-5.5,3.9c-0.9-0.9-2.3-2.2-4.2-4
			C505.6,336.3,506.9,334.8,508.9,332.5z"/>
		<path class="st5" d="M515,326.7c1.9-1.6,3.3-2.9,5.7-4.9c1,1.5,2.1,3.3,3.5,5.6c-1.2,0.8-2.7,2-4.8,3.5
			C518.4,329.9,516.9,328.5,515,326.7z"/>
		<path class="st10" d="M64.6,483.7c1-1.1,2.5-2.7,4.4-4.7c1.8,2.1,3.2,3.7,4.6,5.4c-1.8,1.3-3.4,2.5-5.6,4.1
			C67.3,487.6,66.1,485.8,64.6,483.7z"/>
		<path class="st3" d="M54.9,287.2c2.3,0,4.2,0,6.3,0c0,2.1,0,4,0,6.3c-1.8,0.1-3.6,0.2-6,0.4C55.1,291.6,55,289.5,54.9,287.2z"/>
		<path class="st5" d="M474.5,515.2c2.2,0,4,0,6.2,0c0,2.1,0,4.1,0,6.5c-2,0-3.9,0-6.2,0C474.5,519.7,474.5,517.7,474.5,515.2z"/>
		<path class="st11" d="M67.3,124.7c0-2.2,0-4.1,0-6.2c2.2,0,4.1,0,6.3,0c0,2.1,0,4,0,6.2C71.8,124.7,69.8,124.7,67.3,124.7z"/>
		<path class="st9" d="M531.1,332.7c1.6,1.7,2.9,3.1,4.5,4.8c-1.5,1.6-2.8,3.1-4.5,4.8c-1.6-1.6-3-2.9-4.8-4.6
			C528,336,529.5,334.4,531.1,332.7z"/>
		<path class="st11" d="M525.9,315.6c2.2-1.9,3.5-3.1,4.8-4.3c5.8,4.1,5.8,4.1-0.1,9C529.2,318.9,527.8,317.5,525.9,315.6z"/>
		<path class="st12" d="M59.8,495.9c2.1,0,3.9,0,5.9,0c0,2,0,3.8,0,6c-1.9,0-3.8,0-5.9,0C59.8,499.9,59.8,498.2,59.8,495.9z"/>
		<path class="st13" d="M513.7,315.4c-1.8,1.9-3.1,3.3-4.9,5.2c-1.7-2-3.1-3.5-4.8-5.5c1.5-1.3,3-2.5,5-4.1
			C510.4,312.3,511.9,313.6,513.7,315.4z"/>
		<path class="st14" d="M60.9,269.1c0.1,2.2,0.2,4,0.4,6c-2.1,0-4,0-6.2,0c0-2,0-3.9,0-6C57.1,269.1,58.8,269.1,60.9,269.1z"/>
	</g>
</g>
<linearGradient id="SVGID_1_" gradientUnits="userSpaceOnUse" x1="148.5472" y1="64.4298" x2="181.6528" y2="121.7702" gradientTransform="matrix(1 0 0 -1 0 600)">
	<stop  offset="0.1345" style="stop-color:#373B44"/>
	<stop  offset="1" style="stop-color:#4286F4"/>
</linearGradient>
<circle class="st15" cx="165.1" cy="506.9" r="33.1"/>
<linearGradient id="SVGID_2_" gradientUnits="userSpaceOnUse" x1="15.1484" y1="346.9561" x2="34.2314" y2="380.0089" gradientTransform="matrix(1 0 0 -1 0 600)">
	<stop  offset="0.1345" style="stop-color:#373B44"/>
	<stop  offset="1" style="stop-color:#4286F4"/>
</linearGradient>
<circle class="st16" cx="24.7" cy="236.5" r="19.1"/>
<linearGradient id="SVGID_3_" gradientUnits="userSpaceOnUse" x1="163.5467" y1="468.013" x2="203.2533" y2="536.787" gradientTransform="matrix(1 0 0 -1 0 600)">
	<stop  offset="0.1345" style="stop-color:#373B44"/>
	<stop  offset="1" style="stop-color:#4286F4"/>
</linearGradient>
<circle class="st17" cx="183.4" cy="97.6" r="39.7"/>
<linearGradient id="SVGID_4_" gradientUnits="userSpaceOnUse" x1="448.3479" y1="243.8394" x2="474.0522" y2="288.3606" gradientTransform="matrix(1 0 0 -1 0 600)">
	<stop  offset="0.1345" style="stop-color:#373B44"/>
	<stop  offset="1" style="stop-color:#4286F4"/>
</linearGradient>
<circle class="st18" cx="461.2" cy="333.9" r="25.7"/>
<linearGradient id="SVGID_5_" gradientUnits="userSpaceOnUse" x1="323.5318" y1="254.95" x2="223.7955" y2="354.6864" gradientTransform="matrix(1 0 0 -1 0 600)">
	<stop  offset="0.1345" style="stop-color:#373B44"/>
	<stop  offset="1" style="stop-color:#4286F4"/>
</linearGradient>
<path class="st19" d="M341.4,270.5c0-9.2-7.4-16.6-16.6-16.6l0,0l-102.3-0.4c-9.2,0-16.6,7.4-16.6,16.6v49.8
	c0,9.2,7.4,16.6,16.6,16.6l102.3,0.4c9.2,0,16.6-7.4,16.6-16.6V270.5z M226.5,263c17.5,0,77.7,0.4,94.8,0.4h1.7l-48,32.7L225.2,263
	H226.5z M324.8,327.3l-102.3-0.4c-3.9,0-7.4-3-7.4-7.4c0-22.7,0.4-44.1,0.4-50.2v-0.9l0.9,0.4l55.5,36.7c1.7,0.9,3.9,0.9,5.2,0
	l54.2-36.7v0.9c0.4,7.9,0.4,31.9,0.4,50.2C331.8,324.2,328.7,327.3,324.8,327.3z"/>
<linearGradient id="SVGID_6_" gradientUnits="userSpaceOnUse" x1="161.6096" y1="107.0501" x2="385.444" y2="494.7427" gradientTransform="matrix(1 0 0 -1 0 600)">
	<stop  offset="0.1345" style="stop-color:#373B44"/>
	<stop  offset="1" style="stop-color:#4286F4"/>
</linearGradient>
<path class="st20" d="M360.6,94.9H186.4c-13.6,0-25.4,11.4-25.4,25.4V478c0,13.6,11.4,25.4,25.4,25.4h174.3
	c13.6,0,25.4-11.4,25.4-25.4V119.8C386,106.2,374.6,94.9,360.6,94.9z M372.4,478c0,6.5-4.8,11.4-11.4,11.4H186.4
	c-6.5,0-11.4-4.8-11.4-11.4v-38.9h197.5L372.4,478L372.4,478z M372.4,425.2H175V145.1h197.5L372.4,425.2L372.4,425.2z M372.4,131.5
	H175v-11.8c0-6.5,4.8-11.4,11.4-11.4h62.9c0.4,2.6,2.6,4.3,5.2,4.3H293c2.6,0,4.8-2.2,5.2-4.3h62.4c6.5,0,11.4,4.8,11.4,11.4v11.8
	H372.4z"/>
<circle cx="273.7" cy="464.1" r="11.8"/>
</svg>
