<?xml version="1.0" encoding="utf-8"?>
<!-- Generator: Adobe Illustrator 22.0.0, SVG Export Plug-In . SVG Version: 6.00 Build 0)  -->
<svg version="1.1" id="Layer_1" xmlns="http://www.w3.org/2000/svg" xmlns:xlink="http://www.w3.org/1999/xlink" x="0px" y="0px"
	 viewBox="0 0 500 275" style="enable-background:new 0 0 500 275;" xml:space="preserve">
<style type="text/css">
	.st0{display:none;}
	.st1{display:inline;}
	.st2{display:none;fill:#35404C;}
	.st3{fill:#343F3E;}
	.st4{display:none;fill:#333D3C;}
	.st5{fill:#3B4342;}
	.st6{display:none;fill:#323B3A;}
	.st7{fill:#303A39;}
	.st8{fill:#323B3A;}
	.st9{fill:#384040;}
	.st10{fill:#3D4745;}
	.st11{fill:#333D3C;}
	.st12{fill:#3A4241;}
	.st13{display:none;fill:#3B4342;}
	.st14{fill:#3A4444;}
	.st15{fill:#293130;}
	.st16{fill:#3F4746;}
	.st17{fill:#2B3635;}
	.st18{display:none;fill:url(#SVGID_1_);}
	.st19{display:none;fill:url(#SVGID_2_);}
	.st20{display:none;fill:url(#SVGID_3_);}
	.st21{display:none;fill:url(#SVGID_4_);}
	.st22{fill:url(#SVGID_5_);}
	.st23{fill:url(#SVGID_6_);}
	.st24{fill:url(#SVGID_7_);}
	.st25{fill:url(#SVGID_8_);}
	.st26{fill:url(#SVGID_9_);}
	.st27{fill:url(#SVGID_10_);}
	.st28{fill:url(#SVGID_11_);}
	.st29{fill:#4286F4;}
	.st30{fill:#373B44;}
</style>
<g class="st0">
	<g class="st1">
	</g>
</g>
<g>
	<linearGradient id="SVGID_1_" gradientUnits="userSpaceOnUse" x1="325.556" y1="220.8647" x2="429.247" y2="41.2667">
		<stop  offset="0.1345" style="stop-color:#373B44"/>
		<stop  offset="1" style="stop-color:#4286F4"/>
	</linearGradient>
	<path style="fill:url(#SVGID_1_);" d="M451.3,104.6h-64.4c10.6-21.3,19.7-39.8,30.8-62.1c1.8-3.6,0.3-7.9-3.3-9.7l-5.9-2.9
		c-3.6-1.8-7.9-0.3-9.7,3.3c-12.5,25.3-22.4,45.2-35.5,71.5h-81.3c-4.8,0-8.7,3.9-8.7,8.6v72.7c0,4.8,3.9,8.6,8.7,8.6h169.2
		c4.8,0,8.7-3.9,8.7-8.6v-72.7C460,108.4,456.1,104.6,451.3,104.6z M360.9,129.6l3,1.5l-3.7,3.8L360.9,129.6z M368.5,125l-5.5-2.7
		c12.5-25.3,22.3-45.1,34.7-70.4l5.6,2.8C392.1,77.4,375.6,110.6,368.5,125z M411.1,39.2l-4.4,8.9l-5.5-2.7l4.1-8.8L411.1,39.2z
		 M452.5,185.8c0,0.6-0.5,1.2-1.2,1.2H282.2c-0.7,0-1.2-0.5-1.2-1.2v-72.7c0-0.6,0.5-1.2,1.2-1.2h77.6c-6.1,12.5-4.9,9.6-5.3,11
		c-0.4,1.4-2.4,15.8-3.4,22c-0.2,1.6,0.6,3.2,2,3.9c1.5,0.7,3.2,0.4,4.3-0.7c15.8-16,15.7-15.8,16.1-16.6l9.7-19.6h68.1
		c0.7,0,1.2,0.5,1.2,1.2L452.5,185.8L452.5,185.8z"/>
	<linearGradient id="SVGID_2_" gradientUnits="userSpaceOnUse" x1="411.1785" y1="137.2246" x2="424.8706" y2="113.5092">
		<stop  offset="0.1345" style="stop-color:#373B44"/>
		<stop  offset="1" style="stop-color:#4286F4"/>
	</linearGradient>
	<path style="fill:url(#SVGID_2_);" d="M398.1,129.1h39.8c2.1,0,3.7-1.7,3.7-3.7s-1.7-3.7-3.7-3.7h-39.8c-2.1,0-3.7,1.7-3.7,3.7
		C394.4,127.4,396,129.1,398.1,129.1z"/>
	<linearGradient id="SVGID_3_" gradientUnits="userSpaceOnUse" x1="401.0457" y1="157.9067" x2="419.5442" y2="125.8664">
		<stop  offset="0.1345" style="stop-color:#373B44"/>
		<stop  offset="1" style="stop-color:#4286F4"/>
	</linearGradient>
	<path style="fill:url(#SVGID_3_);" d="M439.8,138.2h-59.1c-2.1,0-3.7,1.7-3.7,3.7s1.7,3.7,3.7,3.7h59.1c2.1,0,3.7-1.7,3.7-3.7
		C443.6,139.8,441.9,138.2,439.8,138.2z"/>
	<linearGradient id="SVGID_4_" gradientUnits="userSpaceOnUse" x1="346.8501" y1="192.866" x2="386.6377" y2="123.9518">
		<stop  offset="0.1345" style="stop-color:#373B44"/>
		<stop  offset="1" style="stop-color:#4286F4"/>
	</linearGradient>
	<path style="fill:url(#SVGID_4_);" d="M438.9,154.7H294.6c-2.1,0-3.7,1.7-3.7,3.7s1.7,3.7,3.7,3.7h144.2c2.1,0,3.7-1.7,3.7-3.7
		C442.6,156.4,440.9,154.7,438.9,154.7z"/>
	<linearGradient id="SVGID_5_" gradientUnits="userSpaceOnUse" x1="415.9692" y1="185.4431" x2="428.1098" y2="164.4149">
		<stop  offset="0.1345" style="stop-color:#373B44"/>
		<stop  offset="1" style="stop-color:#4286F4"/>
	</linearGradient>
	<path class="st22" d="M438.9,171.2h-33.6c-2.1,0-3.7,1.7-3.7,3.7c0,2.1,1.7,3.7,3.7,3.7h33.6c2.1,0,3.7-1.7,3.7-3.7
		C442.6,172.9,440.9,171.2,438.9,171.2z"/>
	<linearGradient id="SVGID_6_" gradientUnits="userSpaceOnUse" x1="330.6698" y1="200.0436" x2="359.67" y2="149.8137">
		<stop  offset="0.1345" style="stop-color:#373B44"/>
		<stop  offset="1" style="stop-color:#4286F4"/>
	</linearGradient>
	<path class="st23" d="M395.7,171.2H294.6c-2.1,0-3.7,1.7-3.7,3.7c0,2.1,1.7,3.7,3.7,3.7h101.1c2.1,0,3.7-1.7,3.7-3.7
		C399.4,172.9,397.8,171.2,395.7,171.2z"/>
	<linearGradient id="SVGID_7_" gradientUnits="userSpaceOnUse" x1="302.7201" y1="143.8338" x2="313.4445" y2="125.2586">
		<stop  offset="0.1345" style="stop-color:#373B44"/>
		<stop  offset="1" style="stop-color:#4286F4"/>
	</linearGradient>
	<path class="st24" d="M302.3,138.7l-2.1,2.5c2.1,1.8,4.4,2.9,7,3.1v2.1h1.8v-2.1c1.9-0.1,3.5-0.7,4.7-1.7c1.2-1,1.8-2.4,1.8-4.1
		c0-1.7-0.5-2.9-1.5-3.8c-1-0.9-2.6-1.6-4.8-2.1h-0.1v-5.4c1.5,0.2,2.8,0.8,4.1,1.7l1.9-2.6c-1.9-1.3-3.9-2-6-2.1v-1.5h-1.8v1.4
		c-1.8,0.1-3.4,0.7-4.5,1.7s-1.7,2.4-1.7,4c0,1.7,0.5,2.9,1.5,3.7s2.6,1.5,4.7,2v5.5C305.5,141,303.9,140.1,302.3,138.7z
		 M309.1,136.2c1.1,0.3,1.9,0.7,2.3,1.1c0.4,0.4,0.6,0.9,0.6,1.6c0,0.7-0.3,1.2-0.8,1.7c-0.5,0.4-1.3,0.7-2.2,0.8V136.2z
		 M305.1,131.1c-0.4-0.4-0.6-0.9-0.6-1.5c0-0.6,0.2-1.2,0.7-1.6c0.5-0.4,1.2-0.7,2-0.8v4.9C306.2,131.8,305.4,131.5,305.1,131.1z"/>
</g>
<g>
	<g>
		<path class="st29" d="M193.4,77.5c2.4-14.4,0-24.6-7.8-33.6c-8.4-9.6-24.6-14.4-44.3-14.4H83.1c-4.2,0-7.8,3-8.4,7.2l-24,153.4
			c-0.6,3,1.8,6,4.8,6h35.9l-2.4,15.6c-0.6,2.4,1.8,4.8,4.2,4.8h30c3.6,0,6.6-2.4,7.2-6v-1.8l6-35.9l0.6-1.8c0.6-3.6,3.6-6,7.2-6
			h4.8c29.4,0,52.1-12,58.7-46.1c3-14.4,1.2-26.4-6-34.7C199.4,81.1,196.4,79.3,193.4,77.5L193.4,77.5"/>
		<path class="st30" d="M193.4,77.5c2.4-14.4,0-24.6-7.8-33.6c-8.4-9.6-24.6-14.4-44.3-14.4H83.1c-4.2,0-7.8,3-8.4,7.2l-24,153.4
			c-0.6,3,1.8,6,4.8,6h35.9l9-56.9v1.8c0.6-4.2,4.2-7.2,8.4-7.2h16.8c33.6,0,59.9-13.8,67.1-52.7C192.8,79.9,193.4,78.7,193.4,77.5"
			/>
		<path class="st30" d="M110.1,77.5c0.6-2.4,1.8-4.2,4.2-5.4c1.2-0.6,1.8-0.6,3-0.6h45.5c5.4,0,10.2,0.6,15,1.2
			c1.2,0,2.4,0.6,3.6,0.6s2.4,0.6,3.6,1.2c0.6,0,1.2,0.6,1.8,0.6c2.4,0.6,4.2,1.8,6.6,2.4c2.4-14.4,0-24.6-7.8-33.6
			c-8.4-9.6-24.6-14.4-44.3-14.4H83.1c-4.2,0-7.8,3-8.4,7.2l-24,153.4c-0.6,3,1.8,6,4.8,6h35.9l9-56.9L110.1,77.5z"/>
	</g>
</g>
</svg>
