<?xml version="1.0" encoding="utf-8"?>
<!-- Generator: Adobe Illustrator 22.0.0, SVG Export Plug-In . SVG Version: 6.00 Build 0)  -->
<svg version="1.1" id="Layer_1" xmlns="http://www.w3.org/2000/svg" xmlns:xlink="http://www.w3.org/1999/xlink" x="0px" y="0px"
	 viewBox="0 0 600 600" style="enable-background:new 0 0 600 600;" xml:space="preserve">
<style type="text/css">
	.st0{fill:url(#SVGID_1_);}
	.st1{fill:url(#SVGID_2_);}
	.st2{fill:url(#SVGID_3_);}
	.st3{fill:url(#SVGID_4_);}
</style>
<linearGradient id="SVGID_1_" gradientUnits="userSpaceOnUse" x1="276.478" y1="288.757" x2="319.7002" y2="288.757" gradientTransform="matrix(1 0 0 -1 0 600)">
	<stop  offset="0.3019" style="stop-color:#373B44"/>
	<stop  offset="0.7993" style="stop-color:#4286F4"/>
</linearGradient>
<path class="st0" d="M276.5,304.7h43.2v13h-43.2V304.7z"/>
<linearGradient id="SVGID_2_" gradientUnits="userSpaceOnUse" x1="276.478" y1="310.3681" x2="319.7002" y2="310.3681" gradientTransform="matrix(1 0 0 -1 0 600)">
	<stop  offset="0.3019" style="stop-color:#373B44"/>
	<stop  offset="0.7993" style="stop-color:#4286F4"/>
</linearGradient>
<path class="st1" d="M276.5,283.1h43.2v13h-43.2V283.1z"/>
<linearGradient id="SVGID_3_" gradientUnits="userSpaceOnUse" x1="235.2681" y1="241.6413" x2="473.0128" y2="241.6413" gradientTransform="matrix(1 0 0 -1 0 600)">
	<stop  offset="0.3019" style="stop-color:#373B44"/>
	<stop  offset="0.7993" style="stop-color:#4286F4"/>
</linearGradient>
<path class="st2" d="M460.3,239.9h-76c-3.3,0-7.1,1.5-9.7,3.8l-35.4,35c3.3,6.3,5.2,13.8,5.2,21.3c0,25.7-20.9,46.6-46.6,46.6
	c-7.9,0-14.9-1.8-21.3-5.2l-37.3,37.3c-5.2,5.2-5.2,13.4,0,18.6l75.7,75.7c5.2,5.2,13.4,5.2,18.6,0l135.4-135.4
	c2.6-2.3,3.8-5.9,4.1-9.4v-75C473.4,245.8,467.4,239.9,460.3,239.9z M446.1,282.4c-1.1,5.6-5.6,10.8-11.2,11.2
	c-9.4,1.5-16.8-6.3-15.7-15.3c1.1-5.9,5.6-10.8,11.2-11.2C439.8,265.6,447.7,273.1,446.1,282.4z"/>
<linearGradient id="SVGID_4_" gradientUnits="userSpaceOnUse" x1="123.0128" y1="358.1838" x2="360.7351" y2="358.1838" gradientTransform="matrix(1 0 0 -1 0 600)">
	<stop  offset="0.3019" style="stop-color:#373B44"/>
	<stop  offset="0.7993" style="stop-color:#4286F4"/>
</linearGradient>
<path class="st3" d="M347.7,123.2h-76c-3.3,0-7.1,1.5-9.7,3.8L127,262.2c-5.2,5.2-5.2,13.4,0,18.6l75.7,75.7
	c5.2,5.2,13.4,5.2,18.6,0l35.4-35.4c-3.3-5.9-5.2-13.4-5.2-20.9c0-25.7,20.9-46.6,46.6-46.6c7.4,0,14.9,1.8,21.3,5.2l37.3-37.3
	c2.6-2.3,3.8-5.9,4.1-9.4v-75.7C360.7,129.1,354.8,123.2,347.7,123.2z M333.5,165.7c-1.1,5.6-5.6,10.8-11.2,11.2
	c-9.4,1.5-16.8-6.3-15.7-15.3c1.1-5.9,5.6-10.8,11.2-11.2C327.2,148.9,335,156.7,333.5,165.7z"/>
</svg>
