<?xml version="1.0" encoding="utf-8"?>
<!-- Generator: Adobe Illustrator 22.0.0, SVG Export Plug-In . SVG Version: 6.00 Build 0)  -->
<svg version="1.1" id="Layer_1" xmlns="http://www.w3.org/2000/svg" xmlns:xlink="http://www.w3.org/1999/xlink" x="0px" y="0px"
	 viewBox="0 0 506 600" style="enable-background:new 0 0 506 600;" xml:space="preserve">
<style type="text/css">
	.st0{display:none;}
	.st1{display:inline;}
	.st2{fill:#35404C;}
	.st3{fill:#343F3E;}
	.st4{fill:#333D3C;}
	.st5{fill:#3B4342;}
	.st6{fill:#323B3A;}
	.st7{fill:#303A39;}
	.st8{fill:#384040;}
	.st9{fill:#3D4745;}
	.st10{fill:#3A4241;}
	.st11{fill:#3A4444;}
	.st12{fill:#293130;}
	.st13{fill:#3F4746;}
	.st14{fill:#2B3635;}
	.st15{display:none;fill:url(#SVGID_1_);}
	.st16{display:none;fill:url(#SVGID_2_);}
	.st17{display:none;fill:url(#SVGID_3_);}
	.st18{display:none;fill:url(#SVGID_4_);}
	.st19{fill:url(#SVGID_5_);}
	.st20{fill:url(#SVGID_6_);}
	.st21{fill:url(#SVGID_7_);}
	.st22{fill:url(#SVGID_8_);}
	.st23{fill:url(#SVGID_9_);}
</style>
<g class="st0">
	<g class="st1">
		<path class="st2" d="M414.9,110.1c-3.3,0-5.9,0.3-8.3-0.1c-1.7-0.3-3.1-1.7-4.7-2.7c1.6-1.1,3-2.8,4.8-3.2
			c2.4-0.6,4.9-0.1,8.1-0.1c0-3.2-0.3-6.1,0.1-9c0.2-1.6,1.8-3,2.7-4.4c1,1.4,2.6,2.7,2.9,4.2c0.6,2.7,0.4,5.6,0.5,9.1
			c2.9,0,5.9-0.4,8.7,0.1c1.6,0.3,3,1.9,4.5,3c-1.5,1-2.9,2.1-4.5,3c-0.7,0.3-1.6,0.1-2.5,0.1c-6.5,0-6.5,0-6.5,6.5
			c0,1,0.1,2.1-0.3,2.9c-0.7,1.3-1.8,2.4-2.8,3.6c-1-1.3-2.6-2.5-2.8-4C414.6,116.3,414.9,113.5,414.9,110.1z"/>
		<path class="st3" d="M85.5,103.4c0,2.3,0,4.2,0,6.3c-9.2,0-18.3,0-27.7,0c0-2,0-4.1,0-6.3C67.1,103.4,76,103.4,85.5,103.4z"/>
		<path class="st4" d="M440.9,447.1c0,11,0,19.9,0,29.2c-2.2,0-4.2,0-6.7,0c0-8.7-0.2-17.1,0.3-25.4
			C434.5,449.7,437.9,448.7,440.9,447.1z"/>
		<path class="st3" d="M33.8,498.9c-1.8,1.6-3.2,2.9-4.8,4.5c-1.7-1.6-3.2-3-4.9-4.6c1.5-1.7,2.8-3.1,4.4-4.9
			C30.3,495.6,31.9,497.1,33.8,498.9z"/>
		<path class="st5" d="M67.9,480.5c0,2.2,0,4.2,0,6.4c-2.1,0-4.2,0-6.2,0C60.6,480.2,60.9,479.9,67.9,480.5z"/>
		<path class="st6" d="M434.4,491c0-2,0-3.8,0-5.9c2.1,0,4.1,0,6.4,0c0,1.8,0,3.7,0,5.9C438.7,491,436.7,491,434.4,491z"/>
		<path class="st7" d="M31.1,263c2.2,0,3.9,0,5.8,0c0,2,0,3.8,0,6.1c-1.7,0.2-3.6,0.4-5.8,0.6C31.1,267.3,31.1,265.3,31.1,263z"/>
		<path class="st5" d="M58.9,493.8c1.5,1.6,2.8,3,4.5,4.8c-1.8,1.7-3.5,3.2-5.4,5c-1.6-2-2.7-3.5-4.1-5.2
			C55.6,496.9,57.2,495.4,58.9,493.8z"/>
		<path class="st6" d="M46.9,460c0,2,0,3.8,0,5.9c-2.1,0-4.1,0-6.4,0c0-1.9,0-3.8,0-5.9C42.6,460,44.7,460,46.9,460z"/>
		<path class="st8" d="M53.6,469c1.9-1.8,3.3-3.1,4.9-4.6c1.7,1.5,3.1,2.8,5,4.4c-1.4,1.6-2.7,3.1-4.3,4.9
			C57.2,472.1,55.6,470.8,53.6,469z"/>
		<path class="st9" d="M40.5,507.8c0-2.3,0-4,0-6.2c2.1,0,4,0,6.4,0c0.1,2,0.2,3.9,0.3,6.2C44.8,507.8,42.8,507.8,40.5,507.8z"/>
		<path class="st4" d="M43.1,103.4c2.3,0,4,0,6,0c0,2.2,0,4.2,0,6.3c-2,0-3.9,0-6,0C43.1,107.7,43.1,105.8,43.1,103.4z"/>
		<path class="st8" d="M468.9,317.5c1.7,1.9,3,3.4,5,5.5c-1.8,1.3-3.4,2.4-5.5,3.9c-0.9-0.9-2.3-2.2-4.2-4
			C465.6,321.3,466.9,319.8,468.9,317.5z"/>
		<path class="st5" d="M475,311.7c1.9-1.6,3.3-2.9,5.7-4.9c1,1.5,2.1,3.3,3.5,5.6c-1.2,0.8-2.7,2-4.8,3.5
			C478.4,314.9,476.9,313.5,475,311.7z"/>
		<path class="st10" d="M24.6,468.7c1-1.1,2.5-2.7,4.4-4.7c1.8,2.1,3.2,3.7,4.6,5.4c-1.8,1.3-3.4,2.5-5.6,4.1
			C27.3,472.6,26.1,470.8,24.6,468.7z"/>
		<path class="st3" d="M39.9,272.2c2.3,0,4.2,0,6.3,0c0,2.1,0,4,0,6.3c-1.8,0.1-3.6,0.2-6,0.4C40.1,276.6,40,274.5,39.9,272.2z"/>
		<path class="st5" d="M434.5,500.2c2.2,0,4,0,6.2,0c0,2.1,0,4.1,0,6.5c-2,0-3.9,0-6.2,0C434.5,504.7,434.5,502.7,434.5,500.2z"/>
		<path class="st11" d="M27.4,109.7c0-2.2,0-4.1,0-6.2c2.2,0,4.1,0,6.3,0c0,2.1,0,4,0,6.2C31.8,109.7,29.8,109.7,27.4,109.7z"/>
		<path class="st9" d="M491.1,317.7c1.6,1.7,2.9,3.1,4.5,4.8c-1.5,1.6-2.8,3.1-4.5,4.8c-1.6-1.6-3-2.9-4.8-4.6
			C488,321,489.5,319.4,491.1,317.7z"/>
		<path class="st11" d="M485.9,300.6c2.2-1.9,3.5-3.1,4.8-4.3c5.8,4.1,5.8,4.1-0.1,9C489.2,303.9,487.8,302.5,485.9,300.6z"/>
		<path class="st12" d="M19.8,480.9c2.1,0,3.9,0,5.9,0c0,2,0,3.8,0,6c-1.9,0-3.8,0-5.9,0C19.8,484.9,19.8,483.2,19.8,480.9z"/>
		<path class="st13" d="M473.8,300.4c-1.8,1.9-3.1,3.3-4.9,5.2c-1.7-2-3.1-3.5-4.8-5.5c1.5-1.3,3-2.5,5-4.1
			C470.4,297.3,471.9,298.6,473.8,300.4z"/>
		<path class="st14" d="M45.9,254.1c0.1,2.2,0.2,4,0.4,6c-2.1,0-4,0-6.2,0c0-2,0-3.9,0-6C42.1,254.1,43.8,254.1,45.9,254.1z"/>
	</g>
</g>
<linearGradient id="SVGID_1_" gradientUnits="userSpaceOnUse" x1="108.5472" y1="79.4298" x2="141.6528" y2="136.7702" gradientTransform="matrix(1 0 0 -1 0 600)">
	<stop  offset="0.1345" style="stop-color:#373B44"/>
	<stop  offset="1" style="stop-color:#4286F4"/>
</linearGradient>
<circle class="st15" cx="125.1" cy="491.9" r="33.1"/>
<linearGradient id="SVGID_2_" gradientUnits="userSpaceOnUse" x1="-24.8516" y1="361.9561" x2="-5.7686" y2="395.0089" gradientTransform="matrix(1 0 0 -1 0 600)">
	<stop  offset="0.1345" style="stop-color:#373B44"/>
	<stop  offset="1" style="stop-color:#4286F4"/>
</linearGradient>
<circle class="st16" cx="-15.3" cy="221.5" r="19.1"/>
<linearGradient id="SVGID_3_" gradientUnits="userSpaceOnUse" x1="123.5466" y1="483.0131" x2="163.2534" y2="551.7869" gradientTransform="matrix(1 0 0 -1 0 600)">
	<stop  offset="0.1345" style="stop-color:#373B44"/>
	<stop  offset="1" style="stop-color:#4286F4"/>
</linearGradient>
<circle class="st17" cx="143.4" cy="82.6" r="39.7"/>
<linearGradient id="SVGID_4_" gradientUnits="userSpaceOnUse" x1="408.3479" y1="258.8394" x2="434.0522" y2="303.3606" gradientTransform="matrix(1 0 0 -1 0 600)">
	<stop  offset="0.1345" style="stop-color:#373B44"/>
	<stop  offset="1" style="stop-color:#4286F4"/>
</linearGradient>
<circle class="st18" cx="421.2" cy="318.9" r="25.7"/>
<g>
	
		<linearGradient id="SVGID_5_" gradientUnits="userSpaceOnUse" x1="129.2365" y1="374.2234" x2="191.992" y2="482.9189" gradientTransform="matrix(-1 0 0 -1 413.1691 600)">
		<stop  offset="0.3019" style="stop-color:#373B44"/>
		<stop  offset="0.7993" style="stop-color:#4286F4"/>
	</linearGradient>
	<path class="st19" d="M283.4,225.1c-0.5,1.6-2.3,2.6-4,2.1l-81.5-26.9c-1.6-0.5-2.6-2.3-2.1-4l25.9-78.5c0.5-1.6,2.3-2.6,4-2.1
		l81.5,26.9c1.6,0.5,2.6,2.3,2.1,4L283.4,225.1z"/>
	
		<linearGradient id="SVGID_6_" gradientUnits="userSpaceOnUse" x1="36.3968" y1="277.941" x2="123.4543" y2="428.7291" gradientTransform="matrix(-1 0 0 -1 413.1691 600)">
		<stop  offset="0.3019" style="stop-color:#373B44"/>
		<stop  offset="0.7993" style="stop-color:#4286F4"/>
	</linearGradient>
	<path class="st20" d="M269.9,372.2l72.9-220.8c6.4-19.4,27.5-29.9,46.9-23.6c19.4,6.4,29.9,27.5,23.6,46.9
		c-1.7,5.2-7.3,8.1-12.5,6.4c-5.2-1.7-8.1-7.3-6.4-12.5c3-9-1.9-18.7-10.9-21.7c-9-3-18.7,1.9-21.7,10.9l-70.5,213.8
		C283.9,370.2,276.7,370.4,269.9,372.2z"/>
	
		<linearGradient id="SVGID_7_" gradientUnits="userSpaceOnUse" x1="213.243" y1="174.4764" x2="276.0031" y2="283.1803" gradientTransform="matrix(-1 0 0 -1 413.1691 600)">
		<stop  offset="0.3019" style="stop-color:#373B44"/>
		<stop  offset="0.7993" style="stop-color:#4286F4"/>
	</linearGradient>
	<path class="st21" d="M90.6,346.7c1.7-5.2,7.3-8.1,12.5-6.4l142.4,46.9c-4.2,4.8-7.6,10.6-9.7,17c-0.1,0.3-0.2,0.4-0.2,0.7
		L97,359.3C91.7,357.6,88.9,351.9,90.6,346.7z"/>
	
		<linearGradient id="SVGID_8_" gradientUnits="userSpaceOnUse" x1="111.2949" y1="146.5111" x2="150.3801" y2="214.2089" gradientTransform="matrix(-1 0 0 -1 413.1691 600)">
		<stop  offset="0.3019" style="stop-color:#373B44"/>
		<stop  offset="0.7993" style="stop-color:#4286F4"/>
	</linearGradient>
	<path class="st22" d="M245.2,407.4c-6.8,20.5,4.4,42.6,24.9,49.3s42.6-4.4,49.3-24.9c6.8-20.5-4.4-42.6-24.9-49.3
		C274.1,375.7,252,386.9,245.2,407.4z M268.7,415.1c2.5-7.5,10.6-11.6,18-9.1c7.5,2.5,11.6,10.6,9.1,18c-2.5,7.5-10.6,11.6-18,9.1
		C270.4,430.8,266.3,422.7,268.7,415.1z"/>
	
		<linearGradient id="SVGID_9_" gradientUnits="userSpaceOnUse" x1="159.6002" y1="232.8793" x2="257.7047" y2="402.8013" gradientTransform="matrix(-1 0 0 -1 413.1691 600)">
		<stop  offset="0.3019" style="stop-color:#373B44"/>
		<stop  offset="0.7993" style="stop-color:#4286F4"/>
	</linearGradient>
	<path class="st23" d="M293.3,243.3l-40.5,122.8c-0.9,2.6-3.7,4-6.3,3.2l-127.6-42c-2.6-0.9-4-3.7-3.2-6.3l40.5-122.8
		c0.9-2.6,3.7-4,6.3-3.2l127.6,42.1C292.8,237.9,294.1,240.7,293.3,243.3z"/>
</g>
</svg>
