<?xml version="1.0" encoding="utf-8"?>
<!-- Generator: Adobe Illustrator 22.0.0, SVG Export Plug-In . SVG Version: 6.00 Build 0)  -->
<svg version="1.1" id="Layer_1" xmlns="http://www.w3.org/2000/svg" xmlns:xlink="http://www.w3.org/1999/xlink" x="0px" y="0px"
	 viewBox="0 0 600 420" style="enable-background:new 0 0 600 420;" xml:space="preserve">
<style type="text/css">
	.st0{fill:url(#SVGID_1_);}
</style>
<g>
	
		<linearGradient id="SVGID_1_" gradientUnits="userSpaceOnUse" x1="299.97" y1="93.8602" x2="299.97" y2="330.2173" gradientTransform="matrix(1 0 0 -1 0 422)">
		<stop  offset="0.3019" style="stop-color:#373B44"/>
		<stop  offset="0.7993" style="stop-color:#4286F4"/>
	</linearGradient>
	<path class="st0" d="M246.7,183.9l41.4-81.7c2.6-5.2-1.5-11.2-7.1-10.4l-108.5,12.7c-2.2,0.3-4.1,1.5-5.2,3.3l-41.4,69
		c-2.6,4.8,0.7,10.8,6.3,10.8H240C243,187.7,245.2,186.2,246.7,183.9z M240,198.8h-71.2v94.7c0,11.6,8.6,21.6,20.5,22.7l105.5,11.9
		V114.3l-38,74.6C253.4,195.1,247.1,198.8,240,198.8z M474,176.8l-41-69c-1.1-1.8-3-3.3-5.2-3.3L319.3,91.8
		c-5.6-0.7-9.7,5.2-7.1,10.4l41,81.7c1.1,2.2,3.7,4.1,6.3,4.1h108.1C473.3,187.7,476.7,181.7,474,176.8z M343.6,188.7l-38-74.6v214
		l105.5-11.9c11.6-1.5,20.5-11.2,20.5-22.7v-94.7H360C352.9,198.8,346.6,195.1,343.6,188.7z"/>
</g>
</svg>
